<?xml version="1.0" standalone="no"?>
<!DOCTYPE svg PUBLIC "-//W3C//DTD SVG 20010904//EN"
 "http://www.w3.org/TR/2001/REC-SVG-20010904/DTD/svg10.dtd">
<svg version="1.0" xmlns="http://www.w3.org/2000/svg"
 width="520.000000pt" height="813.000000pt" viewBox="0 0 520.000000 813.000000"
 preserveAspectRatio="xMidYMid meet">

<g transform="translate(0.000000,813.000000) scale(0.100000,-0.100000)"
fill="#000000" stroke="none">
<path d="M1970 7304 c0 -14 3 -14 15 -4 8 7 15 14 15 16 0 2 -7 4 -15 4 -8 0
-15 -7 -15 -16z"/>
<path d="M3250 7310 c0 -5 5 -10 11 -10 5 0 7 5 4 10 -3 6 -8 10 -11 10 -2 0
-4 -4 -4 -10z"/>
<path d="M3305 7040 c-3 -5 -1 -10 4 -10 6 0 11 5 11 10 0 6 -2 10 -4 10 -3 0
-8 -4 -11 -10z"/>
<path d="M2264 6549 c-3 -6 -1 -16 5 -22 8 -8 11 -5 11 11 0 24 -5 28 -16 11z"/>
<path d="M4675 6477 c-14 -11 -15 -16 -5 -22 8 -5 18 -2 25 8 7 9 15 14 18 10
4 -3 7 -1 7 5 0 16 -22 15 -45 -1z"/>
<path d="M4692 6444 c-10 -11 -10 -14 0 -15 7 -1 20 -2 28 -3 9 0 15 -10 14
-23 -1 -13 3 -20 7 -17 5 3 9 15 9 28 0 30 -39 50 -58 30z"/>
<path d="M4535 6430 c-3 -5 -2 -10 4 -10 5 0 9 -13 9 -30 -1 -26 -3 -28 -17
-17 -14 10 -14 10 -4 -4 7 -9 12 -18 10 -20 -1 -3 6 4 16 14 9 11 17 28 17 39
0 13 4 17 13 12 8 -5 8 -2 -2 9 -15 19 -37 22 -46 7z"/>
<path d="M4707 6392 c-2 -11 -1 -26 4 -33 4 -8 1 -17 -8 -24 -9 -7 -13 -18
-10 -26 4 -10 6 -9 6 4 1 9 7 17 15 17 11 0 13 9 9 38 -7 45 -9 48 -16 24z"/>
<path d="M4563 6333 c0 -7 6 -13 14 -13 7 0 13 6 13 13 0 8 -6 14 -13 14 -8 0
-14 -6 -14 -14z"/>
<path d="M4526 6293 c-6 -14 -5 -15 5 -6 7 7 10 15 7 18 -3 3 -9 -2 -12 -12z"/>
<path d="M4719 6298 c15 -20 41 -24 41 -7 0 5 -5 7 -10 4 -6 -4 -19 -1 -28 7
-15 12 -16 11 -3 -4z"/>
<path d="M4590 6289 c0 -5 5 -7 10 -4 6 3 10 8 10 11 0 2 -4 4 -10 4 -5 0 -10
-5 -10 -11z"/>
<path d="M4696 6277 c3 -10 9 -15 12 -12 3 3 0 11 -7 18 -10 9 -11 8 -5 -6z"/>
<path d="M4745 6262 c-5 -4 -10 -20 -10 -37 0 -22 -5 -30 -17 -29 -10 1 -14
-4 -11 -11 2 -7 -4 -15 -14 -18 -17 -4 -17 -5 0 -6 10 0 16 -5 13 -9 -2 -4 -1
-14 5 -22 7 -13 9 -12 9 3 0 16 19 25 21 10 4 -54 8 -75 14 -81 3 -4 5 42 3
101 -1 59 -3 107 -3 107 0 0 -4 -4 -10 -8z"/>
<path d="M4530 6224 c8 -10 15 -20 16 -22 1 -1 7 6 15 15 7 10 10 15 5 11 -5
-4 -18 -2 -30 4 -20 11 -20 10 -6 -8z"/>
<path d="M4510 6206 c0 -2 7 -9 15 -16 13 -11 14 -10 9 4 -5 14 -24 23 -24 12z"/>
<path d="M4595 6181 c-3 -5 0 -13 6 -16 6 -4 8 -18 5 -30 -3 -13 -2 -27 4 -30
6 -4 7 1 3 11 -4 12 -3 15 5 10 17 -10 15 5 -3 31 -12 16 -12 22 -2 26 9 4 9
6 0 6 -6 1 -14 -3 -18 -8z"/>
<path d="M4630 6099 c0 -5 5 -7 10 -4 6 3 10 8 10 11 0 2 -4 4 -10 4 -5 0 -10
-5 -10 -11z"/>
<path d="M4671 6070 c-7 -23 -6 -32 8 -44 20 -18 41 -21 41 -6 0 6 -7 10 -16
10 -9 0 -14 6 -11 13 2 6 9 11 14 10 17 -3 9 36 -9 40 -12 3 -20 -4 -27 -23z"/>
<path d="M4564 6006 c-6 -6 -9 -17 -8 -24 1 -7 0 -8 -3 -2 -6 13 -33 13 -33 0
0 -5 -7 -10 -15 -10 -8 0 -15 -6 -15 -13 0 -17 -28 -18 -34 -1 -3 8 0 16 6 20
7 4 8 3 4 -4 -4 -7 -2 -12 4 -12 7 0 10 6 8 13 -3 6 -22 13 -43 14 -21 0 -34
-2 -29 -5 12 -9 14 -42 3 -42 -5 0 -9 5 -9 10 0 6 -7 10 -15 10 -8 0 -15 -5
-15 -11 0 -5 5 -7 12 -3 7 4 8 3 4 -4 -4 -7 -18 -9 -32 -6 -14 4 -24 2 -24 -5
0 -6 5 -11 11 -11 8 0 9 -4 0 -13 -6 -8 -8 -17 -3 -21 4 -4 -1 -12 -11 -18
-18 -9 -18 -11 3 -25 16 -11 25 -12 33 -4 15 15 30 14 22 -1 -4 -7 1 -4 11 7
13 15 15 16 11 3 -7 -19 14 -40 34 -34 8 2 28 7 44 11 28 6 29 6 10 -9 -11 -8
-17 -18 -13 -21 4 -4 14 0 23 9 9 9 21 16 27 16 6 0 -1 -9 -16 -21 -23 -18
-24 -22 -11 -35 8 -9 15 -19 15 -23 0 -4 6 -8 14 -8 8 0 14 11 14 24 0 19 -4
22 -22 17 -19 -6 -18 -3 7 23 15 16 24 32 21 36 -10 10 42 27 66 22 15 -3 20
0 17 10 -3 7 0 16 8 19 8 3 15 1 17 -3 2 -5 12 1 23 12 20 20 20 20 -2 8 -15
-8 -23 -8 -23 -1 0 5 5 10 11 10 5 0 8 4 4 9 -3 5 0 13 6 17 8 4 9 3 5 -4 -4
-7 -3 -12 2 -12 5 0 12 12 15 27 6 32 -27 68 -52 57 -35 -13 -60 -14 -68 0 -6
11 -11 11 -19 2z m-121 -66 c-7 -8 -22 24 -16 34 4 5 10 1 13 -10 4 -10 6 -21
3 -24z m117 10 c0 -3 -4 -11 -9 -18 -7 -11 -9 -10 -15 3 -3 9 -10 14 -15 10
-5 -3 -13 -1 -16 5 -4 7 5 10 24 8 17 -1 31 -5 31 -8z m58 -7 c-5 -24 -27 -28
-25 -4 1 12 7 21 15 21 7 0 12 -8 10 -17z m-133 -33 c3 -5 1 -10 -4 -10 -6 0
-11 5 -11 10 0 6 2 10 4 10 3 0 8 -4 11 -10z m155 -5 c10 -12 10 -15 -4 -15
-9 0 -16 7 -16 15 0 8 2 15 4 15 2 0 9 -7 16 -15z m-172 -47 c-2 -8 5 -12 17
-10 26 5 14 -7 -13 -13 -18 -3 -21 5 -13 33 3 9 11 0 9 -10z m-108 -2 c0 -3
-4 -8 -10 -11 -5 -3 -10 -1 -10 4 0 6 5 11 10 11 6 0 10 -2 10 -4z"/>
<path d="M4267 5925 c-18 -13 -17 -14 5 -17 13 -2 22 -9 20 -16 -1 -8 2 -11 7
-8 16 10 9 45 -8 38 -9 -3 -12 -1 -7 6 9 15 5 15 -17 -3z"/>
<path d="M4722 5915 c0 -16 2 -22 5 -12 2 9 2 23 0 30 -3 6 -5 -1 -5 -18z"/>
<path d="M4215 5869 c0 -17 5 -29 13 -29 7 0 10 -4 7 -10 -6 -10 16 -14 64
-12 33 2 57 -18 39 -31 -10 -6 -9 -7 4 -4 9 3 18 1 21 -6 2 -8 5 -8 10 0 9 14
-37 47 -76 57 -21 5 -27 4 -21 -5 4 -8 3 -9 -5 -5 -6 4 -9 12 -5 17 6 11 -11
36 -35 49 -13 6 -16 2 -16 -21z"/>
<path d="M4210 5790 c-8 -15 -8 -20 -1 -16 7 4 11 -1 11 -13 0 -12 -4 -21 -10
-21 -5 0 -10 -12 -10 -26 0 -14 4 -23 10 -19 6 3 10 2 10 -4 0 -5 -6 -11 -12
-13 -10 -4 -10 -11 1 -34 8 -16 13 -41 12 -56 -1 -14 3 -29 9 -33 8 -5 7 -11
-2 -22 -11 -14 -8 -15 22 -8 45 10 80 23 80 30 0 4 -4 3 -10 0 -5 -3 -10 2
-10 12 0 11 -13 40 -29 65 -22 35 -27 49 -18 58 9 10 9 11 0 6 -9 -5 -11 -2
-7 8 8 20 20 20 28 1 3 -8 12 -15 20 -15 10 0 13 -6 10 -15 -4 -11 0 -15 16
-15 19 0 20 -2 10 -15 -16 -20 7 -20 33 -1 25 19 21 36 -10 36 -24 0 -25 1
-10 18 15 17 17 21 17 43 0 5 5 7 12 3 7 -4 8 -3 4 4 -4 6 -13 9 -21 5 -9 -3
-15 1 -15 8 0 8 -9 3 -20 -11 -11 -14 -20 -19 -20 -12 0 6 -7 12 -15 12 -8 0
-15 5 -15 10 0 6 7 10 15 10 8 0 15 -5 15 -11 0 -5 4 -7 10 -4 13 8 6 48 -10
53 -7 3 -10 0 -6 -7 5 -7 1 -9 -9 -4 -10 3 -21 0 -26 -8 -8 -12 -11 -12 -19 1
-5 8 -10 11 -10 5 0 -5 -4 -4 -9 4 -7 11 -11 9 -21 -9z m50 -30 c0 -5 -7 -10
-15 -10 -8 0 -15 5 -15 10 0 6 7 10 15 10 8 0 15 -4 15 -10z m90 -41 c-14 -26
-18 -24 -12 6 2 14 8 22 13 19 5 -3 5 -14 -1 -25z m-99 -68 c-8 -5 -10 -14 -6
-22 6 -11 5 -11 -5 -2 -14 12 -6 33 13 33 8 0 7 -3 -2 -9z m29 -81 c0 -5 -4
-10 -10 -10 -5 0 -10 5 -10 10 0 6 5 10 10 10 6 0 10 -4 10 -10z"/>
<path d="M4420 5752 c8 -4 16 -15 16 -25 2 -14 -1 -15 -12 -6 -17 14 -17 9 -4
-26 8 -20 7 -27 -5 -31 -8 -4 -12 -10 -9 -15 3 -5 10 -7 15 -4 5 4 16 2 25 -3
13 -7 10 -11 -15 -22 -35 -14 -36 -16 -17 -36 9 -9 17 -10 21 -4 3 5 1 10 -4
10 -6 0 -11 5 -11 12 0 6 9 3 20 -7 22 -20 26 -45 8 -45 -7 -1 -2 -10 11 -21
23 -19 23 -20 5 -42 -13 -15 -14 -18 -3 -9 25 19 32 -11 8 -32 -11 -9 -17 -22
-13 -28 4 -7 3 -8 -4 -4 -7 4 -12 14 -12 22 0 11 -6 13 -20 9 -14 -4 -20 -2
-20 9 0 9 6 13 14 10 9 -3 19 4 26 17 11 20 10 21 -11 16 -13 -3 -29 -1 -36 5
-7 6 -13 7 -14 2 0 -5 -6 7 -14 26 l-13 35 1 -33 c0 -18 -3 -35 -6 -39 -4 -3
-7 0 -7 9 0 8 -7 15 -15 15 -15 0 -12 -11 13 -40 8 -9 13 -18 11 -20 -2 -2
-16 -11 -31 -20 -20 -12 -27 -25 -26 -43 2 -25 28 -58 28 -35 0 13 20 14 40 1
12 -7 12 -12 3 -21 -20 -20 -56 -18 -75 5 -10 12 -17 15 -18 9 0 -7 5 -13 10
-13 6 0 10 -4 10 -10 0 -5 -8 -6 -17 -3 -16 6 -16 5 -4 -10 12 -15 12 -17 -3
-11 -10 4 -16 1 -17 -7 0 -8 -2 -25 -4 -39 -2 -14 -1 -19 1 -12 7 15 24 6 24
-14 0 -8 -10 -14 -25 -14 -18 0 -23 -4 -18 -16 3 -9 -3 -21 -16 -30 -12 -9
-19 -19 -16 -24 3 -5 1 -11 -5 -15 -5 -3 -10 2 -10 12 0 14 -2 15 -9 4 -5 -7
-8 -21 -6 -30 2 -14 23 -16 159 -18 87 -1 164 1 172 4 8 3 14 19 14 40 0 23
-4 32 -12 27 -7 -5 -8 -3 -3 6 6 10 4 12 -10 6 -15 -5 -16 -4 -5 8 11 14 14
14 27 1 21 -21 24 -18 9 10 -11 21 -11 34 1 77 7 29 12 61 9 70 -2 10 2 22 10
29 8 6 14 17 14 23 0 6 -5 4 -10 -4 -6 -10 -10 -11 -10 -2 0 6 -7 12 -16 12
-8 0 -13 -4 -9 -10 3 -5 -8 -16 -24 -24 -25 -13 -31 -13 -41 -1 -11 13 -20 13
-67 -1 -18 -5 -25 -1 -32 17 -14 38 -13 42 15 45 20 2 24 0 15 -9 -20 -20 -12
-27 29 -22 21 2 42 0 45 -6 9 -13 35 8 35 27 0 8 5 14 10 14 6 0 10 -4 10 -10
0 -5 7 -10 15 -10 8 0 15 5 15 11 0 5 -4 8 -9 5 -18 -11 -28 20 -26 79 2 33 6
71 10 85 5 17 4 21 -3 11 -11 -16 -21 -3 -16 22 1 11 0 16 -3 13 -3 -3 -15 -1
-25 5 -19 10 -19 12 11 30 17 10 31 22 31 25 0 4 -7 1 -15 -6 -13 -10 -15 -9
-15 8 0 25 -25 52 -48 51 -14 0 -15 -2 -2 -7z m61 -190 c-6 -10 -7 -23 -3 -27
4 -5 1 -5 -6 -1 -9 5 -9 12 -2 27 6 11 8 25 4 32 -5 9 -4 9 5 1 10 -9 10 -17
2 -32z m-91 -417 c0 -8 -7 -15 -15 -15 -9 0 -12 6 -9 15 4 8 10 15 15 15 5 0
9 -7 9 -15z"/>
<path d="M4585 5740 c-3 -6 1 -7 9 -4 18 7 21 14 7 14 -6 0 -13 -4 -16 -10z"/>
<path d="M4601 5726 c-18 -10 -20 -14 -9 -19 8 -3 22 3 31 14 19 22 12 24 -22
5z"/>
<path d="M4371 5727 c2 -1 12 -9 22 -16 15 -12 17 -12 11 3 -3 9 -13 16 -22
16 -8 0 -13 -1 -11 -3z"/>
<path d="M4560 5711 c0 -6 4 -13 10 -16 6 -3 7 1 4 9 -7 18 -14 21 -14 7z"/>
<path d="M4370 5701 c0 -5 7 -12 16 -15 24 -9 27 -7 10 9 -17 17 -26 19 -26 6z"/>
<path d="M4650 5660 c0 -6 -4 -9 -8 -6 -4 2 -8 -4 -8 -14 0 -15 4 -16 18 -9
20 11 23 25 8 34 -5 3 -10 1 -10 -5z"/>
<path d="M4550 5646 c0 -2 7 -7 16 -10 8 -3 12 -2 9 4 -6 10 -25 14 -25 6z"/>
<path d="M2820 5605 c-41 -7 -102 -20 -135 -28 -33 -8 -80 -18 -104 -22 -25
-4 -90 -23 -145 -42 l-101 -35 -260 -9 c-143 -4 -287 -13 -320 -18 -59 -11
-115 -29 -115 -38 0 -15 133 -109 205 -146 28 -13 59 -34 69 -46 13 -14 22
-18 26 -11 5 8 18 5 41 -8 19 -11 72 -32 119 -47 143 -45 138 -43 114 -44 -11
-1 -72 16 -135 36 -63 20 -122 38 -131 39 -10 1 -33 15 -53 33 -20 17 -40 31
-46 31 -17 0 -151 89 -191 127 -20 20 -41 32 -48 28 -17 -10 1 -27 97 -91 46
-31 82 -58 80 -60 -2 -3 -48 25 -102 62 l-99 67 -32 -18 c-74 -40 -325 -257
-312 -270 9 -9 906 -24 1193 -19 121 2 506 6 855 10 349 4 639 9 643 11 10 6
-19 51 -47 75 -15 13 -31 16 -54 12 -40 -6 -95 22 -71 37 8 5 19 9 24 9 6 0 3
-4 -4 -9 -12 -8 -9 -11 13 -17 37 -9 59 12 25 25 -13 5 -20 10 -15 10 5 1 -3
10 -17 21 -27 21 -28 66 0 56 10 -4 11 -1 3 14 -9 17 -8 18 22 9 35 -10 52 -5
19 6 -12 3 -22 11 -22 16 -1 5 -2 13 -3 18 -2 16 -12 21 -54 24 -27 2 -41 0
-39 -7 2 -6 13 -10 23 -9 10 1 13 0 7 -3 -7 -3 -15 -4 -19 -2 -3 2 -12 -8 -19
-22 -14 -25 -14 -25 -15 12 0 20 6 43 13 50 8 7 16 20 20 28 3 10 6 7 6 -7 1
-13 5 -23 9 -23 16 0 5 45 -11 48 -9 2 -17 10 -17 18 0 8 -7 14 -15 14 -8 0
-15 5 -15 10 0 6 -15 9 -32 9 -31 -2 -31 -2 -5 -6 15 -2 27 -9 27 -14 0 -6 -9
-8 -19 -4 -11 3 -22 1 -26 -5 -3 -5 2 -10 12 -10 14 0 15 -2 4 -9 -7 -5 -11
-14 -7 -20 5 -7 1 -8 -10 -4 -13 5 -16 3 -11 -10 7 -18 -18 -44 -27 -28 -3 5
0 12 6 15 7 4 3 4 -9 2 -13 -2 -23 -1 -23 3 0 8 -53 31 -90 39 -50 10 -115 3
-130 -15 -21 -25 -87 -68 -135 -88 -22 -10 -55 -24 -72 -33 -24 -11 -50 -13
-96 -9 -34 3 -69 2 -76 -3 -8 -4 -21 -6 -29 -3 -9 4 -3 11 19 20 28 12 44 12
86 3 46 -10 57 -9 90 8 21 10 69 34 107 53 38 19 75 44 83 55 8 13 30 24 56
29 l42 8 -65 19 c-36 11 -79 26 -97 34 -17 8 -37 14 -45 14 -7 0 -36 9 -63 19
-49 19 -183 42 -228 40 -12 -1 -56 -7 -97 -14z m860 -200 c0 -8 -7 -15 -15
-15 -26 0 -18 20 13 29 1 1 2 -6 2 -14z m-773 -101 c-3 -4 -14 -3 -24 0 -15 6
-15 8 -3 16 16 10 39 -4 27 -16z m843 17 c0 -18 -18 -21 -30 -6 -10 13 -9 15
9 15 11 0 21 -4 21 -9z m-870 -31 c0 -5 -7 -10 -15 -10 -7 0 -18 -6 -22 -13
-4 -8 -30 -20 -56 -27 -27 -7 -65 -21 -85 -32 -47 -24 -92 -25 -47 -1 17 9 32
19 35 23 3 4 32 13 65 21 33 7 71 21 84 31 26 20 41 23 41 8z m75 -10 c3 -6
-1 -7 -9 -4 -18 7 -21 14 -7 14 6 0 13 -4 16 -10z m-35 -25 c-7 -9 -15 -13
-17 -11 -7 7 7 26 19 26 6 0 6 -6 -2 -15z m-370 -88 c-27 -15 -36 -14 -25 2 3
6 16 11 28 11 21 0 21 -1 -3 -13z m214 -2 c-4 -8 -8 -15 -10 -15 -2 0 -4 7 -4
15 0 8 4 15 10 15 5 0 7 -7 4 -15z m90 -22 c-22 -16 -34 -17 -34 -2 0 6 9 13
20 16 11 3 20 10 21 17 0 6 3 5 6 -3 3 -8 -2 -20 -13 -28z m-218 12 c-36 -19
-56 -19 -30 0 10 8 28 14 39 15 16 0 14 -3 -9 -15z m-106 -30 c-7 -9 -27 -15
-49 -14 l-36 1 38 8 c20 4 40 10 44 13 13 13 15 7 3 -8z m-93 -11 c-3 -3 -12
-4 -19 -1 -8 3 -5 6 6 6 11 1 17 -2 13 -5z"/>
<path d="M4325 5610 c3 -5 8 -10 11 -10 2 0 4 5 4 10 0 6 -5 10 -11 10 -5 0
-7 -4 -4 -10z"/>
<path d="M4201 5594 c0 -11 3 -14 6 -6 3 7 2 16 -1 19 -3 4 -6 -2 -5 -13z"/>
<path d="M3700 5566 c0 -2 7 -7 16 -10 8 -3 12 -2 9 4 -6 10 -25 14 -25 6z"/>
<path d="M4255 5509 c-4 -6 -5 -13 -2 -16 7 -7 27 6 27 18 0 12 -17 12 -25 -2z"/>
<path d="M4636 5495 c4 -8 8 -15 10 -15 2 0 4 7 4 15 0 8 -4 15 -10 15 -5 0
-7 -7 -4 -15z"/>
<path d="M3576 5474 c-4 -10 -12 -14 -24 -9 -14 5 -15 4 -4 -7 10 -10 16 -8
34 10 12 12 17 22 11 22 -6 0 -14 -7 -17 -16z"/>
<path d="M4520 5490 c-8 -26 -7 -41 2 -32 6 6 8 16 5 24 -3 7 -6 11 -7 8z"/>
<path d="M4595 5480 c3 -5 11 -10 16 -10 6 0 7 5 4 10 -3 6 -11 10 -16 10 -6
0 -7 -4 -4 -10z"/>
<path d="M4255 5470 c-3 -5 -1 -10 4 -10 6 0 11 5 11 10 0 6 -2 10 -4 10 -3 0
-8 -4 -11 -10z"/>
<path d="M4245 5430 c-3 -5 -1 -10 4 -10 6 0 11 5 11 10 0 6 -2 10 -4 10 -3 0
-8 -4 -11 -10z"/>
<path d="M4340 5339 c0 -5 5 -7 10 -4 6 3 10 8 10 11 0 2 -4 4 -10 4 -5 0 -10
-5 -10 -11z"/>
<path d="M4210 5245 c-7 -8 -16 -13 -20 -10 -5 3 -11 2 -14 -3 -10 -17 24 -8
41 10 9 10 14 18 11 18 -3 0 -11 -7 -18 -15z"/>
<path d="M4137 5209 c7 -7 15 -10 18 -7 3 3 -2 9 -12 12 -14 6 -15 5 -6 -5z"/>
<path d="M4156 5173 c-6 -14 -5 -15 5 -6 7 7 10 15 7 18 -3 3 -9 -2 -12 -12z"/>
<path d="M4106 5128 c3 -4 9 -8 15 -8 5 0 9 4 9 8 0 5 -7 9 -15 9 -8 0 -12 -4
-9 -9z"/>
<path d="M4430 4984 c0 -22 -2 -24 -15 -14 -12 10 -16 9 -21 -5 -4 -10 -1 -21
7 -26 12 -7 11 -10 -3 -21 -12 -9 -15 -18 -9 -27 8 -12 12 -12 24 -2 13 10 15
9 10 -8 -4 -15 -1 -21 11 -21 10 0 16 8 16 21 0 18 2 20 16 8 13 -10 17 -10
25 2 13 20 11 26 -8 33 -15 6 -14 8 2 20 20 15 11 41 -11 32 -9 -3 -14 2 -14
14 0 11 -7 20 -15 20 -10 0 -15 -10 -15 -26z"/>
<path d="M738 4958 c-14 -47 -14 -165 0 -213 6 -20 16 -31 31 -33 18 -3 22 0
18 15 -3 10 -9 45 -12 78 l-6 60 27 -47 c15 -27 30 -48 33 -48 3 0 15 21 26
48 l19 47 8 -40 c4 -22 7 -59 7 -82 1 -42 1 -43 37 -43 l36 0 -4 148 -3 147
-42 3 c-42 3 -42 3 -71 -54 l-29 -58 -17 31 c-9 18 -16 43 -16 58 0 41 -28 30
-42 -17z"/>
<path d="M1095 4968 c-7 -18 -36 -85 -63 -148 -42 -99 -47 -116 -33 -122 36
-15 60 -8 76 22 15 30 18 31 73 28 51 -3 58 -6 70 -30 11 -24 19 -28 57 -28
l43 0 -61 143 c-34 78 -66 148 -70 155 -5 6 -24 12 -43 12 -30 0 -37 -5 -49
-32z m68 -100 c2 -13 8 -31 12 -40 6 -15 2 -18 -25 -18 -30 0 -32 2 -25 28 4
15 8 33 8 40 1 21 24 13 30 -10z"/>
<path d="M1382 4985 c-30 -13 -62 -59 -62 -89 0 -29 54 -75 110 -93 34 -11 55
-24 55 -33 0 -23 -51 -24 -93 -2 l-37 19 -22 -28 -23 -27 23 -14 c114 -74 261
-30 241 71 -9 41 -40 67 -106 86 -57 16 -74 37 -43 49 9 3 35 -1 58 -9 40 -14
43 -14 60 6 23 29 22 36 -12 53 -40 21 -112 26 -149 11z m8 -135 c0 -5 -2 -10
-4 -10 -3 0 -8 5 -11 10 -3 6 -1 10 4 10 6 0 11 -4 11 -10z"/>
<path d="M3169 4895 c-27 -58 -47 -110 -44 -115 3 -6 2 -10 -3 -10 -4 0 -16
-16 -25 -35 l-17 -35 43 1 c23 1 34 3 25 6 -21 5 -23 19 -5 26 7 3 5 6 -5 6
-10 1 -18 5 -18 9 0 4 19 7 43 6 23 -1 68 -2 99 -3 53 -1 58 -3 64 -26 5 -22
12 -25 50 -25 24 0 44 4 44 10 0 5 -15 44 -34 87 -34 77 -56 102 -56 66 0 -11
-3 -23 -7 -26 -10 -11 -13 -57 -2 -57 5 0 9 -5 9 -10 0 -7 -6 -7 -19 0 -11 5
-33 10 -50 10 -17 0 -31 5 -31 10 0 6 12 10 27 10 31 0 21 16 -14 22 -21 3
-21 4 -6 38 l15 35 16 -32 c18 -37 24 -40 42 -18 7 8 9 15 5 15 -5 0 0 8 9 19
16 17 16 21 -2 67 -19 47 -21 49 -61 52 l-42 3 -50 -106z m48 -111 c-3 -3 -12
-4 -19 -1 -8 3 -5 6 6 6 11 1 17 -2 13 -5z"/>
<path d="M3451 4886 l-1 -115 27 -4 28 -4 -28 -2 c-23 -1 -28 -5 -25 -23 5
-36 54 -37 70 -3 9 21 9 28 -1 34 -10 6 -9 10 4 15 32 12 51 6 68 -24 10 -16
24 -30 32 -30 9 0 12 -6 9 -15 -5 -13 8 -15 86 -15 l92 0 -6 38 c-6 32 -5 35
7 20 9 -11 18 -14 28 -7 8 5 36 9 62 9 44 0 49 -2 58 -30 10 -27 15 -30 51
-30 39 0 40 1 33 28 -3 15 -29 82 -57 150 l-50 122 -42 0 -42 0 -36 -82 c-21
-46 -48 -109 -62 -140 -14 -32 -29 -58 -33 -57 -17 1 -47 18 -35 18 11 1 9 9
-6 32 l-19 30 29 29 c38 39 38 88 0 131 -23 26 -38 33 -80 37 -29 2 -52 1 -52
-4 0 -5 18 -29 40 -53 22 -25 40 -47 40 -50 -1 -19 -20 -29 -60 -32 l-45 -4
-1 39 c0 29 -5 41 -20 47 -16 6 -15 8 8 8 15 1 30 -3 33 -9 3 -5 13 -10 21
-10 11 0 8 9 -12 35 -23 30 -32 35 -69 35 l-43 0 -1 -114z m463 -43 c7 -20 4
-23 -23 -23 -26 0 -29 3 -27 26 3 30 27 50 37 31 4 -7 10 -22 13 -34z"/>
<path d="M4086 4992 c-11 -10 -6 -78 6 -90 9 -9 9 -12 0 -12 -7 0 -12 -9 -12
-21 0 -11 4 -18 8 -15 5 3 3 -18 -5 -47 -7 -28 -13 -64 -13 -79 0 -23 4 -28
25 -28 27 0 45 25 45 64 0 23 4 26 33 26 42 0 75 24 93 66 21 50 18 91 -10
119 -22 21 -33 24 -95 24 -38 -1 -72 -3 -75 -7z m119 -96 c0 -24 -5 -31 -27
-37 -27 -7 -28 -6 -28 33 0 37 2 39 28 36 23 -2 27 -8 27 -32z"/>
<path d="M4300 4905 c0 -86 2 -95 19 -95 15 0 21 15 35 83 21 109 22 107 -19
107 l-35 0 0 -95z"/>
<path d="M1720 4836 l0 -156 40 0 c25 0 40 5 41 13 1 6 2 25 3 42 1 26 5 30
31 31 117 5 172 57 145 139 -18 53 -63 75 -170 82 l-90 6 0 -157z m169 59 c31
-29 -14 -73 -66 -63 -26 5 -32 74 -6 81 24 6 55 -2 72 -18z"/>
<path d="M2875 4957 c-57 -57 -41 -126 32 -143 59 -13 78 -21 78 -35 0 -20
-46 -23 -88 -6 -34 15 -35 14 -56 -14 -11 -15 -21 -30 -21 -33 0 -11 86 -36
126 -36 79 0 134 44 134 106 0 38 -33 69 -83 79 -57 12 -67 16 -67 31 0 17 61
20 90 4 15 -8 23 -5 40 17 31 39 9 56 -80 61 -69 4 -70 4 -105 -31z"/>
<path d="M2017 4833 c4 -91 10 -151 17 -156 6 -4 24 -6 40 -5 l30 3 0 80 c-1
44 -1 113 -2 153 l-2 72 -44 0 -44 0 5 -147z"/>
<path d="M2154 4828 l1 -153 42 -3 42 -3 3 83 3 83 70 -82 c65 -77 73 -83 108
-83 l37 0 0 155 0 155 -45 0 -44 0 -3 -77 -3 -77 -65 77 c-61 73 -66 77 -106
77 l-41 0 1 -152z"/>
<path d="M2607 4953 c-30 -58 -117 -261 -117 -272 0 -6 17 -10 41 -9 33 1 43
6 55 30 13 26 19 28 73 28 52 0 59 -2 69 -25 11 -23 16 -25 49 -19 21 4 40 8
42 10 2 1 -20 60 -49 131 -29 70 -55 134 -57 141 -3 7 -23 12 -49 12 -37 0
-45 -4 -57 -27z m66 -100 c2 -10 8 -26 12 -35 6 -15 2 -18 -24 -18 -17 0 -31
2 -31 4 0 1 5 17 11 35 12 35 24 40 32 14z"/>
<path d="M4287 4783 c-4 -3 -7 -21 -7 -40 0 -30 3 -33 29 -33 30 0 41 14 41
56 0 20 -5 24 -28 24 -16 0 -32 -3 -35 -7z"/>
<path d="M4343 4642 c-18 -2 -33 -7 -33 -11 0 -5 -9 -11 -21 -14 -18 -5 -19
-8 -8 -29 8 -13 16 -57 19 -98 5 -54 13 -85 29 -110 13 -19 21 -27 18 -18 -4
12 -2 15 9 11 7 -3 14 0 14 7 0 6 5 8 11 5 6 -4 10 -1 8 6 -3 28 1 40 13 33 8
-5 9 -2 5 10 -6 14 -3 17 9 12 14 -5 15 -4 4 9 -17 20 -5 32 15 15 13 -11 14
-10 9 4 -3 9 -12 16 -18 16 -8 0 -13 15 -14 34 -1 29 3 35 21 38 12 2 21 9 20
16 -2 6 4 12 13 12 8 0 12 -4 9 -10 -4 -6 1 -7 11 -3 15 5 15 7 0 15 -20 11
-20 22 0 42 14 15 10 16 -48 14 -35 -2 -78 -4 -95 -6z"/>
<path d="M3595 4631 c-29 -3 -45 -9 -38 -14 15 -9 93 2 93 14 0 5 -1 8 -2 7
-2 0 -25 -4 -53 -7z"/>
<path d="M3660 4620 c-68 -23 -91 -24 -116 -5 -28 22 -269 22 -260 0 3 -9 0
-15 -9 -15 -19 0 -28 17 -13 23 28 12 -353 6 -602 -9 -203 -11 -355 -13 -648
-8 l-383 7 41 -66 c26 -42 40 -74 38 -89 l-4 -23 -11 25 c-7 14 -14 36 -17 50
-3 14 -20 42 -38 62 l-33 36 -140 6 c-77 3 -232 7 -344 8 l-205 3 -31 -130
c-33 -135 -37 -177 -55 -585 -19 -439 30 -712 185 -1026 102 -207 149 -271
323 -444 86 -85 160 -154 164 -153 4 2 37 -20 73 -47 36 -28 70 -50 75 -50 5
0 21 -11 35 -24 l26 -24 99 48 c122 60 222 96 463 165 488 141 821 125 1177
-56 52 -26 105 -56 118 -66 l23 -19 -23 -49 c-16 -35 -22 -70 -23 -117 0 -61
3 -69 30 -98 81 -85 175 -104 276 -58 89 41 173 128 153 160 -4 6 -3 8 3 5 22
-14 93 149 77 175 -9 14 -24 9 -24 -9 0 -15 -2 -16 -10 -3 -13 21 -12 33 2 24
7 -5 9 -2 5 9 -4 12 -1 15 11 11 15 -5 15 -4 0 9 -23 18 -23 29 1 44 10 6 21
21 24 33 l6 22 -20 -21 c-25 -27 -35 -26 -63 4 -18 19 -25 22 -35 12 -10 -9
-11 -8 -6 5 4 11 0 20 -14 27 -23 13 -101 15 -101 3 0 -16 13 -22 25 -12 8 7
21 7 36 1 23 -9 22 -10 -8 -10 -18 -1 -33 -6 -33 -11 0 -6 -8 -5 -19 2 -11 7
-17 16 -15 20 3 4 1 8 -4 8 -5 0 -12 8 -16 18 -3 9 -9 23 -12 30 -3 6 -1 12 6
12 6 0 23 12 38 28 15 15 36 34 47 42 11 8 29 32 39 53 11 20 25 37 32 37 8 0
11 6 8 15 -4 8 -1 15 5 15 6 0 10 3 9 8 -5 14 27 72 39 72 7 0 12 3 12 8 -4
22 4 40 26 64 14 15 25 34 25 42 0 24 31 110 43 118 6 3 10 20 10 37 0 17 4
31 9 31 5 0 7 9 3 19 -3 11 -2 22 3 25 6 3 13 22 16 42 6 27 11 34 23 30 13
-5 14 -4 4 8 -9 11 -8 17 4 29 8 9 15 22 15 30 0 8 7 17 15 21 8 3 15 10 15
16 0 5 -7 10 -15 10 -18 0 -20 16 -2 23 10 4 10 6 0 6 -15 1 -18 31 -3 31 6 0
10 6 10 14 0 17 -27 29 -43 19 -7 -3 -3 3 7 15 14 16 22 19 32 11 17 -14 31
-5 33 23 2 36 7 61 15 81 13 28 -13 137 -33 138 -11 0 -12 2 -3 6 10 4 8 8 -5
18 -16 12 -12 13 27 8 l45 -6 -28 27 c-23 22 -25 26 -10 27 16 0 16 1 -2 9
-19 8 -19 9 3 9 13 1 20 5 17 11 -3 6 -2 10 3 10 5 0 12 9 15 20 3 11 1 18 -3
15 -4 -3 -6 4 -3 15 3 11 9 20 14 20 11 0 6 53 -5 62 -6 4 -18 2 -27 -3 -28
-14 -36 -11 -12 6 23 16 23 27 8 128 -7 48 -8 49 -41 45 -18 -2 -30 0 -28 4 3
4 12 8 20 8 8 0 17 7 20 15 4 8 12 15 20 15 8 0 14 5 14 11 0 6 -9 8 -22 3
-21 -6 -22 -5 -8 11 14 17 14 18 -10 5 -22 -12 -24 -11 -13 2 7 8 10 18 6 21
-3 4 1 15 9 24 26 31 31 43 14 37 -20 -8 -20 3 -2 22 11 11 12 21 4 47 -5 17
-14 57 -19 87 -7 44 -5 57 6 66 10 7 15 27 14 55 -1 65 -12 94 -34 94 -12 0
-21 8 -23 20 -8 40 -21 45 -123 45 -67 0 -99 -4 -99 -11 0 -8 -4 -8 -12 -1 -8
6 -68 10 -143 10 -99 0 -143 -4 -185 -18z m-330 -10 c0 -5 -5 -10 -11 -10 -5
0 -7 5 -4 10 3 6 8 10 11 10 2 0 4 -4 4 -10z m-1804 -52 c4 -6 3 -8 -4 -4 -6
3 -13 2 -17 -4 -4 -6 -11 -7 -18 -3 -9 6 -3 10 30 22 1 1 5 -4 9 -11z m2453 9
c-2 -2 -31 -28 -64 -58 -33 -30 -53 -43 -44 -29 15 23 94 90 106 90 4 0 4 -1
2 -3z m-2214 -127 c3 -5 1 -10 -4 -10 -6 0 -11 5 -11 10 0 6 2 10 4 10 3 0 8
-4 11 -10z m-230 -20 c3 -6 -1 -7 -9 -4 -18 7 -21 14 -7 14 6 0 13 -4 16 -10z
m1911 -20 c12 0 26 5 29 11 5 6 13 3 22 -10 8 -12 12 -25 8 -31 -7 -11 26 -30
54 -30 20 0 38 -17 28 -26 -7 -7 -137 56 -137 66 0 4 -12 10 -27 12 -16 3 -35
8 -43 11 -8 4 -22 2 -30 -3 -24 -16 44 -74 77 -65 16 4 22 2 18 -5 -8 -13 -29
-13 -76 1 -41 13 -52 37 -34 75 9 20 11 21 48 8 22 -8 50 -14 63 -14z m-1608
2 c6 -18 -15 -14 -22 4 -4 10 -1 14 6 12 6 -2 14 -10 16 -16z m387 -2 c3 -5 1
-10 -4 -10 -6 0 -11 5 -11 10 0 6 2 10 4 10 3 0 8 -4 11 -10z m1565 -74 c-1
-5 4 -13 12 -17 9 -6 5 -9 -14 -9 -21 0 -25 4 -21 20 5 20 26 25 23 6z m-305
-32 c14 -11 16 -18 8 -21 -7 -3 -13 -12 -13 -20 0 -13 -2 -13 -17 -2 -9 8 -24
13 -35 11 -11 -2 -18 3 -18 12 0 19 5 20 31 6 27 -15 45 -2 22 16 -10 7 -13
13 -8 13 6 0 19 -7 30 -15z m135 2 c0 -8 6 -17 13 -19 7 -3 5 -6 -6 -6 -9 -1
-26 -7 -37 -13 -17 -11 -22 -10 -30 2 -20 32 -10 42 48 49 6 0 12 -5 12 -13z
m-1860 0 c0 -2 -7 -6 -15 -10 -8 -3 -15 -1 -15 4 0 6 7 10 15 10 8 0 15 -2 15
-4z m-77 -96 c7 0 6 -4 -3 -10 -22 -14 -30 -12 -30 8 0 25 14 38 18 18 2 -9 9
-16 15 -16z m1800 -1 c3 -13 11 -17 21 -13 9 3 16 1 16 -5 0 -22 -29 -11 -50
19 -15 20 -17 28 -7 24 8 -3 17 -14 20 -25z m112 -88 c3 -6 -7 -27 -22 -46
-15 -19 -29 -31 -31 -26 -2 6 -12 7 -25 2 -12 -5 -229 -11 -482 -15 -253 -4
-534 -12 -625 -19 -91 -7 -320 -12 -508 -12 l-344 0 6 -225 c7 -291 7 -281 -6
-297 -22 -27 -121 3 -156 46 -7 9 -53 99 -102 200 -50 101 -92 182 -94 180 -2
-2 0 -33 5 -69 4 -36 11 -124 15 -196 l7 -131 -44 6 -44 6 -7 140 c-6 132 -34
399 -44 438 -4 14 1 17 31 17 54 0 97 -24 126 -72 15 -24 64 -118 110 -210
l84 -168 3 214 2 213 388 -5 c266 -3 437 -1 547 8 88 7 363 16 610 19 248 3
482 7 522 9 42 2 74 -1 78 -7z m629 -16 c-4 -9 0 -15 7 -16 8 0 -10 -9 -40
-20 -30 -10 -57 -17 -59 -14 -3 3 0 5 7 5 8 0 11 7 7 15 -5 13 23 28 56 30 3
0 10 3 14 8 11 11 14 8 8 -8z m-94 -29 c0 -2 -7 -7 -16 -10 -8 -3 -12 -2 -9 4
6 10 25 14 25 6z m-116 -91 c-21 -19 -43 -34 -49 -34 -5 0 -2 6 7 13 10 7 16
16 13 19 -3 4 -2 5 1 3 3 -2 14 4 25 15 10 10 24 19 31 19 6 0 -6 -16 -28 -35z
m75 21 c-2 -2 -15 -9 -29 -15 -24 -11 -24 -11 -6 3 16 13 49 24 35 12z m-179
-27 c0 -6 9 -8 23 -4 21 6 21 6 3 -9 -11 -9 -21 -23 -22 -32 -4 -25 -9 -27
-90 -32 -84 -5 -90 -11 -79 -68 l6 -37 73 6 73 7 6 -37 c4 -20 4 -39 1 -42 -3
-4 -36 -8 -72 -11 -52 -4 -68 -9 -70 -22 -2 -11 5 -18 20 -20 28 -4 40 -48 13
-48 -12 0 -15 6 -10 20 5 14 2 20 -9 20 -9 0 -16 -6 -16 -14 0 -47 85 -62 129
-23 16 13 20 15 11 4 -12 -17 -11 -18 13 -12 21 6 27 4 27 -9 0 -19 46 -23 52
-4 2 6 17 12 32 13 34 1 53 -27 31 -45 -11 -9 -15 -9 -15 -1 0 6 -6 11 -14 11
-8 0 -17 8 -19 18 -4 14 -5 13 -6 -4 0 -11 5 -26 12 -34 6 -8 3 -7 -9 3 -29
24 -64 22 -64 -3 0 -25 -52 -40 -140 -40 -131 0 -147 27 -156 262 -5 137 -4
169 7 173 16 6 165 22 222 24 20 0 37 -4 37 -10z m-1169 -25 c5 -3 9 -22 9
-42 l0 -38 -68 4 c-56 3 -71 1 -92 -16 -23 -19 -24 -25 -24 -125 1 -83 4 -111
18 -132 18 -27 20 -27 98 -23 l80 5 -6 -35 c-3 -20 -10 -40 -16 -46 -6 -6 -48
-11 -98 -11 -165 1 -207 48 -207 235 0 152 33 208 135 230 44 9 153 6 171 -6z
m857 -7 c2 -10 1 -29 -2 -43 -6 -23 -9 -24 -101 -24 l-95 0 0 -50 0 -50 90 0
90 0 0 -40 0 -40 -82 -1 c-46 -1 -86 -1 -90 0 -5 0 -8 -44 -8 -99 l0 -100 -30
0 c-37 0 -85 23 -94 45 -3 9 -6 106 -6 216 l0 198 123 4 c194 5 201 4 205 -16z
m-510 -4 c23 -44 83 -218 110 -320 l31 -113 -69 0 -68 0 -7 40 -7 40 -78 0
-79 0 -8 -42 -9 -43 -52 -3 c-45 -3 -52 -1 -52 15 0 39 69 293 100 366 l32 77
74 0 c60 0 75 -3 82 -17z m-1110 -60 l3 -43 -104 0 c-57 0 -106 -2 -108 -4 -2
-3 -3 -25 -1 -50 l4 -46 89 0 89 0 0 -39 0 -38 -52 -7 c-29 -3 -70 -6 -90 -6
-36 0 -38 -1 -38 -33 0 -63 57 -84 168 -64 l42 7 0 -35 c0 -49 -25 -60 -140
-60 -81 0 -100 3 -131 22 -56 35 -62 57 -67 260 l-4 182 48 3 c27 2 103 1 169
-2 l120 -5 3 -42z m356 51 c11 -4 16 -19 16 -44 l0 -37 -72 4 c-94 6 -131 -7
-126 -44 3 -25 10 -29 88 -51 105 -29 131 -51 138 -120 6 -69 -17 -116 -69
-136 -53 -21 -135 -30 -203 -22 l-56 7 0 43 0 43 65 -9 c71 -10 123 -1 138 24
18 27 0 47 -60 63 -111 31 -127 39 -146 75 -39 75 1 177 78 199 35 11 186 14
209 5z m-719 -154 c-3 -5 -12 -10 -18 -10 -7 0 -6 4 3 10 19 12 23 12 15 0z
m2510 -60 c-10 -11 -20 -18 -22 -16 -6 5 30 44 36 39 2 -1 -4 -12 -14 -23z
m100 -38 c-7 -8 -35 7 -35 18 0 6 7 6 20 -2 10 -7 17 -14 15 -16z m-105 -17
c-14 -8 -29 -14 -35 -14 -5 0 1 6 15 14 14 8 30 14 35 14 6 0 -1 -6 -15 -14z
m-266 -21 c5 -13 4 -14 -7 -6 -8 7 -18 8 -22 4 -5 -4 -5 -1 -1 6 10 17 23 15
30 -4z m213 10 c-3 -3 -12 -4 -19 -1 -8 3 -5 6 6 6 11 1 17 -2 13 -5z m163
-19 c0 -2 -17 -16 -37 -30 -38 -25 -77 -33 -87 -16 -3 4 5 6 18 4 14 -3 39 5
62 20 43 29 44 29 44 22z m-2636 -51 c3 -8 2 -12 -4 -9 -6 3 -10 10 -10 16 0
14 7 11 14 -7z m2510 -61 c-10 -15 -17 -32 -16 -37 2 -4 -3 -14 -9 -22 -12
-14 -7 -18 24 -15 21 3 22 -6 2 -25 -8 -9 -15 -24 -15 -35 0 -14 -9 -21 -30
-25 -32 -7 -36 -14 -19 -31 8 -8 2 -15 -22 -27 -35 -18 -54 -15 -20 4 12 6 21
20 21 30 0 12 13 28 33 40 17 11 26 20 18 20 -7 0 -11 6 -8 14 3 7 0 19 -6 26
-9 10 -9 14 1 17 6 3 12 15 12 28 0 12 7 28 16 36 9 8 14 22 11 37 -4 21 -3
22 11 9 14 -14 13 -19 -4 -44z m-2495 -37 c-3 -3 -11 5 -18 17 -13 21 -12 21
5 5 10 -10 16 -20 13 -22z m2585 -71 c-4 -8 -13 -15 -21 -15 -8 0 -22 -7 -31
-16 -15 -15 -14 -18 3 -30 18 -14 18 -14 -3 -14 -11 0 -25 8 -31 17 -8 14 -2
23 32 45 48 32 59 34 51 13z m-636 -367 c-29 -18 -48 -4 -119 87 l-74 96 -3
-96 c-2 -66 -6 -95 -15 -96 -7 0 -22 -2 -34 -5 l-23 -4 0 160 0 160 33 0 c29
-1 40 -11 107 -97 l75 -95 3 95 3 96 27 3 27 3 3 -149 c2 -113 -1 -151 -10
-158z m-550 250 c11 -29 27 -77 36 -105 10 -29 19 -53 21 -53 3 0 31 87 61
193 4 12 16 17 40 17 19 0 34 -3 34 -7 0 -5 -23 -77 -51 -160 l-51 -153 -33 0
c-33 0 -33 1 -66 95 -18 52 -35 95 -39 95 -3 0 -21 -45 -39 -101 l-33 -100
-31 3 c-31 3 -32 5 -88 161 l-56 157 38 0 38 0 32 -100 c19 -55 36 -100 39
-100 3 0 18 43 34 96 29 94 42 111 83 113 6 1 20 -23 31 -51z m-445 28 c103
-43 128 -177 48 -257 -88 -88 -230 -70 -282 37 -26 54 -22 105 12 160 39 64
145 93 222 60z m-401 -7 c44 -12 68 -49 68 -104 0 -29 -7 -44 -31 -66 l-32
-30 30 -42 c48 -69 48 -67 5 -67 -37 0 -43 4 -76 50 -29 41 -41 50 -66 50 -29
0 -30 -1 -30 -50 l0 -50 -35 0 -35 0 0 154 0 155 53 4 c28 2 66 4 82 5 17 1
47 -3 67 -9z m-348 -38 c30 -28 33 -66 10 -99 -15 -22 -14 -24 10 -43 38 -30
36 -79 -4 -113 -35 -29 -87 -39 -180 -34 l-65 3 -3 159 -3 158 105 -4 c94 -3
108 -6 130 -27z m2336 -22 c0 -5 -8 -9 -19 -9 -10 0 -24 -7 -31 -15 -15 -18
-36 -19 -46 -3 -4 6 -3 8 4 4 6 -3 25 2 42 13 27 16 29 19 13 25 -11 4 -22 1
-29 -8 -6 -9 -15 -16 -19 -16 -5 0 2 11 14 24 22 23 25 24 47 9 13 -8 24 -19
24 -24z m-180 11 c0 -5 -5 -10 -11 -10 -5 0 -7 5 -4 10 3 6 8 10 11 10 2 0 4
-4 4 -10z m84 -125 c-4 -8 -10 -15 -14 -15 -4 0 -10 7 -14 15 -4 10 1 15 14
15 13 0 18 -5 14 -15z m101 -55 c0 -22 -29 -18 -33 3 -3 14 1 18 15 15 10 -2
18 -10 18 -18z m-25 -66 c0 -9 -5 -14 -12 -12 -18 6 -21 28 -4 28 9 0 16 -7
16 -16z m-325 -615 c-4 -6 -13 -8 -20 -5 -7 2 -16 -2 -19 -10 -3 -8 -10 -14
-16 -14 -5 0 -2 9 7 20 18 21 60 29 48 9z m-4 -34 c-18 -8 -36 -15 -40 -15
-13 1 45 29 59 29 8 0 0 -6 -19 -14z m-31 -35 c0 -5 -7 -7 -15 -4 -8 4 -15 8
-15 10 0 2 7 4 15 4 8 0 15 -4 15 -10z m-10 -32 c0 -5 5 -6 10 -3 6 3 10 1 10
-5 0 -7 -7 -9 -16 -6 -9 3 -27 6 -40 6 -13 0 -24 5 -24 11 0 5 4 8 9 4 5 -3
12 -1 16 4 7 12 35 3 35 -11z m35 -108 c3 -5 2 -10 -4 -10 -5 0 -13 5 -16 10
-3 6 -2 10 4 10 5 0 13 -4 16 -10z"/>
<path d="M3475 4380 c3 -5 8 -10 11 -10 2 0 4 5 4 10 0 6 -5 10 -11 10 -5 0
-7 -4 -4 -10z"/>
<path d="M4035 3600 c-3 -5 -1 -10 4 -10 6 0 11 5 11 10 0 6 -2 10 -4 10 -3 0
-8 -4 -11 -10z"/>
<path d="M2990 3830 c0 -3 -11 -38 -25 -78 -14 -41 -25 -78 -25 -83 0 -5 27
-9 59 -9 l60 0 -24 70 c-21 62 -44 113 -45 100z"/>
<path d="M2438 3255 c-34 -19 -48 -44 -48 -84 0 -73 56 -119 122 -100 98 27
89 181 -12 194 -21 3 -46 -1 -62 -10z"/>
<path d="M2068 3253 c-38 -4 -38 -5 -38 -49 l0 -44 43 0 c75 0 114 50 65 84
-12 9 -25 15 -28 14 -3 -1 -22 -3 -42 -5z"/>
<path d="M1663 3233 c-7 -3 -13 -18 -13 -34 0 -30 0 -30 51 -27 86 5 96 58 12
63 -21 1 -44 0 -50 -2z"/>
<path d="M1650 3075 l0 -35 53 0 c60 0 91 17 85 46 -3 16 -13 19 -71 22 l-67
3 0 -36z"/>
<path d="M4473 4538 c1 -15 6 -23 11 -18 4 4 4 16 -2 26 -9 16 -10 14 -9 -8z"/>
<path d="M4430 4516 c0 -3 11 -16 24 -31 22 -24 24 -24 37 -8 13 17 13 17 -5
3 -18 -14 -19 -13 -13 3 4 11 3 16 -3 12 -6 -3 -10 1 -10 9 0 9 -7 16 -15 16
-8 0 -15 -2 -15 -4z"/>
<path d="M4619 4513 c0 -5 -2 -23 -3 -41 -2 -18 0 -35 5 -38 5 -3 9 15 9 40 0
25 -2 46 -5 46 -3 0 -5 -3 -6 -7z"/>
<path d="M4542 4414 c10 -10 20 -16 22 -13 3 3 -5 11 -17 18 -21 13 -21 12 -5
-5z"/>
<path d="M4515 4321 c6 -5 24 -13 40 -17 39 -9 30 0 -15 15 -19 6 -30 7 -25 2z"/>
<path d="M4375 4310 c-3 -6 1 -7 9 -4 18 7 21 14 7 14 -6 0 -13 -4 -16 -10z"/>
<path d="M4507 4289 c7 -7 15 -10 18 -7 3 3 -2 9 -12 12 -14 6 -15 5 -6 -5z"/>
<path d="M4498 4253 c6 -2 18 -2 25 0 6 3 1 5 -13 5 -14 0 -19 -2 -12 -5z"/>
<path d="M4590 4085 c0 -8 2 -15 4 -15 2 0 6 7 10 15 3 8 1 15 -4 15 -6 0 -10
-7 -10 -15z"/>
<path d="M4720 4085 c0 -8 2 -15 4 -15 2 0 6 7 10 15 3 8 1 15 -4 15 -6 0 -10
-7 -10 -15z"/>
<path d="M4543 4035 c0 -8 4 -12 9 -9 5 3 6 10 3 15 -9 13 -12 11 -12 -6z"/>
<path d="M4564 4009 c-11 -12 -20 -37 -20 -59 -1 -21 -4 -42 -7 -47 -3 -5 3
-17 13 -26 18 -15 20 -15 24 16 7 42 15 137 12 137 -2 0 -11 -9 -22 -21z"/>
<path d="M4440 3816 c0 -10 -7 -24 -17 -31 -9 -7 -13 -17 -9 -24 6 -9 11 -9
24 1 12 10 12 7 -2 -14 -16 -25 -17 -28 -2 -34 9 -3 16 -12 16 -20 0 -17 37
-37 56 -30 8 3 14 2 14 -3 0 -17 -43 -20 -66 -4 -15 9 -24 11 -24 4 0 -6 7
-11 15 -11 8 0 15 -4 15 -10 0 -5 -8 -10 -17 -10 -11 0 -14 -3 -8 -8 6 -4 19
-20 28 -35 10 -16 24 -26 31 -24 14 6 9 -60 -5 -69 -15 -9 -10 -52 8 -58 26
-10 32 9 48 149 1 6 4 19 7 30 4 11 9 37 13 57 5 31 3 37 -9 32 -9 -3 -17 3
-21 17 -5 15 -9 18 -15 9 -9 -15 -15 -5 -25 38 -3 17 -11 32 -17 32 -6 0 -17
8 -24 18 -13 16 -13 16 -14 -2z"/>
<path d="M4400 3396 c-15 -15 -12 -34 7 -38 13 -2 9 -9 -18 -24 -43 -26 -54
-63 -43 -155 5 -43 12 -64 27 -74 27 -19 58 -3 54 28 -1 14 3 21 11 19 8 -1
12 3 9 10 -2 7 2 33 9 58 17 54 17 63 4 55 -6 -4 -10 11 -10 39 0 25 -4 47 -9
50 -5 3 -7 14 -4 24 5 21 -19 26 -37 8z m-10 -90 c0 -3 -4 -8 -10 -11 -5 -3
-10 -1 -10 4 0 6 5 11 10 11 6 0 10 -2 10 -4z"/>
<path d="M4494 3065 c0 -55 1 -76 3 -47 2 29 2 74 0 100 -2 26 -3 2 -3 -53z"/>
<path d="M720 2955 c0 -8 4 -15 10 -15 5 0 7 7 4 15 -4 8 -8 15 -10 15 -2 0
-4 -7 -4 -15z"/>
<path d="M4387 2911 c-19 -53 -23 -101 -8 -85 12 11 41 134 32 134 -3 0 -14
-22 -24 -49z"/>
<path d="M730 2920 c0 -5 5 -10 11 -10 5 0 7 5 4 10 -3 6 -8 10 -11 10 -2 0
-4 -4 -4 -10z"/>
<path d="M4667 2837 c-11 -29 -9 -43 4 -30 6 6 9 19 7 29 -3 18 -4 18 -11 1z"/>
<path d="M836 2815 c9 -14 20 -22 26 -19 5 3 2 14 -8 25 -25 27 -37 23 -18 -6z"/>
<path d="M4317 2808 c-29 -33 -23 -50 14 -41 14 4 19 14 19 39 0 19 -1 34 -2
34 -2 -1 -16 -15 -31 -32z"/>
<path d="M4665 2759 c-27 -13 -49 -60 -33 -70 7 -4 19 -4 29 1 9 5 18 7 21 5
2 -2 4 14 5 35 1 22 1 40 0 39 -1 0 -11 -5 -22 -10z"/>
<path d="M4290 2742 c0 -12 -4 -24 -10 -27 -5 -3 -10 -17 -10 -29 0 -15 -7
-26 -19 -29 -20 -5 -22 -21 -7 -45 5 -9 1 -15 -13 -19 -11 -3 -18 -9 -15 -14
3 -5 0 -9 -5 -9 -6 0 -11 -8 -11 -17 0 -10 -5 -25 -10 -33 -8 -12 -12 -13 -19
-2 -18 29 -37 -138 -19 -172 17 -34 60 -76 78 -76 29 0 69 55 95 130 14 41 24
85 22 98 -2 12 -1 22 4 22 8 0 3 150 -6 159 -4 3 -10 -1 -15 -9 -13 -21 -12
-3 1 21 17 33 19 59 4 59 -7 0 -20 3 -29 6 -11 4 -16 0 -16 -14z m37 -18 c-3
-3 -12 -4 -19 -1 -8 3 -5 6 6 6 11 1 17 -2 13 -5z m-13 -130 c3 -8 2 -12 -4
-9 -6 3 -10 10 -10 16 0 14 7 11 14 -7z m-84 -164 c0 -16 -2 -30 -4 -30 -2 0
-6 14 -8 30 -3 17 -1 30 4 30 4 0 8 -13 8 -30z"/>
<path d="M4185 2644 c-18 -44 -18 -44 -2 -44 6 0 13 12 14 26 0 15 6 30 13 34
8 5 9 10 1 14 -6 4 -17 -9 -26 -30z"/>
<path d="M4653 2654 c18 -21 23 -44 9 -44 -4 0 -13 9 -20 20 -18 30 -34 25
-22 -6 9 -23 6 -31 -25 -61 -19 -19 -35 -30 -35 -26 -1 16 -29 -42 -31 -62 -1
-17 -2 -16 -9 5 -4 14 -8 19 -9 11 -1 -8 -17 -38 -37 -67 -19 -30 -40 -67 -45
-84 -19 -54 -30 -33 -24 44 5 50 3 81 -5 96 -10 18 -14 20 -21 9 -5 -8 -9 -26
-9 -40 0 -14 -6 -39 -14 -55 -8 -16 -24 -50 -35 -76 -20 -45 -41 -69 -27 -31
4 10 3 14 -1 9 -4 -4 -9 -20 -9 -34 -1 -15 -9 -63 -18 -107 -9 -44 -18 -96
-21 -115 -5 -35 -5 -35 7 -7 14 31 28 36 28 8 0 -38 -39 -248 -64 -348 -28
-108 -32 -170 -17 -249 12 -62 32 -113 38 -96 6 16 18 15 37 -4 30 -29 20 -61
-30 -94 -47 -33 -64 -61 -64 -108 0 -15 -7 -35 -15 -46 -13 -18 -14 -17 -21 8
-5 22 -11 26 -38 25 -30 -2 -30 -2 -3 -6 15 -2 27 -8 27 -12 0 -15 -38 -42
-86 -61 -27 -11 -43 -19 -36 -20 6 0 12 -7 12 -15 0 -8 5 -15 10 -15 6 0 10 5
10 10 0 6 5 10 11 10 5 0 7 -4 4 -10 -3 -5 1 -10 9 -10 9 0 16 7 16 15 0 9 -9
15 -22 15 -18 0 -14 6 21 25 24 14 46 23 48 21 3 -2 9 -57 15 -122 l11 -118
-26 -22 c-24 -20 -102 -44 -146 -44 -11 0 -28 8 -40 18 -19 15 -23 31 -28 120
-6 96 -5 102 13 103 11 0 14 3 6 6 -25 10 -42 -18 -41 -71 1 -87 15 -158 33
-171 13 -10 14 -14 4 -18 -7 -2 10 -2 38 1 l52 4 12 -38 c17 -50 58 -132 71
-140 15 -9 59 5 59 19 0 6 -14 48 -32 91 -31 77 -31 80 -12 90 29 16 96 89
190 206 70 86 91 106 117 110 30 5 32 8 33 48 3 62 53 150 54 95 1 -10 7 0 15
21 8 22 11 44 8 49 -3 5 0 20 7 33 l13 23 23 -22 c24 -23 31 -47 14 -47 -5 0
-10 -15 -10 -33 0 -18 -7 -42 -15 -54 -18 -26 -11 -67 16 -94 21 -21 25 -49 8
-49 -5 0 -7 -4 -4 -10 3 -5 13 -10 21 -10 10 0 13 7 8 24 -4 18 -1 27 15 36
16 8 21 8 22 -2 0 -7 5 2 10 20 10 35 -6 92 -26 92 -13 1 -49 50 -41 57 7 7
69 -45 77 -66 4 -9 9 6 13 36 4 29 4 57 0 64 -4 8 -3 9 4 5 8 -5 12 2 12 21 0
15 2 146 4 291 4 190 2 268 -6 282 -9 14 -9 22 3 36 13 16 12 16 -8 3 -20 -12
-24 -11 -36 5 -13 18 -10 23 24 57 l39 38 0 88 c0 48 -4 83 -8 78 -4 -6 -24
-21 -44 -35 -21 -14 -38 -28 -38 -32 0 -5 -6 -8 -14 -8 -8 0 -16 -6 -19 -12
-3 -9 -12 -6 -28 9 -12 12 -21 24 -18 26 2 1 41 34 87 72 56 47 82 75 82 90 0
17 -6 21 -30 21 -23 0 -27 -2 -18 -13 8 -10 7 -13 -6 -13 -18 0 -52 47 -42 58
4 3 11 0 16 -8 8 -12 10 -12 10 3 0 10 14 32 30 49 30 30 41 64 18 55 -7 -2
-12 -8 -11 -13 1 -5 -10 -15 -23 -21 -21 -10 -28 -9 -45 8 -20 20 -26 49 -9
49 11 0 16 3 63 45 38 33 36 73 -6 105 -25 18 -28 19 -14 4z m-63 -190 c0 -4
7 -16 16 -26 14 -14 14 -20 4 -33 -7 -8 -18 -15 -24 -15 -6 0 -26 -16 -44 -36
-18 -20 -34 -34 -35 -33 -1 2 -8 14 -14 26 -14 25 -2 73 18 73 7 0 17 8 24 17
12 16 15 16 34 -7 l20 -25 -11 38 c-6 20 -15 37 -20 37 -5 0 -6 5 -3 10 6 10
35 -11 35 -26z m-120 -274 c0 -9 16 -42 36 -73 27 -43 43 -59 65 -64 36 -7 38
-23 4 -23 -33 0 -70 39 -101 105 -24 50 -35 117 -14 85 5 -8 10 -22 10 -30z
m-200 -624 c0 -3 -4 -8 -10 -11 -5 -3 -10 -1 -10 4 0 6 5 11 10 11 6 0 10 -2
10 -4z m99 -98 c-12 -23 -20 -24 -12 -1 5 13 2 15 -11 10 -9 -4 -15 -3 -11 2
3 6 14 9 24 8 16 -1 17 -5 10 -19z m24 -25 c-5 -13 -3 -15 13 -9 15 6 16 5 7
-5 -10 -10 -15 -9 -27 1 -16 12 -13 30 4 30 5 0 6 -8 3 -17z m57 -31 c0 -5 -7
-9 -15 -9 -8 0 -15 4 -15 9 0 4 7 8 15 8 8 0 15 -4 15 -8z m194 -38 c3 -8 2
-12 -4 -9 -6 3 -10 10 -10 16 0 14 7 11 14 -7z m36 -34 c0 -5 -5 -10 -11 -10
-5 0 -7 5 -4 10 3 6 8 10 11 10 2 0 4 -4 4 -10z m-275 -120 c3 -5 1 -10 -4
-10 -6 0 -11 5 -11 10 0 6 2 10 4 10 3 0 8 -4 11 -10z m15 -24 c0 -2 -7 -7
-16 -10 -8 -3 -12 -2 -9 4 6 10 25 14 25 6z m-3 -68 c-3 -8 -6 -5 -6 6 -1 11
2 17 5 13 3 -3 4 -12 1 -19z m-199 -151 c-34 -41 -54 -58 -57 -48 -3 13 88
111 104 111 3 0 -18 -28 -47 -63z m-28 -81 c0 -3 -4 -8 -10 -11 -5 -3 -10 -1
-10 4 0 6 5 11 10 11 6 0 10 -2 10 -4z"/>
<path d="M4211 2624 c0 -11 3 -14 6 -6 3 7 2 16 -1 19 -3 4 -6 -2 -5 -13z"/>
<path d="M4362 2610 c0 -14 2 -19 5 -12 2 6 2 18 0 25 -3 6 -5 1 -5 -13z"/>
<path d="M4170 2560 c0 -11 4 -20 9 -20 5 0 7 9 4 20 -3 11 -7 20 -9 20 -2 0
-4 -9 -4 -20z"/>
<path d="M4625 2470 c3 -5 8 -10 11 -10 2 0 4 5 4 10 0 6 -5 10 -11 10 -5 0
-7 -4 -4 -10z"/>
<path d="M3163 2234 c-7 -20 10 -50 27 -46 7 1 18 -2 25 -8 20 -16 125 -26
125 -11 0 6 -4 11 -10 11 -5 0 -7 7 -4 15 5 12 -2 15 -30 15 -20 0 -36 5 -36
10 0 6 -5 10 -11 10 -6 0 -9 -7 -5 -15 3 -9 0 -15 -9 -15 -9 0 -12 6 -9 15 4
10 -3 18 -21 25 -34 13 -35 13 -42 -6z"/>
<path d="M1250 2203 c0 -6 8 -17 18 -24 16 -13 16 -13 2 6 -8 11 -16 22 -17
24 -2 2 -3 0 -3 -6z"/>
<path d="M840 2191 c0 -6 5 -13 10 -16 6 -3 10 1 10 9 0 9 -4 16 -10 16 -5 0
-10 -4 -10 -9z"/>
<path d="M2915 2170 c44 -11 109 -22 145 -25 l65 -5 -60 21 c-35 12 -95 22
-145 25 l-85 4 80 -20z"/>
<path d="M2479 2177 c-2 -3 -51 -7 -109 -10 -58 -3 -106 -6 -108 -6 -2 -1 -1
-5 2 -9 2 -4 -11 -12 -30 -18 -29 -9 -34 -9 -30 2 6 15 6 15 -84 -7 -25 -6
-54 -10 -65 -10 -20 1 -166 -48 -175 -58 -7 -8 -41 -29 -65 -40 -11 -5 -30
-17 -43 -27 -12 -11 -40 -32 -62 -49 -21 -16 -44 -43 -49 -59 -11 -29 -11 -29
24 -23 19 3 41 12 49 19 49 48 94 78 117 78 9 0 9 -3 0 -14 -9 -11 -7 -15 10
-19 11 -3 18 -10 15 -16 -4 -5 -2 -12 4 -16 6 -4 8 -10 5 -14 -2 -5 7 -6 20
-3 14 2 25 10 25 16 0 7 15 17 34 23 27 8 41 8 63 -4 23 -12 29 -12 38 0 5 7
15 12 20 10 6 -2 21 10 33 27 23 30 20 34 -19 31 -23 -2 -33 28 -12 36 15 6
14 7 -3 14 -18 7 -18 7 0 15 11 4 27 2 37 -4 23 -14 29 -15 29 -3 0 5 -14 12
-30 16 -38 8 -28 27 11 23 17 -2 33 3 38 10 5 8 12 13 17 13 17 -1 44 10 44
19 0 5 14 7 30 4 20 -5 30 -3 30 6 0 7 7 10 15 6 8 -3 15 -2 15 2 0 4 46 6
103 4 84 -3 106 0 117 12 11 14 9 16 -8 16 -11 0 -27 2 -34 5 -8 3 -16 4 -19
2z m-539 -181 c0 -2 -7 -6 -15 -10 -8 -3 -15 -1 -15 4 0 6 7 10 15 10 8 0 15
-2 15 -4z m-5 -36 c3 -5 1 -10 -4 -10 -6 0 -11 5 -11 10 0 6 2 10 4 10 3 0 8
-4 11 -10z"/>
<path d="M950 2123 c0 -10 5 -25 10 -33 7 -12 12 -12 22 -2 9 9 10 17 2 29
-15 24 -34 28 -34 6z"/>
<path d="M1012 2110 c14 -22 24 -19 15 5 -4 8 -11 15 -17 15 -6 0 -6 -7 2 -20z"/>
<path d="M1260 2114 c0 -8 4 -23 9 -32 5 -10 12 -46 15 -80 7 -85 14 -96 46
-72 18 14 21 21 13 32 -6 7 -13 41 -16 76 -3 34 -11 69 -17 77 -16 20 -50 19
-50 -1z"/>
<path d="M4178 2078 c-2 -13 -1 -36 2 -53 l7 -30 7 38 c5 20 12 40 17 43 16 9
10 24 -10 24 -12 0 -20 -9 -23 -22z"/>
<path d="M920 2052 c0 -12 11 -24 30 -32 17 -7 37 -22 45 -34 16 -23 20 -40 6
-32 -4 3 -16 -1 -27 -8 -16 -12 -21 -11 -35 5 -14 16 -18 17 -28 5 -10 -11 -6
-19 16 -40 15 -14 31 -26 34 -26 4 0 9 -14 11 -31 3 -22 0 -33 -13 -40 -36
-19 -57 -11 -68 29 l-10 37 5 -40 c4 -22 8 -78 10 -125 2 -70 6 -87 21 -95 54
-30 99 -60 110 -73 10 -12 13 -10 18 14 13 58 38 115 71 165 l35 50 -60 62
c-33 34 -58 63 -55 66 2 2 13 -4 24 -14 23 -21 49 -37 99 -60 30 -13 37 -14
49 -2 12 13 11 19 -3 48 -10 19 -26 42 -36 52 -11 10 -19 22 -19 27 0 15 26
12 40 -5 16 -19 30 -19 30 -1 0 15 -45 56 -61 56 -5 0 -8 -6 -6 -12 1 -9 -12
-13 -43 -13 -39 0 -45 3 -48 23 -2 14 -8 20 -15 15 -23 -14 -37 -11 -59 15
-29 34 -68 42 -68 14z"/>
<path d="M1080 2050 c0 -5 5 -10 11 -10 5 0 7 5 4 10 -3 6 -8 10 -11 10 -2 0
-4 -4 -4 -10z"/>
<path d="M4146 2051 c-4 -7 -5 -15 -2 -18 9 -9 19 4 14 18 -4 11 -6 11 -12 0z"/>
<path d="M2523 1988 c2 -7 10 -12 16 -10 6 1 11 -3 11 -10 0 -9 3 -9 12 0 10
10 10 15 -2 22 -21 14 -42 12 -37 -2z"/>
<path d="M4207 1966 c-119 -132 -177 -190 -219 -217 -31 -20 -50 -40 -54 -58
-38 -172 -117 -281 -286 -394 -96 -63 -290 -165 -363 -190 -72 -24 -215 -57
-250 -57 -29 0 -186 -61 -315 -122 -174 -82 -473 -151 -590 -135 l-40 5 6 -39
c4 -26 3 -39 -5 -39 -6 0 -11 17 -11 40 0 43 3 41 -115 58 -47 7 -50 9 -55 42
-4 20 -10 41 -14 48 -9 14 -36 16 -36 2 0 -13 -46 -13 -71 0 -25 14 -55 -10
-36 -29 9 -9 6 -13 -13 -18 -21 -6 -22 -7 -5 -13 11 -4 14 -9 8 -13 -5 -3 -19
0 -29 8 -16 12 -17 17 -6 34 11 18 10 21 -7 21 -11 0 -26 7 -35 15 -8 8 -24
15 -35 15 -11 0 -23 5 -26 10 -4 6 9 9 36 6 22 -2 45 -9 49 -16 4 -6 20 -10
36 -8 26 3 29 7 32 46 3 38 1 43 -25 52 -15 6 -37 15 -48 20 -11 6 -56 11 -99
13 -78 2 -80 1 -86 -23 -4 -16 -9 -20 -13 -13 -4 6 -33 26 -64 44 -63 36 -191
144 -265 223 -48 52 -108 151 -108 179 0 9 -5 19 -11 23 -13 8 -31 -16 -24
-33 2 -7 0 -13 -5 -13 -5 0 -7 -7 -4 -15 4 -9 13 -13 24 -10 19 6 47 -20 32
-29 -26 -16 -120 70 -110 101 3 10 -7 23 -84 106 -31 34 -67 76 -80 92 -12 17
-33 41 -45 55 -13 14 -23 28 -23 32 0 5 -4 8 -10 8 -15 0 -12 -61 4 -90 7 -14
37 -70 66 -125 29 -55 70 -129 91 -165 35 -60 46 -88 80 -210 11 -40 13 -42
19 -20 8 34 21 11 24 -45 3 -49 -5 -56 -31 -26 -9 11 -23 17 -32 14 -9 -2 -5
3 9 11 21 13 22 15 5 13 -11 -2 -29 -8 -41 -14 -16 -10 -21 -9 -21 2 0 7 6 11
14 8 7 -3 13 0 13 7 0 8 -12 10 -39 5 -34 -6 -41 -3 -59 20 -19 23 -21 24 -30
8 -8 -14 -13 -15 -26 -4 -8 7 -24 10 -35 6 -13 -4 -21 0 -25 12 -2 10 -4 -13
-3 -52 l2 -70 -33 3 c-21 1 -31 -2 -27 -8 3 -5 2 -10 -4 -10 -5 0 -18 -14 -28
-30 -16 -27 -47 -47 -65 -42 -11 3 -10 -16 1 -22 5 -4 12 0 14 6 4 10 8 9 16
-2 5 -8 13 -11 18 -7 4 5 1 13 -7 18 -13 9 -13 10 0 6 8 -2 14 -13 13 -23 -1
-10 4 -22 10 -26 9 -6 9 -8 0 -8 -6 0 -15 4 -18 10 -3 5 -16 9 -29 8 -17 -2
-22 -7 -18 -20 2 -10 9 -18 14 -18 5 0 6 -5 3 -10 -3 -6 -1 -10 5 -10 6 0 9
-4 6 -9 -3 -5 2 -29 11 -54 16 -44 17 -45 56 -39 38 5 40 4 34 -19 -4 -13 -7
-27 -7 -31 0 -5 -6 -8 -12 -8 -29 -1 -41 -17 -28 -40 6 -12 14 -19 18 -16 3 4
12 -4 20 -16 7 -13 11 -15 8 -6 -6 19 10 19 54 0 19 -8 21 -11 7 -11 -11 -1
-15 -5 -11 -13 4 -7 3 -8 -5 -4 -6 4 -9 11 -6 16 3 5 1 11 -4 14 -5 4 -13 2
-16 -4 -8 -14 36 -51 53 -45 7 3 11 1 8 -4 -7 -10 18 -22 37 -17 6 1 8 1 4 -2
-19 -10 50 -42 93 -43 65 -1 212 -24 310 -49 90 -23 176 -28 250 -16 28 5 62
3 90 -4 43 -12 44 -13 20 -22 -14 -6 -92 -11 -175 -13 -233 -4 -301 -20 -226
-53 21 -9 36 -10 57 -2 28 10 27 9 -9 -22 -43 -38 -44 -43 -16 -59 13 -6 19
-7 15 -1 -3 6 12 13 36 18 49 9 82 6 86 -7 2 -5 8 -9 13 -9 6 0 7 5 4 10 -3 6
5 10 19 10 16 0 24 5 21 13 -3 6 0 19 5 27 9 13 11 13 20 0 8 -13 11 -12 23 4
8 11 21 20 30 22 9 1 30 12 46 23 16 12 34 20 38 19 8 -3 73 46 73 54 0 2 -16
12 -35 22 -19 11 -35 24 -35 30 0 6 -23 34 -51 63 -57 58 -60 97 -3 42 31 -30
51 -30 22 0 -12 12 45 10 177 -4 17 -2 39 -4 50 -5 20 -2 -34 -20 -65 -22 -8
0 -22 -6 -30 -13 -25 -20 -47 -24 -60 -12 -10 10 -10 8 -3 -8 6 -11 8 -25 6
-32 -12 -35 152 -68 327 -66 126 1 279 25 291 45 4 6 22 12 40 13 18 2 35 8
37 14 4 12 52 15 52 4 0 -5 36 -7 81 -5 87 4 89 5 64 65 -7 17 -6 17 23 0 28
-16 34 -16 99 -1 37 9 101 19 142 23 68 5 76 3 107 -20 30 -23 43 -25 202 -33
158 -8 174 -10 228 -37 72 -36 158 -43 319 -26 61 6 160 16 220 21 136 14 158
19 147 34 -5 6 -33 70 -62 141 -29 72 -60 139 -67 151 -18 29 -6 82 24 101 18
12 21 18 12 30 -10 11 -15 11 -30 -3 -18 -16 -19 -16 -19 13 0 17 -7 36 -15
43 -7 6 -17 33 -21 58 -7 49 -20 83 -37 94 -6 3 -10 30 -9 60 1 51 3 55 54
100 29 26 56 48 60 48 3 0 1 -13 -5 -29 -8 -22 -7 -39 7 -77 44 -125 58 -207
42 -251 -9 -27 2 -24 76 20 41 25 46 31 37 48 -5 11 -8 23 -5 27 2 4 -4 64
-15 132 -17 112 -26 369 -10 296 6 -29 7 -28 32 30 14 32 62 107 105 165 51
66 88 128 103 168 12 34 21 64 19 66 -1 2 -16 -11 -31 -29z m-3064 -773 c38
-59 42 -62 59 -47 15 15 16 19 3 37 -27 39 -15 40 20 3 19 -21 38 -48 41 -62
3 -13 11 -21 16 -18 6 4 9 1 6 -7 -3 -8 2 -19 11 -26 14 -11 13 -12 -6 -13
-13 0 -23 6 -23 13 0 19 -13 34 -37 41 -18 6 -22 4 -17 -9 6 -14 3 -14 -20 -4
-26 12 -116 152 -116 180 0 9 5 6 12 -6 6 -11 29 -48 51 -82z m47 -6 c0 -5 -7
-4 -15 3 -8 7 -15 20 -15 29 1 13 3 13 15 -3 8 -11 15 -24 15 -29z m-392 -72
c-3 -3 -9 2 -12 12 -6 14 -5 15 5 6 7 -7 10 -15 7 -18z m19 -12 c-3 -10 -5 -4
-5 12 0 17 2 24 5 18 2 -7 2 -21 0 -30z m53 23 c0 -3 -4 -8 -10 -11 -5 -3 -10
-1 -10 4 0 6 5 11 10 11 6 0 10 -2 10 -4z m32 -43 c11 -9 18 -11 18 -5 0 26
18 10 23 -20 6 -43 2 -46 -29 -17 -18 17 -23 19 -18 6 3 -10 1 -17 -5 -17 -6
0 -11 9 -11 19 0 11 -3 26 -6 35 -8 21 5 20 28 -1z m-45 -15 c-3 -8 -6 -5 -6
6 -1 11 2 17 5 13 3 -3 4 -12 1 -19z m139 -9 c5 -8 9 -8 14 1 9 15 33 3 27
-13 -2 -7 0 -20 5 -29 6 -14 5 -16 -7 -12 -8 4 -15 12 -15 19 0 8 -9 13 -19
12 -15 -1 -17 -4 -9 -14 8 -10 6 -13 -6 -13 -17 0 -38 38 -29 53 6 11 31 9 39
-4z m354 -8 c0 -5 9 -11 20 -14 14 -4 20 -13 19 -34 0 -27 -1 -27 -9 -5 -5 12
-14 22 -19 22 -6 0 -8 -6 -5 -14 3 -8 1 -17 -5 -21 -7 -4 -11 4 -11 19 0 13
-3 31 -6 40 -3 9 -1 16 5 16 6 0 11 -4 11 -9z m-250 -18 c0 -15 1 -15 14 2 13
18 13 18 24 -1 10 -17 11 -17 12 -1 0 9 5 17 11 17 7 0 9 -10 4 -27 -9 -38
-14 -41 -31 -19 -12 17 -14 18 -14 3 0 -25 -15 -21 -28 8 -15 32 -15 35 -2 35
6 0 10 -8 10 -17z m126 6 c4 -7 -1 -16 -12 -22 -17 -10 -17 -11 1 -18 17 -6
16 -8 -7 -8 -25 -1 -28 3 -28 29 0 23 5 30 19 30 11 0 23 -5 27 -11z m34 -25
c0 -13 -4 -24 -10 -24 -5 0 -10 14 -10 31 0 17 4 28 10 24 6 -3 10 -17 10 -31z
m47 28 c7 -4 15 -22 19 -39 6 -33 -11 -49 -37 -32 -11 7 -10 9 6 9 18 1 18 2
-2 10 -22 9 -31 39 -16 53 8 9 15 9 30 -1z m124 -20 c-8 -3 -8 -9 0 -24 11
-21 4 -38 -10 -22 -12 13 -22 60 -14 67 3 4 13 1 21 -5 9 -8 10 -14 3 -16z
m113 22 c16 -6 23 -64 10 -77 -14 -14 -44 15 -44 42 0 38 7 45 34 35z m76 -27
c0 -7 -6 -19 -12 -25 -10 -10 -10 -15 2 -22 12 -8 9 -10 -12 -10 -31 0 -36 11
-13 30 20 16 19 40 -1 40 -8 0 -12 5 -9 10 8 13 45 -6 45 -23z m50 13 c0 -5
-4 -10 -10 -10 -5 0 -10 -4 -10 -10 0 -5 7 -10 15 -10 20 0 19 -39 -1 -47 -8
-3 -20 -1 -27 6 -8 8 -7 11 6 11 9 0 17 5 17 10 0 6 -7 10 -15 10 -9 0 -15 9
-15 25 0 18 5 25 20 25 11 0 20 -4 20 -10z m-200 -10 c0 -5 -4 -10 -10 -10 -5
0 -10 5 -10 10 0 6 5 10 10 10 6 0 10 -4 10 -10z m120 -10 c0 -5 -4 -10 -10
-10 -5 0 -10 5 -10 10 0 6 5 10 10 10 6 0 10 -4 10 -10z m155 -40 c0 -30 -4
-35 -25 -37 -21 -2 -22 -1 -6 5 19 8 19 9 -2 14 -16 4 -22 14 -22 33 0 23 4
26 28 23 24 -3 27 -7 27 -38z m-832 -30 c5 -41 4 -43 -9 -26 -15 21 -19 58 -7
69 9 10 10 8 16 -43z m53 9 c-3 -17 -1 -29 7 -33 7 -2 3 -5 -9 -5 -30 -1 -36
10 -17 31 16 18 16 19 -6 25 -16 4 -19 8 -10 13 23 15 41 -1 35 -31z m59 22
c6 -11 -15 -61 -26 -61 -5 0 -5 10 0 22 6 17 4 26 -8 35 -14 11 -14 12 6 13
12 0 24 -4 28 -9z m73 -22 c-11 -7 -10 -11 2 -18 9 -6 19 -6 27 0 21 18 53 -8
53 -41 0 -23 -5 -30 -19 -30 -10 0 -21 8 -24 19 -3 14 -11 17 -30 14 -14 -3
-28 1 -32 8 -6 9 -3 11 8 6 10 -3 17 -2 17 2 0 5 -7 11 -15 15 -8 3 -15 14
-15 25 0 14 5 18 21 14 16 -4 18 -8 7 -14z m254 -21 c-1 -9 2 -19 8 -23 5 -3
10 3 10 14 0 14 6 21 20 21 22 0 44 -34 36 -56 -7 -17 -46 -19 -46 -2 0 9 -3
9 -12 0 -7 -7 -21 -12 -32 -12 -20 1 -20 1 -3 11 18 10 18 11 0 25 -10 7 -14
14 -9 14 5 0 2 7 -5 16 -11 14 -10 15 11 12 17 -2 24 -9 22 -20z m-85 -27 c0
-19 -6 -27 -18 -27 -11 0 -19 10 -21 27 -3 22 0 27 17 27 17 0 22 -7 22 -27z
m233 8 c0 -5 -6 -7 -12 -4 -7 4 -5 0 5 -8 24 -20 21 -37 -5 -37 -17 0 -19 3
-9 9 11 7 10 11 -4 19 -10 5 -15 14 -11 21 9 14 36 15 36 0z m150 2 c0 -5 9
-11 20 -14 14 -4 20 -13 19 -34 0 -27 -1 -27 -11 -5 -14 28 -28 28 -28 0 0
-30 -6 -20 -14 25 -4 23 -3 37 4 37 5 0 10 -4 10 -9z m-82 -34 c3 -25 0 -28
-20 -25 -28 4 -38 38 -11 39 16 0 16 1 -2 10 -18 8 -18 8 5 6 19 -1 26 -8 28
-30z m47 23 c3 -5 1 -10 -4 -10 -17 0 -13 -21 7 -37 16 -13 16 -14 -2 -11 -24
4 -41 30 -33 52 7 18 23 21 32 6z m180 -35 c0 -14 -3 -25 -7 -25 -12 0 -26 42
-20 58 7 20 25 -2 27 -33z m105 -6 c0 -15 -5 -31 -12 -35 -8 -5 -9 0 -5 16 3
12 1 34 -4 48 -8 22 -8 23 6 12 8 -7 15 -25 15 -41z m-920 11 c0 -5 -8 -6 -19
-3 -10 3 -22 0 -25 -5 -8 -13 20 -42 42 -43 11 -1 7 -4 -8 -9 -24 -8 -23 -8 8
-9 29 -1 32 1 26 23 -8 33 23 44 50 17 20 -20 20 -21 0 -42 -16 -19 -16 -21
-2 -16 9 3 22 -1 30 -11 8 -9 8 -13 1 -9 -6 4 -13 2 -15 -4 -3 -8 -22 -5 -63
9 -33 11 -71 21 -85 22 -174 5 -210 10 -210 29 0 13 87 34 136 34 32 0 52 -6
72 -24 15 -13 21 -17 15 -9 -19 21 -16 58 5 62 21 5 42 -1 42 -12z m865 10
c-17 -7 -17 -9 -2 -9 19 -1 23 -26 6 -37 -6 -3 -16 -1 -22 5 -8 8 -7 11 4 11
10 1 10 3 -3 11 -27 15 -22 29 10 28 24 0 25 -1 7 -9z m-751 -8 c3 -5 -1 -9
-9 -9 -8 0 -12 4 -9 9 3 4 7 8 9 8 2 0 6 -4 9 -8z m276 -22 c0 -15 -27 -23
-47 -15 -16 7 -15 9 7 15 36 11 40 11 40 0z m-203 -56 l2 -29 -10 28 c-6 15
-15 25 -19 22 -5 -3 -7 -12 -3 -20 3 -8 1 -15 -4 -15 -5 0 -14 12 -20 28 -10
25 -11 25 -12 5 -2 -34 -21 -28 -21 6 l0 29 43 -13 c36 -10 42 -16 44 -41z
m115 1 c2 -19 1 -35 -3 -35 -8 0 -19 36 -19 63 0 32 18 9 22 -28z m-37 3 c0
-26 -4 -32 -17 -30 -10 2 -18 -2 -18 -8 0 -23 -18 1 -22 29 -4 26 -1 31 21 34
14 2 28 5 31 6 3 0 6 -14 5 -31z m159 -18 c1 -16 -3 -29 -8 -27 -12 4 -27 57
-19 70 9 15 26 -10 27 -43z m-56 28 c18 -18 15 -28 -8 -28 -25 0 -26 -17 -2
-24 10 -3 6 -4 -8 -3 -18 1 -26 9 -28 26 -5 34 23 52 46 29z m322 -3 c-7 -9
-15 -13 -17 -11 -7 7 7 26 19 26 6 0 6 -6 -2 -15z m-202 -7 c16 -16 15 -28 -3
-28 -9 0 -12 6 -9 15 4 8 1 15 -5 15 -20 0 -11 -30 12 -40 22 -9 22 -9 1 -9
-26 -1 -48 23 -40 44 7 18 27 20 44 3z m236 -10 c-1 -13 -3 -33 -3 -46 -1 -29
-17 -21 -23 12 -5 25 7 56 21 56 4 0 7 -10 5 -22z m43 -19 c-5 -4 -6 -12 -3
-18 4 -6 4 -17 -1 -23 -4 -8 -10 0 -14 22 -9 40 10 76 22 43 3 -10 2 -21 -4
-24z m-187 9 c-18 -7 -20 -11 -10 -23 7 -8 16 -12 21 -9 5 3 9 0 9 -5 0 -15
-23 -14 -38 1 -27 27 -7 62 27 50 10 -4 8 -8 -9 -14z m88 0 c16 -16 15 -45 0
-51 -7 -2 6 -7 30 -11 23 -4 42 -12 42 -16 0 -12 -198 -4 -232 9 -34 13 -45
31 -19 31 12 0 21 7 21 15 0 8 7 15 15 15 8 0 15 -7 15 -15 0 -20 29 -33 71
-32 36 1 36 1 16 18 -18 14 -19 19 -8 33 16 19 33 20 49 4z m180 -15 c2 -8 -5
-13 -17 -13 -12 0 -21 -4 -21 -10 0 -5 8 -10 17 -10 9 0 14 -3 10 -6 -3 -3
-15 -3 -26 1 -20 6 -28 34 -14 49 11 10 46 3 51 -11z m72 1 c11 -13 10 -16
-10 -21 -22 -6 -23 -7 -4 -14 18 -7 18 -8 -2 -8 -27 -1 -46 21 -38 43 8 20 38
21 54 0z m157 -24 l2 -35 -10 33 c-10 34 -29 35 -29 1 0 -10 -4 -19 -10 -19
-5 0 -10 9 -10 21 0 12 -5 19 -12 16 -7 -2 -12 -11 -10 -21 2 -9 -2 -16 -8
-16 -5 0 -10 13 -10 28 0 28 2 29 48 28 47 -1 47 -1 49 -36z m99 15 c-2 -5 1
-19 7 -30 9 -18 8 -18 -6 -7 -9 8 -22 10 -28 6 -8 -5 -10 -2 -6 8 3 9 1 20 -5
26 -7 7 -2 10 16 9 14 -1 24 -6 22 -12z m-1158 -7 c-2 -5 -8 -9 -13 -9 -5 0
-11 4 -13 9 -1 5 4 9 13 9 9 0 14 -4 13 -9z m37 -26 c-8 -8 -25 10 -25 26 0
13 2 13 14 -4 8 -10 13 -21 11 -22z m371 -4 c5 -8 0 -9 -17 -5 -13 4 -33 7
-44 7 -19 1 -20 1 -1 15 19 15 47 7 62 -17z m-586 12 c0 -5 -5 -10 -11 -10 -5
0 -7 5 -4 10 3 6 8 10 11 10 2 0 4 -4 4 -10z m280 -10 c0 -11 -2 -20 -4 -20
-2 0 -6 9 -9 20 -3 11 -1 20 4 20 5 0 9 -9 9 -20z m50 1 c0 -4 -9 -7 -20 -8
-11 -1 -20 4 -20 12 0 8 7 11 20 8 11 -3 20 -8 20 -12z m1245 11 c6 -4 17 -16
25 -27 15 -19 15 -19 -13 -2 -32 20 -60 16 -51 -7 3 -9 -1 -23 -10 -32 -19
-18 -14 -46 16 -83 10 -13 16 -27 12 -30 -3 -3 -12 3 -20 14 -8 11 -24 31 -36
44 -16 17 -19 26 -10 28 7 3 12 21 12 43 0 27 6 42 18 49 20 12 43 14 57 3z
m-1215 -12 c0 -5 -4 -10 -10 -10 -5 0 -10 5 -10 10 0 6 5 10 10 10 6 0 10 -4
10 -10z m17 -12 c-3 -8 -6 -5 -6 6 -1 11 2 17 5 13 3 -3 4 -12 1 -19z m43 0
c0 -13 -23 -5 -28 10 -2 7 2 10 12 6 9 -3 16 -11 16 -16z m39 6 c6 4 11 1 11
-8 0 -21 -34 -13 -38 10 -2 15 -1 16 6 5 6 -7 15 -10 21 -7z m162 -31 c-10
-17 -10 -16 -11 3 0 23 13 41 18 25 2 -6 -1 -18 -7 -28z m-631 17 c0 -5 -7
-10 -15 -10 -8 0 -15 5 -15 10 0 6 7 10 15 10 8 0 15 -4 15 -10z m520 -7 c0
-17 17 -17 23 0 3 7 6 5 6 -5 1 -19 -24 -25 -34 -8 -4 6 -11 8 -16 5 -5 -4 -9
0 -9 8 0 7 7 14 15 14 8 0 15 -6 15 -14z m-430 -32 c0 -19 -27 -12 -33 8 -3
11 -3 22 0 25 7 7 33 -20 33 -33z m45 28 c4 -5 11 -7 16 -4 5 3 6 -1 3 -9 -9
-24 -37 -29 -51 -10 -7 10 -13 21 -13 24 0 10 39 9 45 -1z m449 -21 c-4 -6
-10 -5 -15 3 -14 22 -10 33 6 19 8 -7 12 -17 9 -22z m23 10 c-3 -8 -6 -5 -6 6
-1 11 2 17 5 13 3 -3 4 -12 1 -19z m81 -2 c3 -13 -1 -17 -14 -14 -11 2 -20 11
-22 22 -3 13 1 17 14 14 11 -2 20 -11 22 -22z m452 -1 c25 -7 59 -20 75 -29
17 -9 40 -16 52 -16 12 0 25 -5 29 -11 5 -9 -14 -10 -71 -7 -42 3 -80 10 -84
16 -3 6 -24 25 -46 43 -22 18 -31 29 -20 24 11 -4 40 -13 65 -20z m-426 0 c-4
-8 -8 -15 -10 -15 -2 0 -4 7 -4 15 0 8 4 15 10 15 5 0 7 -7 4 -15z m54 9 c12
-4 22 -14 22 -23 0 -14 -2 -14 -10 -1 -9 13 -10 13 -10 0 -1 -12 -4 -11 -14 3
-14 18 -14 18 -19 0 -4 -14 -5 -14 -6 5 -1 24 2 25 37 16z m89 -31 c-3 -10 -5
-4 -5 12 0 17 2 24 5 18 2 -7 2 -21 0 -30z m788 27 c3 -5 1 -10 -4 -10 -6 0
-11 5 -11 10 0 6 2 10 4 10 3 0 8 -4 11 -10z m-825 -30 c5 0 11 8 13 18 3 12
5 11 6 -6 1 -17 -4 -23 -16 -20 -10 2 -18 10 -19 18 0 9 1 10 3 3 3 -7 8 -13
13 -13z m119 -13 c1 -5 -3 -5 -9 -2 -5 3 -10 16 -9 28 0 21 1 21 9 2 5 -11 9
-24 9 -28z m-29 20 c0 -7 -9 -13 -20 -13 -22 0 -27 12 -7 19 21 9 27 8 27 -6z
m47 -9 c-3 -8 -6 -5 -6 6 -1 11 2 17 5 13 3 -3 4 -12 1 -19z m28 13 c-3 -5 -1
-12 5 -16 5 -3 10 0 10 7 0 18 57 21 64 3 3 -8 1 -15 -4 -15 -6 0 -10 6 -11
13 0 6 -4 3 -9 -8 -5 -11 -9 -14 -9 -7 -1 9 -6 10 -19 3 -21 -11 -48 2 -38 18
4 6 9 11 12 11 3 0 3 -4 -1 -9z m380 -41 c3 -5 1 -10 -4 -10 -6 0 -11 5 -11
10 0 6 2 10 4 10 3 0 8 -4 11 -10z"/>
<path d="M1290 1015 c0 -8 5 -15 10 -15 6 0 10 7 10 15 0 8 -4 15 -10 15 -5 0
-10 -7 -10 -15z"/>
<path d="M1530 990 c0 -5 5 -10 10 -10 6 0 10 5 10 10 0 6 -4 10 -10 10 -5 0
-10 -4 -10 -10z"/>
<path d="M1710 986 c0 -9 5 -16 10 -16 6 0 10 4 10 9 0 6 -4 13 -10 16 -5 3
-10 -1 -10 -9z"/>
<path d="M1140 911 c0 -6 5 -13 10 -16 6 -3 10 1 10 9 0 9 -4 16 -10 16 -5 0
-10 -4 -10 -9z"/>
<path d="M1390 911 c0 -11 5 -23 10 -26 6 -3 10 3 10 14 0 11 -4 23 -10 26 -5
3 -10 -3 -10 -14z"/>
<path d="M1022 829 c2 -7 10 -15 17 -17 8 -3 12 1 9 9 -2 7 -10 15 -17 17 -8
3 -12 -1 -9 -9z"/>
<path d="M1205 800 c-3 -5 1 -13 10 -16 22 -9 29 1 11 15 -10 8 -16 9 -21 1z"/>
<path d="M1612 758 c3 -7 13 -15 22 -16 12 -3 17 1 14 10 -3 7 -13 15 -22 16
-12 3 -17 -1 -14 -10z"/>
<path d="M1865 760 c3 -5 11 -10 16 -10 6 0 7 5 4 10 -3 6 -11 10 -16 10 -6 0
-7 -4 -4 -10z"/>
<path d="M1470 680 c0 -5 5 -10 10 -10 6 0 10 5 10 10 0 6 -4 10 -10 10 -5 0
-10 -4 -10 -10z"/>
<path d="M2480 1970 c20 -13 40 -13 40 0 0 6 -12 10 -27 10 -22 0 -25 -2 -13
-10z"/>
<path d="M866 1933 c9 -38 14 -42 14 -10 0 14 -5 29 -10 32 -7 4 -8 -3 -4 -22z"/>
<path d="M2120 1940 c0 -5 9 -10 21 -10 11 0 17 5 14 10 -3 6 -13 10 -21 10
-8 0 -14 -4 -14 -10z"/>
<path d="M1820 1909 c0 -5 5 -7 10 -4 6 3 10 8 10 11 0 2 -4 4 -10 4 -5 0 -10
-5 -10 -11z"/>
<path d="M1835 1870 c3 -5 10 -10 16 -10 5 0 9 5 9 10 0 6 -7 10 -16 10 -8 0
-12 -4 -9 -10z"/>
<path d="M1807 1840 c-13 -12 -15 -20 -7 -25 6 -4 18 1 25 11 27 36 13 46 -18
14z"/>
<path d="M3925 1850 c3 -5 8 -10 11 -10 2 0 4 5 4 10 0 6 -5 10 -11 10 -5 0
-7 -4 -4 -10z"/>
<path d="M2210 1825 c-7 -8 -18 -15 -26 -15 -7 0 -16 -4 -19 -10 -3 -5 0 -10
7 -10 16 0 77 49 62 50 -6 0 -17 -7 -24 -15z"/>
<path d="M1738 1783 c-21 -5 -24 -33 -4 -33 7 0 16 9 19 20 3 11 4 19 4 19 -1
-1 -10 -3 -19 -6z"/>
<path d="M2140 1765 c-7 -9 -8 -15 -2 -15 5 0 12 7 16 15 3 8 4 15 2 15 -2 0
-9 -7 -16 -15z"/>
<path d="M2658 1733 c7 -3 16 -2 19 1 4 3 -2 6 -13 5 -11 0 -14 -3 -6 -6z"/>
<path d="M2723 1713 c-30 -6 -29 -31 1 -39 28 -7 100 21 91 36 -6 10 -49 11
-92 3z"/>
<path d="M2483 1703 c-13 -2 -23 -9 -23 -14 0 -5 -6 -9 -14 -9 -20 0 -56 -48
-49 -66 3 -8 1 -14 -4 -14 -5 0 -8 -13 -5 -29 3 -23 -2 -33 -22 -46 -21 -14
-24 -20 -15 -31 9 -11 8 -18 -1 -29 -9 -11 -9 -15 -1 -15 7 0 10 -4 6 -9 -3
-5 0 -13 6 -16 5 -4 8 -13 5 -20 -3 -8 0 -16 7 -19 7 -2 5 -5 -5 -5 -9 -1 -26
-14 -38 -31 -18 -25 -25 -28 -41 -19 -21 11 -59 4 -59 -11 0 -5 -11 -5 -25 2
-18 8 -28 8 -38 -1 -11 -9 -20 -7 -40 9 -14 11 -34 20 -44 20 -10 0 -24 5 -29
10 -6 6 -24 12 -41 13 -17 1 -29 5 -27 9 6 9 -44 23 -52 15 -3 -3 4 -10 15
-17 12 -6 21 -17 21 -25 0 -8 5 -15 10 -15 6 0 10 -5 10 -11 0 -7 -10 -5 -25
5 -13 9 -28 16 -32 16 -11 -1 40 -39 52 -40 15 -1 62 -40 48 -40 -7 0 -13 -5
-13 -10 0 -6 8 -5 20 2 17 11 22 10 30 -2 8 -12 10 -12 15 2 6 14 11 15 33 6
15 -6 48 -11 73 -13 30 -1 58 -10 80 -26 32 -23 57 -28 132 -31 20 0 37 -5 37
-10 0 -6 27 -7 63 -5 34 3 62 6 62 7 0 1 20 4 45 6 25 3 74 13 110 23 53 14
71 15 95 5 23 -9 32 -9 43 3 11 11 17 12 22 3 4 -7 14 -10 21 -8 8 3 23 -2 34
-11 11 -9 17 -12 13 -7 -9 11 21 35 45 36 9 0 17 4 17 10 0 5 10 9 21 7 32 -3
33 17 2 31 -16 6 -19 9 -7 6 12 -2 27 2 34 11 18 22 58 18 115 -10 59 -29 69
-30 61 -10 -4 11 2 15 22 15 16 0 34 8 42 20 8 11 20 20 27 20 7 0 13 9 13 21
0 11 9 40 20 64 11 24 18 50 15 57 -3 8 8 19 27 27 19 9 27 16 19 19 -7 2 -18
-2 -23 -9 -7 -10 -8 -9 -3 6 11 34 11 40 -3 37 -7 -1 -19 4 -27 12 -8 7 -26
12 -42 10 -15 -2 -22 -1 -15 2 23 11 3 21 -32 15 -19 -3 -49 -19 -67 -35 l-32
-29 7 27 c4 15 2 26 -4 26 -5 0 -10 7 -10 15 0 20 -9 19 -32 -2 -16 -15 -21
-15 -28 -3 -5 8 -5 19 0 25 5 6 -3 11 -23 12 -26 1 -28 0 -12 -7 17 -7 17 -9
3 -9 -10 -1 -18 -6 -18 -11 0 -6 -6 -10 -12 -9 -26 3 -39 -1 -33 -11 3 -5 1
-10 -5 -10 -6 0 -14 -8 -17 -17 -9 -22 -33 -47 -47 -49 -25 -3 -56 -17 -56
-26 0 -5 -9 -8 -20 -6 -18 3 -31 19 -15 18 16 -1 55 57 55 81 0 10 -3 10 -12
1 -18 -18 -27 -15 -21 7 4 17 -2 18 -84 16 -92 -3 -124 6 -164 46 -17 17 -21
18 -34 5 -8 -8 -15 -19 -15 -25 0 -6 -4 -11 -10 -11 -5 0 -10 7 -10 16 0 8 -5
12 -11 9 -6 -4 -8 -13 -5 -20 3 -8 -2 -11 -15 -8 -21 6 -24 28 -9 67 10 27 9
28 -37 19z m117 -107 c0 -11 -19 -15 -25 -6 -3 5 1 10 9 10 9 0 16 -2 16 -4z
m55 -6 c3 -5 -1 -10 -9 -10 -9 0 -16 5 -16 10 0 6 4 10 9 10 6 0 13 -4 16 -10z
m435 -10 c0 -5 -2 -10 -4 -10 -3 0 -8 5 -11 10 -3 6 -1 10 4 10 6 0 11 -4 11
-10z m-245 -122 c-16 -6 -36 -15 -42 -21 -9 -6 -13 -6 -13 1 0 11 45 30 70 30
8 0 2 -4 -15 -10z m158 -19 c4 -14 11 -20 21 -16 19 8 33 -12 16 -23 -18 -11
-71 12 -65 28 3 8 5 18 5 23 0 18 18 9 23 -12z"/>
<path d="M2357 1693 c-4 -3 -7 -11 -7 -17 0 -6 5 -5 12 2 6 6 9 14 7 17 -3 3
-9 2 -12 -2z"/>
<path d="M1928 1553 c-13 -3 -18 -15 -18 -40 0 -20 -6 -41 -14 -47 -8 -6 -17
-20 -20 -32 -6 -18 -3 -20 24 -16 17 2 29 9 28 16 -4 22 15 61 39 83 37 33 17
51 -39 36z"/>
<path d="M1741 1528 c-9 -25 -4 -55 12 -65 5 -3 7 -2 4 4 -3 5 -2 26 3 46 9
41 -5 52 -19 15z"/>
<path d="M1714 1413 c-9 -21 -20 -48 -24 -59 -16 -41 44 -194 76 -194 8 0 14
-4 14 -10 0 -13 82 -90 96 -90 7 0 19 -7 28 -15 8 -9 17 -15 18 -13 6 5 68
-37 68 -45 0 -6 5 -5 13 0 13 11 62 -9 50 -20 -3 -4 1 -7 10 -7 9 0 18 4 21 8
2 4 42 7 88 5 89 -3 198 10 288 33 63 16 309 100 317 108 3 3 3 13 -1 22 -5
14 -15 15 -64 10 -225 -27 -588 -25 -626 2 -15 11 -82 33 -93 31 -28 -7 -149
91 -179 146 -6 11 -24 44 -39 73 -15 28 -32 52 -36 52 -5 0 -16 -17 -25 -37z
m40 -139 c3 -8 2 -12 -4 -9 -6 3 -10 10 -10 16 0 14 7 11 14 -7z"/>
<path d="M3357 1383 c-10 -9 -9 -23 1 -23 5 0 9 7 9 15 0 17 -1 18 -10 8z"/>
<path d="M2895 1200 c3 -5 10 -10 16 -10 5 0 9 5 9 10 0 6 -7 10 -16 10 -8 0
-12 -4 -9 -10z"/>
<path d="M2880 1149 c0 -5 5 -7 10 -4 6 3 10 8 10 11 0 2 -4 4 -10 4 -5 0 -10
-5 -10 -11z"/>
<path d="M4480 1119 c0 -24 -11 -90 -23 -146 -21 -91 -22 -103 -8 -103 20 1
56 30 64 53 12 34 54 15 43 -21 -8 -24 -113 -56 -145 -44 -41 15 -94 -23 -61
-43 6 -3 22 3 37 14 34 27 40 20 19 -23 -9 -19 -16 -38 -16 -44 0 -5 -12 -31
-26 -56 -15 -26 -24 -50 -20 -53 3 -3 30 2 61 11 35 12 77 17 119 14 l64 -3
12 120 c6 66 13 122 16 126 2 3 -5 14 -16 24 -29 26 -26 49 5 41 17 -4 25 -2
25 6 0 7 3 23 6 35 5 18 3 21 -15 16 -12 -3 -21 -10 -21 -15 0 -5 5 -6 10 -3
6 3 10 2 10 -3 0 -14 -53 -22 -65 -11 -7 7 -3 8 10 3 18 -7 18 -6 6 9 -7 9
-22 17 -33 17 -14 0 -18 5 -14 15 8 22 -4 75 -17 72 -6 -1 -11 3 -12 10 0 6
-3 15 -7 19 -5 4 -8 -13 -8 -37z"/>
<path d="M4527 1127 c3 -15 9 -27 14 -27 13 0 11 13 -5 35 -13 18 -14 18 -9
-8z"/>
<path d="M600 1111 c0 -5 6 -14 14 -20 12 -10 13 -8 9 8 -5 21 -23 30 -23 12z"/>
<path d="M4641 1074 c0 -11 3 -14 6 -6 3 7 2 16 -1 19 -3 4 -6 -2 -5 -13z"/>
<path d="M4540 1070 c0 -6 7 -10 15 -10 8 0 15 2 15 4 0 2 -7 6 -15 10 -8 3
-15 1 -15 -4z"/>
<path d="M590 1050 c0 -5 5 -10 10 -10 6 0 10 5 10 10 0 6 -4 10 -10 10 -5 0
-10 -4 -10 -10z"/>
<path d="M3973 1010 c-13 -5 -23 -14 -23 -21 0 -6 7 -8 16 -5 9 3 22 6 30 6 8
0 14 7 14 15 0 17 -5 18 -37 5z"/>
<path d="M4049 985 c-3 -2 -23 -7 -45 -10 -56 -9 -74 -15 -74 -26 0 -6 16 -7
38 -4 l37 6 -40 -15 c-22 -9 -41 -16 -42 -16 -2 0 -3 -7 -3 -15 0 -12 4 -11
20 5 11 11 33 20 50 20 22 0 30 5 31 18 0 10 3 12 6 5 2 -7 12 -13 21 -13 13
0 14 2 4 9 -9 5 0 10 27 15 23 3 41 11 41 16 0 10 -62 14 -71 5z"/>
<path d="M4079 930 c-17 -10 -59 -18 -101 -19 -19 -1 -28 -6 -28 -17 0 -12 7
-14 33 -9 29 5 30 5 14 -9 -12 -9 -15 -16 -7 -21 13 -8 42 14 34 26 -3 5 9 12
26 15 17 4 33 11 36 15 3 5 10 7 15 4 5 -4 9 1 9 9 0 18 -8 20 -31 6z"/>
<path d="M4277 928 c-12 -35 34 -63 61 -36 9 9 12 9 12 0 0 -9 6 -9 25 0 14 6
24 16 22 21 -5 15 -37 17 -37 4 0 -7 -5 -4 -11 6 -12 20 -65 23 -72 5z"/>
<path d="M4070 890 c-8 -5 -18 -6 -22 -4 -4 3 -8 -2 -8 -11 0 -10 5 -13 12 -9
8 5 9 2 5 -9 -5 -12 -1 -17 13 -17 11 0 20 4 20 10 0 5 7 7 15 4 8 -4 15 -1
15 5 0 6 -6 11 -14 11 -8 0 -16 7 -18 15 -2 10 -7 12 -18 5z"/>
<path d="M4131 858 c0 -14 -7 -29 -13 -31 -10 -4 -10 -6 0 -6 16 -1 25 22 19
46 -3 12 -5 9 -6 -9z"/>
<path d="M3930 826 c0 -14 4 -27 8 -30 5 -3 6 8 4 25 -5 35 -12 38 -12 5z"/>
<path d="M4020 839 c0 -5 5 -7 10 -4 6 3 10 8 10 11 0 2 -4 4 -10 4 -5 0 -10
-5 -10 -11z"/>
<path d="M3960 826 c0 -9 7 -12 20 -9 11 3 17 9 14 14 -8 14 -34 10 -34 -5z"/>
<path d="M4339 586 c-2 -2 -38 -10 -79 -16 -155 -24 -163 -27 -68 -29 98 -1
188 16 188 36 0 12 -31 19 -41 9z"/>
</g>
</svg>
