<?xml version="1.0" standalone="no"?>
<!DOCTYPE svg PUBLIC "-//W3C//DTD SVG 20010904//EN"
 "http://www.w3.org/TR/2001/REC-SVG-20010904/DTD/svg10.dtd">
<svg version="1.0" xmlns="http://www.w3.org/2000/svg"
 width="601.000000pt" height="445.000000pt" viewBox="0 0 601.000000 445.000000"
 preserveAspectRatio="xMidYMid meet">

<g transform="translate(0.000000,445.000000) scale(0.100000,-0.100000)"
fill="#000000" stroke="none">
<path d="M3400 4440 c-235 -7 -688 -17 -1140 -25 -795 -16 -1629 -36 -1700
-43 l-85 -7 4 -230 c1 -126 5 -232 7 -234 2 -3 26 0 52 7 26 6 155 36 287 68
132 31 283 67 335 81 52 14 117 29 144 34 27 5 54 13 60 19 5 5 22 10 37 10
29 0 355 74 479 109 110 31 120 29 120 -17 0 -21 3 -42 7 -46 5 -4 8 -12 8
-17 0 -9 2 -10 33 -8 14 0 14 2 -3 9 -18 8 -17 9 8 9 16 1 26 -3 22 -9 -4 -6
7 -10 24 -10 17 0 31 5 31 10 0 7 37 10 100 9 55 -1 100 -5 100 -10 0 -5 14
-2 31 7 26 13 36 14 55 4 12 -7 34 -10 48 -8 16 3 32 -2 45 -13 18 -17 19 -17
24 1 3 14 11 17 28 13 17 -3 20 -2 11 5 -10 7 -5 11 18 16 44 8 52 8 45 -4 -3
-5 -2 -10 4 -10 5 0 12 4 15 8 6 11 176 23 205 15 12 -3 21 -12 21 -19 0 -8
10 -14 23 -14 21 1 22 1 3 15 -18 14 -16 15 31 15 31 0 55 5 59 12 6 9 10 5
14 -12 5 -22 10 -24 48 -22 31 3 44 -1 48 -12 3 -9 15 -16 25 -16 10 0 19 -7
19 -15 0 -13 -3 -13 -20 -3 -26 16 -39 2 -14 -16 10 -8 16 -17 13 -20 -3 -3
-46 -11 -96 -18 -66 -9 -89 -16 -86 -25 7 -17 -48 -38 -57 -23 -5 8 -9 6 -14
-5 -4 -12 -13 -15 -31 -11 -14 4 -25 2 -25 -3 0 -16 -33 -22 -66 -12 -21 6
-36 5 -49 -5 -20 -15 -15 -17 25 -14 31 2 24 -5 -11 -13 -20 -5 -34 0 -55 18
-25 22 -30 23 -40 10 -6 -8 -18 -15 -26 -15 -9 0 -29 -7 -44 -15 -16 -8 -37
-15 -46 -15 -9 0 -20 -5 -24 -12 -5 -7 -11 -5 -21 8 -14 18 -15 18 -28 1 -7
-11 -17 -37 -20 -59 -5 -29 -13 -42 -31 -48 -26 -10 -28 -28 -4 -47 12 -10 7
-12 -30 -8 -25 2 -53 4 -63 4 -11 1 -18 8 -16 19 5 52 -2 81 -18 81 -10 1 -25
1 -33 2 -8 1 -31 -1 -50 -4 -42 -7 -74 7 -50 23 8 5 21 10 28 10 6 0 12 5 12
10 0 12 -17 13 -24 1 -3 -4 -28 -11 -56 -15 -30 -4 -48 -11 -45 -17 4 -5 14
-7 24 -4 11 3 26 -5 42 -22 21 -23 22 -25 4 -18 -42 16 -52 16 -65 0 -13 -15
-8 -17 58 -13 40 1 72 0 72 -4 0 -5 -6 -8 -12 -9 -7 0 -20 -2 -28 -3 -8 -2
-41 -6 -72 -10 -44 -6 -56 -11 -51 -22 3 -8 0 -14 -6 -14 -6 0 -11 7 -11 15 0
8 -5 15 -11 15 -6 0 -8 -9 -4 -20 3 -11 2 -20 -4 -20 -5 0 -11 8 -13 18 -3 13
-8 10 -21 -14 -9 -18 -40 -58 -69 -90 -95 -104 -228 -154 -623 -234 -110 -22
-231 -49 -270 -60 -38 -10 -110 -28 -160 -39 -49 -11 -211 -50 -358 -86 -148
-36 -274 -65 -282 -65 -8 0 -23 41 -40 108 -15 59 -31 116 -35 127 -4 11 -13
47 -20 80 -31 156 -36 170 -59 173 l-21 3 0 -634 1 -634 24 5 c28 5 34 -15 13
-36 -21 -21 -29 -200 -34 -755 l-5 -528 28 3 c17 2 28 9 28 18 0 11 14 16 54
18 47 3 62 10 140 66 109 80 151 102 161 86 10 -16 67 2 104 31 l26 20 1 -58
c0 -32 2 -67 4 -78 3 -16 8 -414 5 -465 -1 -24 -20 10 -20 37 0 19 -2 21 -23
10 -56 -30 -68 -53 -66 -128 2 -66 -3 -90 -17 -76 -4 4 -6 47 -5 96 1 73 -2
92 -15 99 -14 8 -14 10 0 21 17 14 22 76 8 85 -12 7 -52 -23 -52 -39 0 -9 -6
-12 -15 -9 -16 7 -45 -17 -45 -37 0 -7 -3 -9 -6 -6 -12 11 -44 -13 -44 -33 0
-13 -5 -18 -15 -14 -34 14 -60 -47 -36 -85 12 -19 41 -6 41 18 0 14 5 18 19
14 14 -3 24 3 35 24 8 15 15 24 16 20 1 -18 40 15 40 34 0 29 22 18 31 -14 7
-25 1 -33 -62 -83 -38 -31 -69 -60 -69 -65 0 -5 -11 -14 -25 -19 -14 -5 -30
-20 -35 -32 -8 -21 -15 -10 -11 15 1 5 -8 21 -19 37 -11 16 -19 33 -18 38 2 5
-14 26 -35 47 -42 41 -107 64 -107 38 0 -10 6 -12 23 -7 l22 6 -22 -24 c-23
-24 -23 -26 -23 -361 l0 -337 567 0 c430 1 570 4 581 13 12 9 16 9 19 0 6 -17
115 -17 131 -1 9 9 12 9 12 0 0 -8 23 -12 73 -12 50 0 67 3 57 10 -9 6 -10 10
-3 10 6 0 15 -5 18 -10 4 -6 98 -10 248 -10 235 0 243 1 255 21 13 21 27 18
27 -4 0 -9 76 -13 285 -14 205 -2 281 0 270 8 -12 9 -11 9 5 2 11 -4 795 -9
1743 -11 l1722 -2 0 240 c0 235 0 240 -19 230 -21 -10 -37 5 -85 82 -17 26
-17 27 13 42 41 22 46 21 70 -17 l22 -32 -5 285 c-3 157 -5 292 -4 300 0 8 2
115 4 236 l5 222 -58 -2 c-60 -2 -93 9 -93 31 0 7 -7 13 -15 13 -9 0 -18 7
-22 16 -18 48 -87 87 -150 85 -14 -1 -23 5 -23 14 0 13 17 15 113 11 105 -3
113 -2 129 18 13 16 20 18 28 10 9 -9 8 -18 -5 -38 -10 -14 -21 -26 -26 -26
-5 0 -9 -4 -9 -10 0 -5 16 -10 35 -10 20 0 49 -7 66 -15 l30 -16 -5 258 c-2
142 -4 267 -5 278 -1 25 -2 37 -4 150 -2 73 -5 90 -17 90 -11 0 -15 -12 -16
-46 0 -25 -3 -50 -6 -55 -2 -5 -3 -36 -1 -69 3 -65 3 -73 2 -123 -1 -24 -5
-32 -15 -28 -7 3 -16 1 -19 -4 -4 -6 0 -10 8 -10 13 0 31 -49 21 -59 -2 -2
-23 2 -46 9 -24 7 -54 14 -68 15 -14 1 -29 3 -34 4 -4 0 -5 13 -2 27 4 14 2
32 -4 39 -8 10 -8 20 -1 32 5 11 6 25 1 32 -4 8 -7 43 -5 80 1 43 -3 74 -12
89 -8 12 -9 22 -3 22 16 0 12 46 -6 61 -9 7 -32 20 -52 29 -34 15 -37 15 -59
-6 -13 -12 -23 -31 -23 -42 0 -35 -18 -34 -26 0 -4 18 -8 67 -9 108 -3 95 -3
98 -15 80 -7 -10 -10 13 -10 75 0 50 -2 123 -4 164 -3 40 -7 182 -10 315 -4
132 -8 284 -11 336 -3 52 -8 255 -11 450 -4 195 -8 373 -9 395 -2 22 -4 50 -4
63 l-1 22 -937 -2 c-516 -1 -1053 -5 -1193 -8z m835 -140 c3 -5 1 -10 -4 -10
-6 0 -11 5 -11 10 0 6 2 10 4 10 3 0 8 -4 11 -10z m178 -7 c-7 -2 -21 -2 -30
0 -10 3 -4 5 12 5 17 0 24 -2 18 -5z m-1871 -15 c-18 -18 -70 -19 -76 -2 -4
11 6 14 41 14 37 0 44 -3 35 -12z m148 -4 c0 -2 -26 -3 -57 -3 -44 1 -51 3
-28 8 29 6 85 3 85 -5z m-311 -4 c22 6 31 6 29 -2 -5 -13 -98 -22 -98 -10 0
16 13 22 25 12 7 -6 23 -6 44 0z m66 0 c3 -5 1 -10 -4 -10 -6 0 -11 5 -11 10
0 6 2 10 4 10 3 0 8 -4 11 -10z m338 3 c-7 -2 -19 -2 -25 0 -7 3 -2 5 12 5 14
0 19 -2 13 -5z m267 -3 c0 -5 -5 -10 -11 -10 -5 0 -7 5 -4 10 3 6 8 10 11 10
2 0 4 -4 4 -10z m-97 -7 c-13 -2 -33 -2 -45 0 -13 2 -3 4 22 4 25 0 35 -2 23
-4z m64 1 c-3 -3 -12 -4 -19 -1 -8 3 -5 6 6 6 11 1 17 -2 13 -5z m93 -4 c-20
-13 -40 -13 -40 0 0 6 12 10 28 10 21 0 24 -2 12 -10z m-147 -17 c-7 -2 -21
-2 -30 0 -10 3 -4 5 12 5 17 0 24 -2 18 -5z m851 -45 c3 -29 6 -102 6 -163 0
-251 -88 -479 -245 -639 -118 -119 -223 -172 -505 -252 -63 -17 -185 -53 -270
-78 -151 -44 -513 -136 -537 -136 -26 0 -11 263 22 413 58 257 196 460 380
554 73 37 186 77 290 102 22 5 130 34 240 65 110 31 268 74 350 97 83 23 173
52 200 65 28 12 53 23 56 23 3 1 9 -23 13 -51z m-947 36 c-3 -3 -12 -4 -19 -1
-8 3 -5 6 6 6 11 1 17 -2 13 -5z m-317 -24 c0 -5 -2 -10 -4 -10 -3 0 -8 5 -11
10 -3 6 -1 10 4 10 6 0 11 -4 11 -10z m57 4 c-3 -3 -12 -4 -19 -1 -8 3 -5 6 6
6 11 1 17 -2 13 -5z m1480 -26 c2 -17 0 -19 -7 -8 -5 8 -12 12 -15 8 -3 -3 1
-13 10 -21 8 -9 15 -23 15 -31 0 -22 18 -20 22 1 2 13 14 17 51 18 51 0 56 -5
31 -29 -14 -15 -12 -16 20 -16 29 0 34 3 29 18 -4 9 -10 19 -14 22 -15 10 2
48 19 44 10 -2 46 -6 82 -9 36 -3 72 -7 81 -8 16 -1 24 -37 8 -37 -5 0 -9 -5
-9 -10 0 -7 13 -8 35 -4 31 6 35 4 35 -16 0 -17 5 -21 23 -18 12 2 21 9 20 15
-1 6 11 15 28 18 33 8 63 -10 55 -32 -3 -7 1 -13 9 -13 7 0 16 8 18 18 2 9 4
5 3 -9 -2 -24 1 -25 40 -23 36 2 43 0 48 -19 5 -19 7 -20 23 -5 10 8 26 18 36
21 14 5 17 3 13 -11 -6 -20 9 -50 21 -39 4 5 1 12 -7 17 -21 13 -6 22 37 25
21 1 32 0 26 -2 -7 -3 -13 -13 -13 -24 0 -11 -6 -22 -14 -25 -8 -3 -16 -14
-19 -25 -6 -21 -55 -27 -73 -9 -5 5 -15 6 -24 0 -11 -7 -8 -10 13 -15 15 -4
24 -11 22 -16 -3 -4 -13 -6 -23 -3 -9 2 -7 -1 6 -7 27 -15 29 -33 2 -26 -11 3
-18 1 -14 -4 3 -5 0 -9 -5 -9 -6 0 -11 -4 -11 -10 0 -5 12 -10 28 -10 22 0 72
-19 51 -20 -4 0 -23 -7 -43 -15 -20 -8 -36 -11 -36 -6 0 5 10 12 23 14 16 3
13 5 -10 6 -25 1 -31 -2 -27 -14 5 -11 -1 -15 -20 -15 -14 0 -26 5 -26 11 0 6
7 8 18 4 13 -5 14 -3 5 5 -7 8 -23 9 -45 4 -18 -4 -38 -7 -44 -6 -7 1 -10 -11
-8 -33 1 -19 -1 -35 -6 -35 -5 0 -15 -3 -23 -6 -10 -3 -20 3 -27 17 -11 20
-10 21 14 15 19 -5 26 -3 26 8 0 12 -7 13 -32 6 -18 -6 -36 -6 -42 -1 -11 10
-50 -11 -40 -21 2 -3 -7 -5 -21 -5 -14 0 -25 4 -25 9 0 6 -9 8 -20 5 -11 -3
-18 -1 -14 4 3 5 -25 9 -63 9 -37 0 -76 0 -87 1 -25 0 -33 -10 -16 -21 8 -6
11 -10 5 -10 -74 -3 -189 -29 -132 -30 10 0 17 -7 16 -17 0 -11 -3 -13 -6 -5
-2 6 -14 12 -24 12 -11 0 -17 5 -14 10 8 13 4 13 -40 -6 -31 -13 -39 -13 -46
-2 -7 11 -11 10 -19 -2 -6 -9 -10 -10 -10 -3 0 6 -15 14 -32 16 -25 3 -21 4
15 5 56 2 82 20 60 40 -11 11 -14 10 -19 -2 -7 -18 -84 -23 -84 -6 0 6 7 10
15 10 31 0 14 28 -22 35 -27 5 -33 9 -22 16 8 5 24 9 37 9 13 0 22 6 22 15 0
8 5 15 12 15 6 0 -1 11 -16 24 l-28 23 44 6 c24 3 54 4 65 1 17 -5 21 0 25 25
5 37 -3 53 -21 41 -8 -4 -20 -6 -27 -3 -6 2 -15 -1 -20 -8 -5 -8 -2 -11 8 -7
8 4 21 2 28 -2 22 -14 -33 -34 -67 -25 l-28 7 22 15 c17 12 21 21 16 44 -4 22
-2 29 11 29 9 0 16 5 16 10 0 10 -12 13 -45 11 l-20 -2 20 16 c11 9 19 23 17
31 -2 8 2 14 9 14 6 0 9 8 6 20 -5 19 1 22 31 19 4 0 6 -7 4 -16 -2 -9 1 -12
8 -8 6 4 17 2 24 -4 11 -9 16 -5 24 18 7 19 19 31 34 34 13 2 23 5 23 6 1 0 2
-9 2 -21z m50 -14 c-3 -3 -12 -4 -19 -1 -8 3 -5 6 6 6 11 1 17 -2 13 -5z m443
-4 c0 -5 -4 -10 -10 -10 -5 0 -10 5 -10 10 0 6 5 10 10 10 6 0 10 -4 10 -10z
m-1397 -17 c-7 -2 -21 -2 -30 0 -10 3 -4 5 12 5 17 0 24 -2 18 -5z m134 0
c-20 -2 -35 -8 -32 -13 4 -6 -8 -7 -27 -4 -32 6 -32 6 -13 -10 19 -16 19 -16
-10 -10 -16 4 -37 10 -45 15 -12 7 -10 8 8 9 12 0 22 5 22 10 0 6 28 9 68 8
41 -1 53 -3 29 -5z m540 -65 c-3 -8 -6 -5 -6 6 -1 11 2 17 5 13 3 -3 4 -12 1
-19z m1263 -16 c0 -6 9 -12 20 -15 18 -5 19 -13 17 -87 -1 -46 -3 -76 -5 -66
-4 21 -22 21 -22 0 0 -8 -6 -22 -14 -30 -8 -7 -16 -19 -18 -26 -4 -10 -8 -10
-20 -1 -19 16 -28 7 -28 -29 0 -32 -22 -38 -46 -13 -14 14 -41 20 -71 16 -15
-2 -9 38 18 119 10 31 14 56 8 58 -17 7 -9 32 11 32 19 0 24 9 21 35 0 7 26
12 64 13 36 2 65 -1 65 -6z m95 -33 c12 1 9 -129 -3 -141 -5 -5 -14 9 -21 34
-15 55 -17 97 -6 128 l9 25 5 -23 c3 -13 11 -23 16 -23z m-1305 1 c0 -5 -7
-10 -15 -10 -8 0 -15 5 -15 10 0 6 7 10 15 10 8 0 15 -4 15 -10z m-903 -6 c-3
-3 -12 -4 -19 -1 -8 3 -5 6 6 6 11 1 17 -2 13 -5z m1943 -50 c0 -8 -4 -12 -10
-9 -5 3 -10 10 -10 16 0 5 5 9 10 9 6 0 10 -7 10 -16z m-2490 -104 c0 -5 -4
-10 -10 -10 -5 0 -10 5 -10 10 0 6 5 10 10 10 6 0 10 -4 10 -10z m-220 -27 c0
-5 -13 -17 -27 -27 -23 -17 -26 -17 -20 -3 3 9 2 17 -4 17 -6 0 -7 5 -4 10 7
12 55 14 55 3z m2117 -79 c-7 -7 -37 7 -37 17 0 6 9 5 21 -1 11 -7 19 -14 16
-16z m313 17 c0 -5 -7 -11 -15 -15 -9 -3 -15 0 -15 9 0 8 7 15 15 15 8 0 15
-4 15 -9z m-2500 -11 c0 -5 -5 -10 -11 -10 -5 0 -7 5 -4 10 3 6 8 10 11 10 2
0 4 -4 4 -10z m-30 -31 c0 -4 -9 -9 -21 -12 -16 -4 -18 -3 -8 9 9 11 8 14 -2
14 -11 0 -11 2 1 10 13 8 29 -3 30 -21z m2260 11 c0 -5 -4 -10 -9 -10 -6 0
-13 5 -16 10 -3 6 1 10 9 10 9 0 16 -4 16 -10z m-2100 -10 c0 -5 -6 -10 -14
-10 -8 0 -18 5 -21 10 -3 6 3 10 14 10 12 0 21 -4 21 -10z m45 0 c-3 -5 -11
-10 -16 -10 -6 0 -7 5 -4 10 3 6 11 10 16 10 6 0 7 -4 4 -10z m1840 -8 c-11
-3 -23 -9 -27 -16 -5 -7 -8 -5 -8 6 0 17 27 29 45 19 6 -3 1 -7 -10 -9z m-55
-2 c0 -5 -2 -10 -4 -10 -3 0 -8 5 -11 10 -3 6 -1 10 4 10 6 0 11 -4 11 -10z
m-2140 -4 c0 -2 -7 -7 -16 -10 -8 -3 -12 -2 -9 4 6 10 25 14 25 6z m130 -36
c0 -5 -5 -10 -11 -10 -5 0 -7 5 -4 10 3 6 8 10 11 10 2 0 4 -4 4 -10z m2150 0
c0 -5 -2 -10 -4 -10 -3 0 -8 5 -11 10 -3 6 -1 10 4 10 6 0 11 -4 11 -10z m85
-30 c3 -5 2 -10 -4 -10 -5 0 -13 5 -16 10 -3 6 -2 10 4 10 5 0 13 -4 16 -10z
m-2305 -10 c0 -5 -4 -10 -10 -10 -5 0 -10 5 -10 10 0 6 5 10 10 10 6 0 10 -4
10 -10z m2243 3 c-7 -2 -19 -2 -25 0 -7 3 -2 5 12 5 14 0 19 -2 13 -5z m-2211
-35 c-7 -7 -12 -8 -12 -2 0 14 12 26 19 19 2 -3 -1 -11 -7 -17z m2205 -123 c0
-18 -28 -16 -35 3 -2 7 5 12 16 12 10 0 19 -7 19 -15z m553 -16 c0 -5 -4 -9
-10 -9 -5 0 -10 -18 -10 -40 0 -22 -4 -40 -10 -40 -5 0 -10 18 -10 40 0 30 -4
40 -16 40 -8 0 -13 3 -11 8 7 10 67 11 67 1z m47 -26 l15 -38 12 35 c6 19 16
34 21 33 14 -4 19 -73 6 -86 -8 -8 -11 -4 -12 14 l0 24 -9 -22 c-12 -31 -18
-29 -35 10 l-14 32 -2 -35 -1 -35 -8 33 c-7 31 -3 72 7 72 2 0 11 -17 20 -37z
m-907 -83 c0 -5 -5 -10 -11 -10 -5 0 -7 5 -4 10 3 6 8 10 11 10 2 0 4 -4 4
-10z m-66 -45 c-4 -8 -13 -15 -22 -15 -13 0 -12 3 4 15 24 18 25 18 18 0z m26
-30 c0 -8 -4 -15 -10 -15 -5 0 -10 7 -10 15 0 8 5 15 10 15 6 0 10 -7 10 -15z
m-59 -43 c-14 -20 -30 -88 -56 -233 -20 -112 -38 -215 -41 -229 l-6 -25 24 27
c74 85 188 231 189 243 1 8 2 21 3 27 1 11 169 67 200 68 5 0 -4 -12 -21 -27
-25 -24 -196 -243 -271 -349 l-22 -32 102 -91 c70 -63 115 -95 143 -103 l40
-11 -105 -27 c-58 -15 -116 -30 -130 -34 -20 -7 -23 -6 -12 5 6 7 12 21 12 30
0 16 -161 162 -169 153 -7 -6 -40 -186 -41 -219 0 -29 -3 -31 -75 -51 -90 -25
-86 -38 -50 150 106 566 119 650 105 676 -6 12 -10 23 -8 25 4 4 179 52 196
54 9 1 7 -8 -7 -27z m873 12 c9 -8 16 -23 16 -32 0 -47 -84 -473 -100 -509
-27 -60 -75 -87 -224 -128 -224 -61 -249 -50 -221 99 8 44 27 146 40 226 14
80 30 159 36 177 16 50 79 99 156 122 227 67 270 73 297 45z m-1177 -276 c-18
-27 -33 -101 -82 -398 -20 -118 -34 -227 -31 -242 5 -26 3 -28 -78 -53 -102
-30 -101 -30 -82 -3 9 12 16 34 16 48 0 25 -1 25 -21 -7 -40 -63 -166 -122
-239 -112 -22 4 -25 10 -28 47 -3 46 -11 52 -29 23 -7 -11 -20 -20 -30 -20
-10 -1 -52 -5 -93 -10 -41 -5 -77 -6 -80 -2 -3 3 -14 7 -25 9 -40 6 -46 12
-42 39 3 24 10 30 53 40 27 7 95 16 152 19 102 7 102 7 102 33 0 34 34 220 61
341 19 82 27 100 58 130 20 20 54 41 76 48 95 29 350 99 353 96 2 -1 -3 -13
-11 -26z m-696 -105 c-15 -54 -15 -55 24 -47 38 7 90 -9 98 -30 4 -11 -39
-246 -46 -251 -12 -11 -132 -64 -135 -60 -2 2 3 43 11 92 22 134 10 143 -81
58 l-59 -54 -46 -233 c-26 -128 -47 -242 -47 -253 0 -17 -13 -25 -72 -42 -40
-12 -74 -20 -75 -19 -2 1 4 49 12 106 9 56 13 105 10 108 -3 3 -5 -4 -5 -16 0
-11 -4 -24 -10 -27 -5 -3 -10 0 -10 9 0 8 -5 16 -12 18 -7 3 2 11 20 19 23 10
33 22 37 44 2 16 19 108 36 204 24 134 29 178 20 197 -10 23 -8 24 55 44 86
26 94 26 94 -6 l0 -26 35 30 c19 17 55 43 80 57 25 15 45 32 45 38 0 22 21 89
26 84 3 -3 1 -22 -5 -44z m-1014 -169 c24 -24 25 -30 18 -87 -11 -103 -36
-210 -56 -242 -10 -17 -37 -42 -61 -55 l-43 -25 33 -3 c21 -2 38 -12 48 -26
13 -22 12 -37 -11 -167 -14 -79 -30 -158 -36 -176 -12 -38 -57 -79 -114 -104
-33 -15 -312 -99 -328 -99 -2 0 6 55 19 123 57 305 125 698 127 728 1 19 -2
43 -6 54 -6 19 5 23 151 62 190 50 224 52 259 17z m581 -21 c-25 -49 -38 -94
-53 -178 -9 -55 -32 -182 -51 -282 -26 -136 -32 -188 -24 -202 9 -18 2 -22
-83 -49 -85 -26 -119 -32 -90 -14 11 7 33 54 33 72 0 5 -24 -15 -53 -44 -57
-58 -121 -86 -194 -86 -37 0 -43 3 -49 26 -10 37 2 126 47 349 42 209 58 256
102 289 15 11 109 43 209 72 185 54 213 60 206 47z m-1938 -54 c0 -29 -4 -48
-9 -44 -6 3 -8 18 -7 33 2 15 4 35 5 45 2 39 11 13 11 -34z m4827 -31 c-3 -8
-6 -5 -6 6 -1 11 2 17 5 13 3 -3 4 -12 1 -19z m-5287 -108 c0 -5 -2 -10 -4
-10 -3 0 -8 5 -11 10 -3 6 -1 10 4 10 6 0 11 -4 11 -10z m113 -15 c-7 -21 -13
-19 -13 6 0 11 4 18 10 14 5 -3 7 -12 3 -20z m37 -10 c0 -8 -4 -15 -10 -15 -5
0 -10 7 -10 15 0 8 5 15 10 15 6 0 10 -7 10 -15z m310 -8 c0 -13 -6 -24 -12
-25 -31 -3 -153 -52 -157 -63 -4 -12 1 -11 67 7 16 5 22 2 22 -10 0 -9 -6 -16
-14 -16 -8 0 -20 -16 -26 -35 -13 -40 -30 -39 -22 1 4 24 2 25 -24 21 -51 -9
-138 -43 -142 -56 -2 -7 5 -15 17 -18 28 -7 27 -21 -1 -25 -18 -2 -22 -9 -20
-30 1 -14 -2 -29 -8 -33 -6 -3 -10 4 -11 17 -3 82 -9 127 -22 158 -13 29 -17
32 -22 17 -4 -9 -2 -24 5 -32 9 -11 9 -19 2 -27 -6 -7 -12 -26 -14 -43 -2 -22
-9 -31 -24 -33 -20 -3 -22 2 -26 75 -3 73 -2 79 22 100 32 29 48 29 60 -1 8
-21 13 -23 57 -19 63 6 143 33 166 55 10 10 23 18 30 18 8 0 7 -4 -3 -11 -20
-14 25 -2 60 16 36 19 40 18 40 -8z m-175 4 c-18 -7 -55 -4 -55 5 0 2 17 4 38
3 28 0 32 -2 17 -8z m145 -67 c0 -8 -5 -12 -10 -9 -6 4 -8 11 -5 16 9 14 15
11 15 -7z m4237 -40 c18 -5 22 -11 17 -29 -4 -15 0 -24 10 -28 10 -4 14 0 11
14 -2 11 0 17 5 14 5 -3 19 -1 30 5 16 9 20 8 20 -7 0 -13 3 -14 12 -5 19 19
28 14 28 -13 0 -27 -9 -32 -28 -13 -8 8 -12 9 -12 1 0 -7 -18 -11 -45 -10 -38
1 -45 4 -46 22 -1 17 -2 16 -9 -5 -7 -21 -8 -22 -10 -5 l-1 20 -9 -20 c-8 -19
-9 -19 -9 2 -1 15 8 24 27 31 27 10 27 10 -10 11 -20 1 -40 6 -43 11 -7 11 27
13 62 4z m291 -41 c4 -27 -36 -36 -56 -13 -8 8 -11 10 -8 3 4 -6 2 -14 -4 -18
-5 -3 -10 1 -10 10 0 15 -1 15 -16 1 -18 -19 -34 -12 -34 14 0 14 6 18 20 15
12 -2 23 2 26 9 3 9 16 11 42 7 28 -5 38 -12 40 -28z m183 -32 c17 -58 -3
-115 -63 -176 -27 -27 -52 -63 -55 -79 -5 -23 -8 -25 -15 -12 -17 30 3 84 52
140 52 59 71 117 51 155 -15 28 -14 36 4 21 8 -7 20 -29 26 -49z m-4711 39 c0
-5 -2 -10 -4 -10 -3 0 -8 5 -11 10 -3 6 -1 10 4 10 6 0 11 -4 11 -10z m-40 -9
c0 -14 -18 -23 -30 -16 -6 4 -8 11 -5 16 8 12 35 12 35 0z m3140 -9 c0 -14 48
-32 84 -32 94 0 293 -110 412 -227 131 -129 187 -333 132 -480 -93 -252 -383
-450 -773 -528 -569 -115 -1191 38 -1422 348 -91 123 -118 223 -93 349 15 79
27 103 44 89 7 -6 23 -12 37 -14 23 -4 24 -6 21 -89 -5 -136 38 -238 145 -339
215 -205 638 -320 1033 -280 281 29 521 110 687 232 45 34 53 44 58 83 4 26 2
59 -5 81 -10 31 -10 39 4 54 23 25 20 31 -15 31 -18 0 -28 4 -24 10 4 6 15 8
25 5 10 -3 21 -1 25 4 4 7 -1 8 -12 4 -17 -6 -17 -6 0 14 16 19 16 20 0 35
-20 16 -60 18 -82 4 -11 -7 -13 -5 -8 8 4 9 0 28 -9 41 -13 20 -21 23 -52 18
-28 -3 -33 -2 -22 6 14 10 12 13 -6 10 -15 -2 -23 28 -19 68 3 41 3 42 -16 32
-12 -6 -23 -8 -27 -5 -3 3 0 6 6 6 7 0 12 5 12 11 0 6 -7 8 -16 5 -8 -3 -13
-2 -10 2 3 5 -10 15 -29 22 -40 16 -43 25 -15 42 11 7 20 16 20 21 0 4 -9 3
-20 -3 -14 -7 -20 -7 -20 0 0 14 -11 13 -56 -6 -22 -9 -33 -19 -26 -21 19 -7
14 -19 -9 -19 -16 0 -19 5 -14 23 6 27 -3 30 -22 6 -12 -16 -13 -15 -7 12 9
40 12 42 28 19 8 -10 18 -15 23 -11 8 9 -23 37 -41 37 -6 0 -21 -22 -34 -48
-20 -43 -49 -80 -162 -212 -21 -25 -54 -66 -74 -91 -19 -26 -42 -49 -52 -53
-13 -5 -12 -1 4 16 21 23 63 74 117 143 17 22 51 64 77 94 48 56 54 75 27 77
-8 1 -20 2 -26 3 -26 2 -12 20 13 18 38 -3 39 15 4 35 -30 17 -30 17 -35 -10
-11 -52 -83 -188 -144 -269 -59 -81 -102 -116 -58 -49 12 18 24 32 26 30 7 -6
31 48 25 57 -3 5 1 12 9 15 8 3 18 23 21 46 5 30 10 38 21 34 16 -6 15 17 -1
58 -5 14 -4 17 5 11 10 -6 11 -3 2 14 -7 11 -16 21 -20 21 -5 0 -31 -30 -57
-67 -65 -93 -72 -99 -34 -25 32 60 48 152 28 152 -5 0 -7 4 -3 9 3 6 -3 15
-12 21 -17 11 -17 11 0 6 12 -4 21 2 29 19 6 14 15 25 20 25 4 0 8 8 8 18 -1
16 -1 16 -14 0 -7 -10 -23 -18 -35 -18 -11 0 -21 -5 -21 -11 0 -6 -7 -3 -16 6
-10 9 -24 13 -36 9 -17 -5 -18 -4 -7 15 10 15 16 17 27 9 24 -20 60 -18 65 4
3 11 10 17 16 13 6 -3 11 1 11 9 0 19 16 21 23 4 4 -10 8 -9 16 2 10 15 20 17
89 21 18 1 37 8 43 15 6 7 17 10 25 7 8 -3 14 0 14 7 0 10 3 10 14 1 10 -8 30
-10 60 -6 31 5 54 3 75 -8 17 -9 33 -12 36 -7 3 5 19 2 35 -7 17 -8 38 -12 48
-8 9 3 13 3 9 -1 -9 -10 30 -37 43 -29 6 3 10 2 10 -3 0 -5 12 -15 28 -22 32
-17 175 -102 182 -110 3 -3 16 -11 28 -18 50 -28 33 2 -41 73 -65 62 -97 83
-211 139 -73 36 -138 66 -142 66 -5 0 -19 8 -31 18 -16 12 -21 23 -17 40 6 21
24 32 24 14z m-3236 -17 c-4 -8 -11 -15 -16 -15 -6 0 -5 6 2 15 7 8 14 15 16
15 2 0 1 -7 -2 -15z m-39 -15 c3 -5 1 -10 -4 -10 -6 0 -11 5 -11 10 0 6 2 10
4 10 3 0 8 -4 11 -10z m4515 -8 c0 -13 -12 -22 -22 -16 -10 6 -1 24 13 24 5 0
9 -4 9 -8z m277 -14 c25 -23 31 -64 11 -71 -37 -12 -100 52 -77 79 16 20 39
17 66 -8z m-4722 2 c3 -5 1 -10 -4 -10 -6 0 -11 5 -11 10 0 6 2 10 4 10 3 0 8
-4 11 -10z m4626 -20 c28 -16 27 -127 -2 -164 -24 -31 -64 -34 -79 -7 -23 43
-7 143 27 169 20 15 29 15 54 2z m-4547 -15 c-4 -8 -12 -15 -20 -15 -8 0 -14
7 -14 15 0 8 9 15 20 15 13 0 18 -5 14 -15z m4029 0 c-3 -9 -8 -14 -10 -11 -3
3 -2 9 2 15 9 16 15 13 8 -4z m291 -57 c-7 -98 -12 -118 -28 -118 -11 0 -13
14 -8 65 4 56 2 65 -12 65 -9 0 -16 7 -16 15 0 8 7 15 15 15 9 0 18 7 21 15 4
8 12 15 20 15 11 0 13 -14 8 -72z m117 51 c15 -29 6 -111 -15 -143 -20 -31
-61 -35 -76 -7 -21 40 -7 144 23 163 23 15 56 8 68 -13z m729 -8 c0 -17 -5
-33 -11 -36 -6 -4 -8 -13 -5 -21 3 -8 1 -14 -4 -14 -6 0 -10 23 -10 50 0 38 4
50 15 50 10 0 15 -10 15 -29z m-5500 -26 c-19 -23 -40 -18 -40 10 0 17 4 23
14 19 8 -3 18 1 22 8 7 10 9 9 12 -5 2 -10 -2 -24 -8 -32z m4520 25 c0 -5 -5
-10 -11 -10 -5 0 -7 5 -4 10 3 6 8 10 11 10 2 0 4 -4 4 -10z m-4140 -12 c0 -4
-12 -8 -26 -8 -14 0 -23 4 -19 9 6 11 45 10 45 -1z m2510 -8 c0 -6 6 -10 13
-8 7 2 14 -1 16 -7 6 -17 41 -36 53 -29 7 4 8 3 4 -4 -4 -7 -13 -12 -21 -12
-24 0 -27 -20 -4 -29 l23 -8 -22 -19 c-23 -19 -32 -44 -9 -26 6 5 21 12 32 14
25 5 67 -46 57 -70 -5 -14 -8 -12 -10 7 -2 13 -10 31 -18 38 -12 12 -14 11
-14 -7 0 -11 -6 -27 -12 -34 -11 -12 -16 -12 -31 2 -17 15 -18 14 -24 -7 -4
-16 -8 -19 -13 -10 -5 7 -3 20 3 31 9 14 9 23 -1 38 -9 15 -9 20 0 20 6 0 9 2
6 5 -9 10 -39 -7 -34 -20 3 -8 -4 -10 -20 -7 -17 3 -24 0 -24 -12 0 -9 4 -16
8 -16 13 0 52 -40 52 -53 0 -9 -2 -9 -8 0 -6 9 -17 10 -40 4 -30 -9 -44 0 -22
14 15 9 12 25 -5 25 -8 0 -15 -6 -15 -13 0 -7 -9 -13 -20 -13 -15 0 -18 5 -13
25 4 18 3 22 -7 16 -9 -5 -10 -2 -5 15 5 15 4 20 -4 16 -6 -4 -11 0 -11 9 0
12 -6 15 -22 10 -16 -6 -20 -4 -15 8 8 21 -16 40 -31 25 -16 -16 -72 -18 -72
-2 0 19 38 41 95 55 28 6 68 18 90 25 50 16 95 17 95 4z m1580 -29 c0 -5 -7
-12 -16 -15 -14 -5 -15 -4 -4 9 14 17 20 19 20 6z m650 -35 c0 -28 -42 -69
-67 -64 -31 6 -28 45 7 79 25 25 33 29 45 19 8 -7 15 -22 15 -34z m-5119 -1
c0 -5 -9 -11 -21 -13 -20 -3 -27 8 -13 22 10 9 34 3 34 -9z m213 -11 c3 -8 1
-24 -4 -35 -9 -15 -22 -19 -69 -19 -43 0 -60 -4 -65 -15 -3 -8 -10 -15 -16
-15 -11 0 -14 83 -3 93 3 4 39 7 79 7 56 0 73 -3 78 -16z m176 5 c0 -23 -22
-49 -40 -49 -16 0 -20 7 -20 30 0 27 3 30 30 30 17 0 30 -5 30 -11z m4024 -13
c-6 -16 -24 -23 -24 -8 0 10 22 33 27 28 2 -2 1 -11 -3 -20z m813 2 c-3 -8 -6
-5 -6 6 -1 11 2 17 5 13 3 -3 4 -12 1 -19z m276 -21 c15 -10 18 -34 21 -160 3
-144 2 -149 -18 -157 -20 -7 -21 -3 -27 64 -10 108 -10 266 -1 266 5 0 16 -6
25 -13z m-1180 -27 c3 -11 2 -20 -3 -20 -4 0 -10 9 -13 20 -3 11 -2 20 3 20 4
0 10 -9 13 -20z m-43 -20 c0 -5 -8 -10 -17 -10 -10 0 -29 -3 -43 -6 -24 -5
-24 -5 -6 10 22 18 66 22 66 6z m-4000 -40 c0 -5 -12 -10 -26 -10 -14 0 -23 4
-19 10 3 6 15 10 26 10 10 0 19 -4 19 -10z m3904 -2 c-4 -7 -16 -25 -26 -40
-10 -14 -18 -34 -18 -45 0 -15 -2 -16 -10 -3 -11 18 -3 59 18 83 17 20 47 24
36 5z m456 -17 c13 -25 -8 -42 -22 -17 -24 42 -50 2 -40 -63 5 -37 36 -43 46
-9 4 17 8 20 17 11 19 -19 -7 -53 -41 -53 -35 0 -50 23 -50 75 0 20 5 45 10
56 14 26 66 26 80 0z m300 4 c0 -9 -10 -15 -25 -15 -16 0 -25 -6 -25 -15 0 -9
9 -15 25 -15 31 0 33 -17 3 -22 -17 -2 -22 -10 -23 -32 0 -16 -6 -31 -12 -33
-10 -4 -13 14 -13 65 0 38 2 71 4 73 3 2 18 5 35 6 21 2 31 -2 31 -12z m90 0
c0 -9 -9 -15 -25 -15 -16 0 -25 -6 -25 -15 0 -9 9 -15 25 -15 14 0 25 -4 25
-10 0 -5 -11 -10 -25 -10 -18 0 -25 -5 -25 -20 0 -16 7 -20 30 -20 l30 0 0 60
0 60 40 0 c45 0 54 -14 15 -24 -14 -4 -25 -11 -25 -16 0 -6 11 -10 25 -10 16
0 25 -6 25 -15 0 -9 -9 -15 -25 -15 -18 0 -25 -5 -25 -19 0 -15 6 -19 26 -18
15 1 29 -4 31 -10 3 -9 -10 -13 -44 -14 -26 0 -64 -2 -83 -4 -19 -2 -38 1 -42
8 -9 15 -10 121 -1 130 3 4 21 7 40 7 23 0 33 -5 33 -15z m-290 -14 c5 -11 10
-34 10 -51 0 -44 -17 -70 -45 -70 -28 0 -45 26 -45 70 0 44 17 70 45 70 14 0
29 -8 35 -19z m100 9 c0 -5 -11 -10 -25 -10 -16 0 -25 -6 -25 -15 0 -9 9 -15
25 -15 16 0 25 -6 25 -16 0 -10 -7 -14 -22 -12 -19 2 -23 -2 -23 -26 -1 -16
-6 -31 -13 -34 -9 -3 -12 16 -12 67 l0 71 35 0 c19 0 35 -4 35 -10z m-2250
-10 c0 -5 -5 -10 -11 -10 -5 0 -7 5 -4 10 3 6 8 10 11 10 2 0 4 -4 4 -10z
m1878 -55 c-3 -3 -9 2 -12 12 -6 14 -5 15 5 6 7 -7 10 -15 7 -18z m-1958 -24
c0 -6 -5 -13 -11 -17 -6 -3 -8 -18 -5 -33 3 -14 3 -20 0 -13 -3 6 -12 12 -19
12 -11 0 -11 6 3 30 17 29 32 39 32 21z m1820 -1 c0 -5 -4 -10 -10 -10 -5 0
-10 5 -10 10 0 6 5 10 10 10 6 0 10 -4 10 -10z m-774 -40 c8 0 14 -4 14 -10 0
-13 -11 -12 -32 4 -10 7 -14 16 -11 20 4 4 9 2 11 -3 2 -6 10 -11 18 -11z
m974 -55 c0 -5 -5 -3 -10 5 -5 8 -10 20 -10 25 0 6 5 3 10 -5 5 -8 10 -19 10
-25z m-95 5 c10 -11 13 -20 7 -20 -6 0 -16 9 -22 20 -6 11 -9 20 -7 20 2 0 12
-9 22 -20z m194 11 c9 -6 12 -19 8 -40 -4 -18 -2 -31 3 -31 14 0 12 -44 -2
-58 -7 -7 -27 -12 -45 -12 -31 0 -33 2 -34 38 0 20 -2 50 -4 66 -2 16 -2 33 1
38 7 11 55 10 73 -1z m311 -67 c0 -84 -10 -92 -42 -34 l-18 35 0 -38 c0 -27
-4 -37 -12 -35 -8 3 -14 29 -16 71 -4 81 16 91 47 25 l20 -43 -3 42 c-2 24 -1
45 2 48 16 16 22 -3 22 -71z m94 54 c15 -24 0 -34 -22 -15 -10 10 -22 14 -25
10 -14 -13 -6 -24 22 -34 37 -13 46 -35 25 -66 -12 -20 -21 -23 -42 -18 -28 7
-44 23 -39 39 6 17 27 18 27 1 0 -10 7 -15 17 -13 23 4 20 21 -7 35 -40 20
-48 43 -24 68 20 20 53 16 68 -7z m-294 2 c0 -5 -11 -10 -25 -10 -18 0 -25 -5
-25 -20 0 -15 7 -20 25 -20 14 0 25 -4 25 -10 0 -5 -11 -10 -25 -10 -18 0 -25
-5 -25 -20 0 -15 7 -20 30 -20 26 0 30 5 40 43 19 73 21 77 35 77 14 0 45 -85
45 -122 0 -24 -16 -23 -23 2 -3 11 -13 20 -22 20 -9 0 -19 -9 -22 -20 -4 -16
-14 -20 -53 -20 l-48 0 -4 63 c-2 34 -2 65 0 70 5 11 72 9 72 -3z m-214 -66
c-3 -8 -10 -13 -15 -10 -5 4 -4 16 2 31 9 18 13 20 15 9 2 -8 1 -22 -2 -30z
m-106 26 c0 -5 -2 -10 -4 -10 -3 0 -8 5 -11 10 -3 6 -1 10 4 10 6 0 11 -4 11
-10z m-2185 -10 c3 -5 2 -10 -4 -10 -5 0 -13 5 -16 10 -3 6 -2 10 4 10 5 0 13
-4 16 -10z m3252 -32 c-3 -8 -6 -5 -6 6 -1 11 2 17 5 13 3 -3 4 -12 1 -19z m6
-68 c-7 -28 -13 -25 -13 6 0 14 4 23 9 20 5 -3 7 -15 4 -26z m-582 -29 c1 -9
4 -5 9 9 l8 25 1 -27 c1 -19 -4 -28 -14 -28 -9 0 -15 10 -16 23 -1 21 -1 21
-8 -3 l-7 -25 -6 27 c-3 15 -3 30 0 33 8 8 32 -16 33 -34z m55 -1 c3 0 3 7 0
16 -4 12 -1 14 13 9 11 -3 22 -1 26 5 11 18 25 11 25 -14 0 -26 -16 -43 -28
-31 -4 4 -1 10 6 12 6 3 12 10 12 16 0 6 -10 1 -22 -10 -31 -26 -58 -19 -57
15 0 26 1 26 9 5 5 -13 12 -23 16 -23z m114 29 c0 -8 4 -8 15 1 35 29 48 -25
16 -67 -12 -15 -17 -31 -13 -41 5 -13 8 -11 10 11 2 15 8 27 13 27 6 0 9 -12
7 -27 -2 -20 -9 -28 -23 -28 -23 0 -34 40 -16 58 20 20 12 34 -14 29 -20 -3
-25 0 -25 15 0 11 3 23 7 26 10 11 23 8 23 -4z m-230 -30 c0 -21 -24 -26 -36
-7 -5 8 -2 9 9 5 11 -4 17 -1 17 9 0 9 -5 12 -12 8 -7 -4 -8 -3 -4 5 10 16 26
4 26 -20z m-250 -7 c0 -15 -2 -15 -10 -2 -13 20 -13 33 0 25 6 -3 10 -14 10
-23z m22 3 c-2 -14 -6 -25 -8 -25 -2 0 -4 11 -4 25 0 14 4 25 9 25 4 0 6 -11
3 -25z m45 -7 c-3 -7 -5 -2 -5 12 0 14 2 19 5 13 2 -7 2 -19 0 -25z m83 7 c0
-14 -2 -25 -4 -25 -2 0 -6 11 -8 25 -3 14 -1 25 3 25 5 0 9 -11 9 -25z m57 19
c-3 -3 -12 -4 -19 -1 -8 3 -5 6 6 6 11 1 17 -2 13 -5z m841 -51 c3 -19 -1 -23
-21 -23 -32 0 -51 22 -34 39 19 19 52 9 55 -16z m-1164 1 c42 -6 46 -9 46 -34
0 -27 -2 -28 -52 -28 -85 0 -269 -11 -278 -17 -5 -3 -11 -1 -14 4 -17 27 107
69 235 80 9 0 37 -2 63 -5z m496 -25 c6 -24 6 -23 14 6 l8 30 18 -25 19 -25
-6 25 c-6 22 -4 23 9 12 9 -7 18 -9 20 -5 3 4 3 2 1 -5 -1 -7 2 -22 7 -33 7
-13 7 -19 0 -19 -5 0 -10 6 -10 13 0 8 -4 7 -10 -3 -8 -12 -13 -13 -30 -2 -12
7 -20 8 -20 2 0 -14 -27 -12 -34 3 -5 10 -7 10 -12 0 -7 -16 -34 -17 -34 -1 0
9 -3 9 -12 0 -7 -7 -24 -12 -38 -12 -21 0 -25 5 -26 31 -2 25 2 30 20 27 14
-2 20 -9 18 -22 -2 -11 1 -15 7 -11 6 3 11 13 11 21 0 8 5 14 11 14 6 0 8 -7
5 -16 -3 -8 -2 -12 3 -9 5 3 12 -3 14 -12 3 -12 5 -9 6 8 2 46 31 52 41 8z
m-304 10 c3 -6 -3 -21 -15 -32 l-21 -21 0 25 c0 37 20 53 36 28z m38 3 c-6 -4
-11 -16 -11 -27 0 -11 5 -23 11 -27 7 -5 4 -8 -6 -8 -14 0 -18 8 -18 35 0 27
4 35 18 35 10 0 13 -3 6 -8z m56 -23 c0 -16 -4 -28 -9 -25 -8 5 -3 56 5 56 2
0 4 -14 4 -31z m50 20 c0 -5 -4 -8 -9 -4 -6 3 -14 -3 -20 -12 -9 -15 -10 -15
-11 -2 0 9 3 19 7 22 10 11 33 8 33 -4z m-228 -49 c5 0 8 9 8 19 0 11 4 22 9
26 11 6 26 -33 17 -42 -3 -4 -6 2 -7 13 0 17 -1 16 -9 -3 -10 -25 -25 -30 -36
-12 -4 8 -9 7 -15 -2 -6 -9 -9 -2 -9 21 l1 35 17 -27 c9 -16 20 -28 24 -28z
m158 40 c0 -5 -4 -10 -10 -10 -5 0 -10 5 -10 10 0 6 5 10 10 10 6 0 10 -4 10
-10z m73 -24 c7 -17 -20 -30 -29 -14 -4 7 -3 8 4 4 7 -4 12 -1 12 8 0 20 6 20
13 2z m-142 -58 c11 -21 11 -22 -4 -9 -10 7 -17 17 -17 22 0 15 9 10 21 -13z
m1118 -123 c17 -18 21 -29 13 -37 -12 -12 -87 56 -77 72 8 13 32 -1 64 -35z
m-159 -1 c0 -8 -4 -12 -10 -9 -5 3 -10 10 -10 16 0 5 5 9 10 9 6 0 10 -7 10
-16z m-5220 -4 c0 -5 -6 -10 -14 -10 -8 0 -18 5 -21 10 -3 6 3 10 14 10 12 0
21 -4 21 -10z m1330 -26 c0 -3 -25 -87 -55 -186 -30 -99 -55 -192 -55 -207 0
-21 -8 -31 -35 -44 -20 -9 -42 -17 -51 -17 -18 0 -15 12 47 199 26 79 46 148
43 153 -3 4 -16 1 -30 -8 -20 -13 -24 -14 -24 -2 0 19 120 118 142 118 10 0
18 -3 18 -6z m532 -26 c-7 -7 -12 -8 -12 -2 0 6 3 14 7 17 3 4 9 5 12 2 2 -3
-1 -11 -7 -17z m2965 -50 c-2 -13 -4 -5 -4 17 -1 22 1 32 4 23 2 -10 2 -28 0
-40z m518 -98 c3 -11 4 -24 0 -29 -3 -5 -1 -12 5 -16 12 -7 14 -25 3 -24 -5 0
-18 13 -31 29 -19 25 -21 32 -10 44 18 21 26 20 33 -4z m-4575 -25 c18 -22 3
-69 -39 -117 l-38 -42 31 -21 c26 -18 31 -27 30 -61 -2 -107 -116 -223 -256
-262 -49 -14 -49 2 1 27 93 48 161 131 161 197 0 53 -19 67 -75 54 -44 -10
-59 -3 -32 14 112 69 163 120 151 151 -14 36 -66 21 -118 -34 -47 -50 -64 -35
-25 21 39 54 96 88 149 88 30 0 52 -6 60 -15z m170 -18 c0 -19 -21 -37 -42
-37 -18 0 -25 29 -11 43 12 12 53 7 53 -6z m173 -13 c0 -10 -9 -51 -20 -91
-14 -56 -23 -74 -42 -83 -13 -6 -26 -9 -28 -6 -3 3 5 35 16 72 12 36 20 68 18
71 -8 7 -46 -52 -72 -111 -22 -49 -58 -86 -72 -73 -2 3 5 36 16 75 12 38 21
79 21 91 0 13 10 26 25 33 32 14 38 8 25 -28 -9 -24 -3 -20 39 25 49 52 77 62
74 25z m4235 -48 c3 -12 -1 -17 -10 -14 -7 3 -15 13 -16 22 -3 12 1 17 10 14
7 -3 15 -13 16 -22z m-4428 1 c0 -2 -11 -31 -25 -65 -14 -34 -25 -73 -25 -87
0 -17 -9 -29 -30 -40 -37 -19 -38 -12 -9 76 12 35 22 72 23 82 1 10 9 23 17
28 13 8 49 13 49 6z m4460 -143 c0 -8 -4 -12 -10 -9 -5 3 -10 10 -10 16 0 5 5
9 10 9 6 0 10 -7 10 -16z m-4170 -104 c0 -5 -4 -10 -10 -10 -5 0 -10 5 -10 10
0 6 5 10 10 10 6 0 10 -4 10 -10z m71 -26 c-16 -20 -20 -35 -16 -56 5 -21 3
-28 -9 -28 -9 0 -17 6 -17 13 -5 46 -7 55 -13 65 -3 6 -1 14 5 18 6 3 14 1 18
-5 5 -8 13 -5 26 9 26 29 31 16 6 -16z m-81 -12 c0 -20 -33 -102 -41 -102 -11
0 -12 -3 6 58 9 29 20 52 25 52 6 0 10 -4 10 -8z m-61 -66 c-14 -45 -25 -63
-34 -54 -4 3 1 22 9 42 10 24 11 36 4 36 -6 0 -3 9 8 21 24 27 30 9 13 -45z
m-50 -28 c-22 -44 -45 -63 -33 -27 4 13 8 34 9 46 1 12 8 29 15 38 24 29 31
-14 9 -57z m-229 32 c-11 -11 -21 -24 -21 -30 -6 -46 -41 -140 -60 -161 -11
-13 -19 -17 -16 -9 48 157 78 220 108 220 5 0 0 -9 -11 -20z m190 0 c0 -30
-27 -90 -41 -90 -6 0 -9 6 -6 14 3 8 11 33 17 55 11 43 30 56 30 21z m180 13
c-1 -15 -30 -46 -37 -40 -3 4 2 16 12 27 19 21 25 24 25 13z m-1250 -13 c0 -5
-2 -10 -4 -10 -3 0 -8 5 -11 10 -3 6 -1 10 4 10 6 0 11 -4 11 -10z m4854 4 c9
-3 16 -10 16 -16 0 -26 -77 -68 -126 -68 -27 0 -35 5 -40 24 -6 26 1 46 16 46
5 0 7 -6 4 -14 -10 -27 17 -28 38 -1 16 20 26 25 44 21 14 -4 24 -2 24 4 0 12
3 12 24 4z m-4028 -20 c-9 -8 -17 -21 -18 -27 0 -7 -2 -16 -2 -22 -1 -5 -5
-15 -8 -21 -4 -6 -16 -35 -28 -66 -11 -31 -28 -62 -37 -70 -15 -11 -16 -11 -9
7 34 83 44 113 40 118 -10 10 51 97 68 97 5 0 2 -7 -6 -16z m204 10 c0 -3 -5
-15 -12 -27 -7 -12 -13 -26 -14 -32 0 -5 -2 -15 -2 -22 -3 -19 -42 -37 -54
-25 -14 14 -1 65 23 91 18 19 59 30 59 15z m3000 -20 c0 -17 -17 -27 -25 -14
-4 6 -17 2 -33 -11 -24 -18 -27 -19 -30 -4 -6 27 18 46 54 43 19 -1 34 -8 34
-14z m-3990 -39 c0 -25 -4 -45 -9 -45 -10 0 -23 69 -15 82 13 21 24 4 24 -37z
m900 26 c0 -11 -14 -31 -32 -45 -18 -14 -29 -28 -25 -32 4 -4 17 1 28 12 22
19 22 19 10 -3 -13 -25 -45 -46 -55 -36 -16 16 -4 63 23 92 33 35 51 40 51 12z
m-280 -47 c0 -11 -6 -13 -19 -9 -29 9 -61 -38 -61 -91 0 -53 14 -56 37 -9 9
19 21 35 27 35 6 0 19 14 28 30 12 21 25 30 43 30 23 0 25 -3 19 -27 -14 -58
-34 -83 -66 -83 -12 0 -18 8 -19 23 0 14 -2 17 -6 7 -9 -26 -56 -70 -74 -70
-43 0 -32 81 18 139 35 41 73 54 73 25z m3478 -159 l-3 -100 -27 -3 c-26 -3
-28 -1 -29 37 -1 23 -3 46 -4 51 -1 6 -3 30 -4 55 -1 41 -3 45 -26 45 -18 0
-25 5 -25 20 0 13 7 20 19 20 10 0 25 7 32 16 7 9 22 20 34 24 17 6 21 2 28
-29 4 -19 6 -81 5 -136z m242 155 c0 -11 -11 -38 -25 -59 -25 -40 -65 -148
-65 -176 0 -10 -10 -15 -31 -15 -31 0 -31 0 -24 43 6 36 21 82 50 150 6 15 1
17 -39 17 -42 0 -46 2 -46 25 0 23 3 24 68 28 37 2 77 4 90 5 16 1 22 -3 22
-18z m-519 -2 c-1 -5 -3 -7 -4 -5 -2 1 -11 -4 -20 -12 -15 -11 -17 -11 -17 1
0 8 3 18 7 22 9 8 34 4 34 -6z m104 -25 c14 -21 25 -45 25 -54 0 -9 8 -19 19
-22 10 -2 23 -19 29 -37 10 -28 10 -31 -3 -20 -13 11 -14 10 -9 -4 3 -9 1 -16
-5 -16 -6 0 -11 10 -11 22 0 12 -3 19 -6 15 -12 -12 6 -57 20 -51 16 6 29 -33
14 -43 -7 -4 -8 -1 -4 6 5 8 1 14 -12 18 -20 5 -82 114 -82 145 0 7 -7 22 -15
32 -8 11 -15 26 -15 33 0 26 30 12 55 -24z m752 14 c4 -7 0 -8 -11 -4 -10 4
-22 7 -27 7 -5 0 -9 4 -9 9 0 12 38 2 47 -12z m-4923 -102 c-37 -35 -71 -62
-75 -59 -4 2 -15 -9 -25 -24 l-18 -27 -7 30 c-4 17 -7 39 -8 49 -1 18 0 18 18
2 23 -21 41 -13 41 18 0 17 6 22 22 22 15 -1 27 7 33 22 5 12 18 22 28 22 10
0 20 7 22 15 16 50 17 51 27 21 10 -27 7 -32 -58 -91z m4980 74 c15 -12 25
-24 22 -26 -3 -3 -19 6 -36 21 -37 31 -25 35 14 5z m-286 -11 c9 -9 12 -9 12
0 0 7 13 12 30 12 l30 0 0 -117 c0 -65 -4 -123 -8 -129 -12 -18 -49 -34 -79
-34 -33 0 -73 25 -73 46 0 17 56 20 62 2 8 -22 38 1 38 29 0 21 -3 24 -12 15
-7 -7 -25 -12 -41 -12 -23 0 -31 7 -44 37 -17 41 -13 124 8 149 14 17 61 18
77 2z m122 -13 c0 -8 -4 -17 -10 -20 -6 -4 -10 5 -10 20 0 15 4 24 10 20 6 -3
10 -12 10 -20z m103 -12 c10 -13 24 -23 32 -23 7 0 18 -7 25 -15 18 -22 29
-18 22 7 -5 21 -4 21 29 -4 19 -14 40 -23 48 -20 8 2 11 0 8 -5 -4 -6 -35 -8
-75 -5 -50 3 -72 1 -77 -8 -6 -10 -2 -11 17 -7 18 5 28 2 32 -8 3 -9 0 -15 -9
-15 -8 0 -15 -4 -15 -9 0 -12 -43 -22 -53 -12 -5 5 -4 18 2 29 8 15 8 23 0 28
-10 6 -40 66 -45 90 -3 19 39 2 59 -23z m167 -7 c0 -20 -13 -27 -29 -16 -9 5
-11 17 -7 34 6 24 8 25 21 12 8 -8 15 -21 15 -30z m-52 9 c1 -14 -3 -25 -8
-25 -6 0 -10 11 -10 25 0 14 4 25 8 25 4 0 9 -11 10 -25z m-4914 -68 c-3 -9
-10 -15 -15 -11 -5 3 -6 11 -2 17 4 6 6 25 6 42 l-2 30 10 -30 c5 -16 6 -38 3
-48z m3936 -3 c14 -35 3 -71 -23 -78 -30 -8 -33 1 -10 27 15 15 20 30 16 50
-7 34 4 35 17 1z m-2831 -15 c8 -23 5 -31 -15 -50 -13 -12 -24 -21 -25 -18 -5
42 -7 83 -4 89 10 16 35 4 44 -21z m317 -14 c-7 -28 8 -34 22 -9 7 12 14 14
27 7 15 -9 14 -12 -12 -31 -28 -20 -30 -20 -44 -4 -10 13 -11 23 -4 40 13 29
19 28 11 -3z m-1486 -39 c-15 -15 -23 0 -15 31 l7 28 9 -24 c6 -16 6 -28 -1
-35z m357 7 c-3 -10 -5 -2 -5 17 0 19 2 27 5 18 2 -10 2 -26 0 -35z m693 38
c0 -6 -4 -13 -10 -16 -5 -3 -10 1 -10 9 0 9 5 16 10 16 6 0 10 -4 10 -9z
m4115 -1 c3 -5 4 -14 0 -19 -7 -12 -65 7 -65 20 0 12 57 11 65 -1z m95 -15 c0
-28 -12 -32 -30 -10 -14 16 -6 35 16 35 8 0 14 -10 14 -25z m-750 -19 c0 -27
-15 -42 -25 -26 -8 13 3 50 16 50 5 0 9 -11 9 -24z m-3865 -15 c-9 -16 -25 -3
-18 15 4 10 9 12 15 6 6 -6 7 -15 3 -21z m266 -2 c20 -20 28 -96 9 -84 -6 4
-10 -5 -10 -21 0 -27 0 -27 -18 -8 -14 14 -15 20 -6 22 27 7 -21 80 -64 98
-25 10 -24 11 21 11 35 1 54 -4 68 -18z m125 -24 c-26 -48 -67 -59 -65 -17 0
11 3 12 6 5 6 -17 23 -17 23 0 0 17 40 60 48 52 3 -3 -2 -21 -12 -40z m-667
-5 c15 0 46 -12 68 -27 70 -45 61 -88 -12 -57 -20 8 -60 16 -90 17 -46 2 -55
5 -55 20 0 24 21 45 40 39 12 -4 13 -2 3 9 -7 7 -13 20 -12 29 0 11 4 9 16 -7
9 -14 26 -23 42 -23z m-409 12 c0 -11 -9 -27 -20 -37 -20 -18 -20 -17 -20 12
0 16 3 33 7 36 13 14 33 7 33 -11z m1265 8 c3 -5 1 -10 -4 -10 -6 0 -11 5 -11
10 0 6 2 10 4 10 3 0 8 -4 11 -10z m-418 -70 c10 -27 10 -30 -3 -20 -8 7 -14
18 -14 25 0 7 -10 25 -22 41 l-22 29 25 -22 c13 -12 30 -36 36 -53z m2738 33
c30 -31 59 -82 51 -90 -10 -11 -97 -6 -109 6 -8 8 -5 11 11 11 23 0 32 33 12
45 -6 4 -7 -1 -3 -12 3 -10 3 -15 -1 -12 -4 4 -11 21 -16 39 -9 32 -9 32 10
15 21 -19 28 -7 8 13 -8 8 -8 12 -1 12 5 0 23 -12 38 -27z m-163 -8 c12 -27
-2 -55 -28 -55 -23 0 -40 46 -24 65 18 22 39 18 52 -10z m-3476 0 c8 -20 -23
-66 -40 -59 -8 3 -16 -4 -20 -20 -9 -38 -26 -32 -26 9 0 30 3 34 23 32 17 -2
23 4 25 26 4 29 29 37 38 12z m1229 5 c-3 -5 -2 -10 4 -10 5 0 13 5 16 10 9
15 45 12 45 -4 0 -10 -17 -16 -52 -21 -29 -3 -62 -9 -73 -11 -11 -3 -2 6 20
20 45 29 49 30 40 16z m3734 -4 c8 -10 9 -16 1 -21 -13 -8 -30 3 -30 21 0 18
14 18 29 0z m352 -7 c8 -15 8 -19 0 -15 -6 4 -11 2 -11 -3 0 -6 6 -11 13 -11
9 0 12 -11 11 -35 -2 -26 0 -33 11 -28 12 4 15 -6 15 -55 l0 -60 -40 -4 c-37
-3 -40 -2 -40 22 0 14 9 40 20 58 12 19 16 31 10 27 -5 -3 -10 -1 -10 5 0 7
-8 9 -20 5 -28 -9 -48 35 -32 70 12 26 32 34 33 13 0 -7 4 -3 9 10 12 27 16
28 31 1z m-4969 -19 c-2 -16 -9 -30 -14 -30 -6 0 -8 -14 -4 -35 6 -29 4 -35
-10 -35 -14 0 -16 7 -11 51 5 42 20 69 43 79 0 0 -1 -13 -4 -30z m398 -40 c4
0 11 -7 14 -16 3 -8 2 -12 -4 -9 -6 3 -10 1 -10 -5 0 -7 -8 -9 -20 -5 -11 3
-20 2 -20 -3 0 -5 9 -12 21 -15 29 -8 21 -42 -10 -42 -14 0 -26 6 -29 13 -3 9
4 11 25 7 l28 -6 -28 16 c-34 20 -31 38 9 46 24 5 26 7 12 13 -11 5 -18 19
-18 35 0 42 15 48 18 7 2 -20 7 -36 12 -36z m1121 37 c12 -22 12 -22 -10 -3
-11 11 -21 23 -21 28 0 14 19 -1 31 -25z m591 11 c24 -11 57 -31 73 -42 17
-12 42 -27 56 -34 30 -16 33 -54 3 -58 -10 -2 -20 -8 -22 -13 -5 -16 -22 -13
-22 4 0 8 -6 12 -14 9 -9 -4 -13 2 -11 21 3 22 1 24 -12 14 -8 -7 -36 -14 -61
-16 -44 -3 -46 -2 -28 12 11 8 26 15 33 15 17 0 16 8 -2 27 -12 11 -19 12 -29
4 -7 -6 -16 -8 -19 -4 -4 3 -7 1 -7 -6 0 -8 -6 -11 -16 -7 -9 3 -12 2 -9 -5 9
-13 -27 -8 -37 6 -13 18 -9 58 9 77 22 24 63 23 115 -4z m-654 -13 c-3 -3 -9
2 -12 12 -6 14 -5 15 5 6 7 -7 10 -15 7 -18z m3212 14 c0 -7 8 -18 17 -25 25
-18 11 -26 -31 -19 -39 8 -47 28 -18 44 23 14 32 13 32 0z m-3290 -52 c16 -11
18 -16 7 -20 -8 -3 -18 -2 -24 1 -17 12 -34 52 -27 64 5 7 10 4 15 -9 4 -12
17 -28 29 -36z m2218 31 c2 -9 -4 -18 -13 -21 -11 -5 -15 0 -15 19 0 28 23 29
28 2z m-1948 -20 c20 -34 27 -78 12 -78 -10 0 -32 45 -32 65 0 7 -7 21 -16 29
-14 15 -14 16 0 16 9 0 25 -15 36 -32z m2840 23 c0 -25 -15 -41 -38 -41 l-25
0 24 24 c26 26 39 31 39 17z m-2765 -19 c-3 -3 -11 0 -18 7 -9 10 -8 11 6 5
10 -3 15 -9 12 -12z m2180 -8 c0 -12 -8 -20 -23 -22 -21 -3 -21 -2 -10 23 13
29 33 28 33 -1z m-2315 6 c0 -5 -7 -10 -16 -10 -8 0 -12 5 -9 10 3 6 10 10 16
10 5 0 9 -4 9 -10z m309 -36 c56 -48 72 -83 54 -118 -20 -37 -27 -32 -19 14 6
36 4 40 -14 40 -21 0 -60 19 -71 34 -4 4 -10 3 -13 -3 -10 -16 -26 -14 -26 4
0 8 4 15 10 15 5 0 7 13 4 29 -6 26 -4 29 14 24 12 -3 39 -20 61 -39z m1885
32 c20 8 68 -15 60 -28 -3 -4 -19 -8 -35 -8 -18 0 -32 -6 -36 -16 -3 -8 -12
-13 -19 -10 -8 3 -14 1 -14 -4 0 -6 -6 -10 -14 -10 -13 0 -13 4 0 28 7 15 14
35 14 46 0 14 3 16 14 7 7 -6 21 -8 30 -5z m-2609 -41 c1 -52 -10 -60 -18 -12
-4 25 6 57 17 57 0 0 1 -20 1 -45z m3023 31 c-10 -7 -18 -18 -18 -25 0 -13
-36 -51 -49 -51 -5 0 -11 -10 -14 -22 -4 -12 -9 -19 -12 -16 -21 21 58 128 95
128 12 -1 12 -3 -2 -14z m-4133 -25 c8 -18 16 -22 42 -19 17 2 29 0 27 -4 -3
-4 0 -8 5 -8 17 0 13 -37 -4 -44 -10 -3 -15 1 -15 14 0 12 -11 22 -35 30 -19
6 -33 15 -30 20 3 4 -3 14 -12 21 -15 12 -16 12 -10 -3 6 -18 -3 -24 -16 -11
-9 9 14 34 27 30 6 -2 16 -13 21 -26z m755 7 c0 -5 -9 -6 -20 -3 -11 3 -20 2
-20 -3 0 -6 11 -13 25 -16 27 -7 30 -13 16 -34 -10 -16 -42 -13 -48 5 -3 7 4
10 19 7 21 -5 20 -3 -4 11 -32 18 -35 30 -11 43 19 11 43 5 43 -10z m2321 8
c-9 -10 -8 -16 4 -26 20 -16 19 -36 -1 -44 -10 -4 -22 1 -30 11 -16 21 -18 47
-4 38 6 -3 10 0 10 9 0 12 11 21 29 25 2 1 -2 -5 -8 -13z m1186 -8 c27 -30 32
-48 22 -75 -6 -16 -17 -23 -34 -23 -26 0 -26 1 -23 60 1 33 5 60 9 60 3 0 15
-10 26 -22z m-3737 2 c0 -5 -2 -10 -4 -10 -3 0 -8 5 -11 10 -3 6 -1 10 4 10 6
0 11 -4 11 -10z m685 -18 c7 -20 -19 -47 -39 -39 -19 7 -21 38 -5 54 14 14 35
7 44 -15z m63 -5 c2 -15 -1 -27 -7 -27 -6 0 -11 9 -11 20 0 30 -18 24 -23 -7
-4 -27 -4 -27 -6 4 -2 49 41 58 47 10z m1457 -13 c8 -53 -3 -70 -42 -69 -24 0
-28 4 -31 33 -4 39 21 82 47 82 15 0 20 -10 26 -46z m73 13 c18 -17 31 -57 18
-57 -2 0 -11 -3 -20 -6 -9 -3 -16 -1 -16 6 0 6 -7 18 -15 26 -8 9 -15 27 -15
40 0 27 9 26 48 -9z m1492 23 c0 -5 -2 -10 -4 -10 -3 0 -8 5 -11 10 -3 6 -1
10 4 10 6 0 11 -4 11 -10z m40 -5 c0 -8 -4 -15 -10 -15 -5 0 -10 7 -10 15 0 8
5 15 10 15 6 0 10 -7 10 -15z m-3442 -36 c1 -30 -31 -59 -43 -39 -3 5 2 10 12
11 14 0 14 2 -4 9 -25 10 -30 29 -12 47 19 19 46 4 47 -28z m46 35 c10 -4 16
-18 16 -40 0 -31 -3 -34 -27 -33 l-28 1 25 8 c24 8 24 8 3 9 -17 1 -23 7 -23
24 0 34 8 41 34 31z m73 -5 c8 -8 13 -8 17 0 9 14 46 15 46 1 0 -5 -8 -7 -17
-4 -17 5 -17 5 0 -6 23 -15 22 -40 -3 -40 -11 0 -20 4 -20 10 0 5 8 7 18 4 14
-5 15 -4 2 5 -23 16 -50 14 -44 -4 4 -10 0 -15 -15 -15 -24 0 -36 21 -27 45 6
18 27 20 43 4z m130 -19 c-5 -34 -17 -35 -17 -1 0 19 4 30 10 26 5 -3 8 -15 7
-25z m1336 13 c29 -9 15 -93 -15 -93 -6 0 -7 8 -4 17 6 15 5 15 -13 -1 -18
-16 -21 -16 -50 -1 -39 19 -39 29 -1 67 21 21 36 28 48 23 9 -4 25 -10 35 -12z
m1061 -14 c27 -32 31 -45 19 -52 -5 -3 -20 15 -35 39 -31 51 -22 58 16 13z
m-2950 5 c9 -24 7 -44 -4 -44 -5 0 -10 9 -10 20 0 27 -18 25 -23 -2 -3 -20 -4
-21 -11 -5 -5 9 -6 24 -2 32 7 20 42 19 50 -1z m66 -25 c0 -36 -2 -40 -22 -37
-38 5 -37 78 2 78 17 0 20 -6 20 -41z m150 19 c0 12 5 22 10 22 16 0 11 -47
-6 -54 -23 -9 -34 2 -34 32 l1 27 14 -25 c14 -25 14 -25 15 -2z m-340 -1 c0
-8 4 -7 10 3 12 20 23 6 15 -19 -8 -27 -22 -27 -30 -1 -3 11 -13 20 -21 20 -8
0 -14 -9 -14 -20 0 -11 -4 -20 -10 -20 -5 0 -10 6 -10 14 0 10 -7 12 -22 8
-20 -5 -21 -6 -3 -12 13 -5 15 -9 6 -14 -26 -17 -58 24 -35 46 11 12 114 7
114 -5z m57 -24 c-3 -10 -5 -4 -5 12 0 17 2 24 5 18 2 -7 2 -21 0 -30z m1834
-3 c-10 -22 -21 -43 -24 -47 -13 -12 -7 28 8 57 23 45 37 36 16 -10z m989 14
c0 -8 -4 -12 -10 -9 -5 3 -10 13 -10 21 0 8 5 12 10 9 6 -3 10 -13 10 -21z
m-175 -32 c-22 -5 -27 1 -19 23 7 17 8 17 21 -1 12 -17 12 -19 -2 -22z m735
19 c7 -14 7 -22 -1 -27 -12 -7 -29 12 -29 34 0 19 18 14 30 -7z m1147 13 c-3
-3 -12 -4 -19 -1 -8 3 -5 6 6 6 11 1 17 -2 13 -5z m-4937 -8 c0 -3 -4 -8 -10
-11 -5 -3 -10 -1 -10 4 0 6 5 11 10 11 6 0 10 -2 10 -4z m1640 -17 c0 -11 -27
-12 -34 0 -3 4 -3 11 0 14 8 8 34 -3 34 -14z m260 -4 c0 -8 -7 -15 -15 -15 -8
0 -15 7 -15 15 0 8 7 15 15 15 8 0 15 -7 15 -15z m-1185 -5 c3 -5 1 -10 -4
-10 -6 0 -11 5 -11 10 0 6 2 10 4 10 3 0 8 -4 11 -10z m3720 -9 c-3 -6 -11
-11 -17 -11 -6 0 -6 6 2 15 14 17 26 13 15 -4z m-3834 -35 c18 -19 9 -41 -16
-41 -25 0 -26 8 -7 70 l6 20 4 -20 c2 -11 8 -24 13 -29z m939 34 c0 -5 -2 -10
-4 -10 -3 0 -8 5 -11 10 -3 6 -1 10 4 10 6 0 11 -4 11 -10z m400 -12 c0 -6 -6
-5 -15 2 -8 7 -15 14 -15 16 0 2 7 1 15 -2 8 -4 15 -11 15 -16z m2756 -6 c18
-16 37 -38 43 -50 9 -17 8 -22 -8 -27 -24 -7 -51 3 -45 18 2 7 0 18 -5 26 -8
12 -12 12 -25 2 -12 -10 -16 -10 -16 -2 0 7 -4 9 -10 6 -5 -3 -10 3 -10 14 0
24 10 27 29 9 11 -11 12 -9 6 10 -9 30 4 28 41 -6z m-4376 3 c0 -8 -4 -15 -10
-15 -5 0 -10 7 -10 15 0 8 5 15 10 15 6 0 10 -7 10 -15z m1345 9 c17 -7 50
-62 41 -71 -2 -3 -11 9 -20 25 -18 34 -46 49 -58 30 -4 -8 -8 -8 -8 -2 0 22
16 29 45 18z m-1460 -14 c3 -5 2 -10 -4 -10 -5 0 -13 5 -16 10 -3 6 -2 10 4
10 5 0 13 -4 16 -10z m820 -30 c7 -24 7 -24 -9 -5 -8 11 -16 27 -16 35 0 20
16 1 25 -30z m133 -26 c-3 -14 -10 -8 -27 26 l-23 45 27 -26 c16 -16 25 -34
23 -45z m75 26 c21 31 23 18 1 -15 -9 -14 -20 -22 -25 -19 -5 3 -9 0 -9 -5 0
-6 -5 -11 -12 -11 -9 0 -9 3 0 12 7 7 13 28 13 48 l2 35 6 -35 6 -35 18 25z
m1577 31 c0 -5 -9 -7 -20 -4 -11 3 -20 7 -20 9 0 2 9 4 20 4 11 0 20 -4 20 -9z
m-2885 -41 c8 -34 35 -41 35 -9 0 18 2 19 15 9 24 -20 18 -28 -27 -41 -24 -6
-47 -16 -51 -23 -6 -7 -7 -5 -3 6 3 9 -1 18 -9 20 -11 2 -10 10 2 40 17 43 28
42 38 -2z m1536 17 c-10 -9 -11 -8 -5 6 3 10 9 15 12 12 3 -3 0 -11 -7 -18z
m499 3 c0 -5 -4 -10 -10 -10 -5 0 -10 5 -10 10 0 6 5 10 10 10 6 0 10 -4 10
-10z m698 -4 c-7 -8 -15 -12 -17 -11 -5 6 10 25 20 25 5 0 4 -6 -3 -14z m182
4 c0 -5 -2 -10 -4 -10 -3 0 -8 5 -11 10 -3 6 -1 10 4 10 6 0 11 -4 11 -10z
m-2421 -51 c-12 -24 -29 -25 -29 -1 0 24 8 32 26 25 10 -4 11 -10 3 -24z
m1035 16 c3 -8 1 -15 -4 -15 -6 0 -10 7 -10 15 0 8 2 15 4 15 2 0 6 -7 10 -15z
m346 5 c0 -5 -7 -10 -15 -10 -8 0 -15 5 -15 10 0 6 7 10 15 10 8 0 15 -4 15
-10z m2646 -5 c14 -13 14 -16 0 -21 -24 -9 -50 0 -54 19 -4 22 33 23 54 2z
m-4646 -2 c0 -5 -5 -15 -10 -23 -8 -12 -10 -11 -10 8 0 12 5 22 10 22 6 0 10
-3 10 -7z m2030 -3 c0 -5 -2 -10 -4 -10 -3 0 -8 5 -11 10 -3 6 -1 10 4 10 6 0
11 -4 11 -10z m2330 1 c0 -4 -11 -6 -25 -3 -14 2 -25 6 -25 8 0 2 11 4 25 4
14 0 25 -4 25 -9z m-3875 -11 c3 -5 1 -10 -4 -10 -6 0 -11 5 -11 10 0 6 2 10
4 10 3 0 8 -4 11 -10z m-428 -38 c0 -27 -2 -28 -19 -13 -23 19 -23 28 0 34 9
3 17 5 18 6 0 0 1 -12 1 -27z m501 -7 c-3 -3 -9 2 -12 12 -6 14 -5 15 5 6 7
-7 10 -15 7 -18z m-538 -9 c0 -3 -4 -8 -10 -11 -5 -3 -10 -1 -10 4 0 6 5 11
10 11 6 0 10 -2 10 -4z m135 -6 c3 -5 1 -10 -4 -10 -6 0 -11 5 -11 10 0 6 2
10 4 10 3 0 8 -4 11 -10z"/>
<path d="M2670 3840 c-9 -6 -10 -10 -3 -10 6 0 15 5 18 10 8 12 4 12 -15 0z"/>
<path d="M3520 3826 c-20 -13 -59 -27 -88 -31 -29 -4 -52 -11 -52 -16 0 -16
-18 -9 -23 9 -3 9 -5 -29 -6 -85 0 -57 -5 -103 -10 -103 -5 0 -16 -3 -25 -6
-12 -5 -15 5 -18 48 l-3 53 -33 -63 c-18 -35 -40 -66 -48 -69 -11 -4 -29 9
-55 38 l-39 44 1 -45 c1 -67 1 -70 -20 -70 -18 0 -20 9 -23 98 -2 75 0 100 11
110 13 10 12 12 -2 12 -9 0 -17 -5 -17 -11 0 -6 -10 -9 -22 -6 -23 5 -335 -8
-394 -16 -17 -3 -50 -17 -73 -32 -49 -30 -65 -26 -32 8 13 15 19 30 15 40 -4
12 -1 17 11 17 9 0 14 4 11 9 -4 5 0 12 6 14 9 4 9 6 1 6 -18 1 -70 -46 -119
-110 -54 -71 -105 -177 -134 -280 -23 -84 -50 -274 -50 -354 l0 -54 33 6 c127
25 876 239 981 281 177 70 342 239 401 409 26 74 46 176 24 118 -17 -42 -49
-62 -49 -30 0 8 -4 15 -9 15 -4 0 -6 -22 -3 -50 4 -46 2 -52 -27 -79 -30 -28
-115 -56 -133 -45 -21 13 -6 34 25 34 33 0 77 23 77 41 0 6 -10 3 -22 -5 -12
-9 -37 -16 -55 -16 -38 0 -53 21 -53 74 0 28 -4 36 -18 36 -16 0 -18 -9 -17
-72 0 -72 0 -73 -27 -76 -28 -3 -28 -2 -28 52 0 35 -5 60 -15 70 -13 13 -11
16 23 27 20 7 48 13 62 14 28 1 100 41 100 56 0 11 1 12 -40 -15z m-532 -253
c2 -42 -1 -73 -7 -73 -5 0 -16 -3 -25 -6 -13 -5 -16 3 -16 49 0 61 -9 74 -40
57 -17 -9 -20 -21 -20 -70 0 -51 -3 -60 -21 -65 -11 -4 -22 -5 -25 -3 -2 2 -6
36 -10 75 -6 67 -5 71 15 78 13 4 25 4 28 1 3 -3 17 4 31 15 16 12 37 19 56
17 l31 -3 3 -72z m-410 0 c-2 -10 -20 -20 -48 -27 -29 -7 -46 -17 -48 -28 -3
-15 4 -18 35 -18 44 0 83 -23 83 -49 0 -34 -39 -70 -92 -86 -68 -20 -90 -19
-86 2 2 12 17 20 47 25 54 9 76 25 60 44 -7 8 -17 14 -23 13 -27 -3 -45 2 -67
20 -20 16 -21 21 -10 48 13 33 39 50 92 63 52 12 61 11 57 -7z m188 9 c6 -4
14 -35 17 -70 6 -59 5 -63 -16 -71 -12 -5 -26 -6 -30 -4 -5 3 -16 -2 -25 -10
-47 -42 -109 -12 -94 46 6 23 59 57 90 57 12 0 22 5 22 11 0 12 -40 8 -72 -6
-13 -5 -18 -3 -18 8 0 27 99 58 126 39z m772 -14 c20 -20 13 -36 -18 -43 -16
-4 -30 -11 -30 -17 0 -6 10 -8 25 -4 14 4 25 2 25 -4 0 -13 -63 -13 -76 0 -14
14 -76 -11 -70 -27 3 -7 -1 -13 -9 -13 -16 0 -20 26 -9 54 10 26 41 38 63 26
16 -8 25 -5 45 15 28 28 37 30 54 13z m-170 -26 c-20 -4 -25 -22 -7 -22 8 0 7
-6 -2 -16 -8 -9 -14 -22 -15 -28 -3 -32 -5 -36 -14 -36 -5 0 -10 11 -10 25 0
14 -6 25 -12 26 -10 0 -10 2 0 6 6 2 12 11 12 18 0 18 40 46 54 37 7 -4 4 -8
-6 -10z m-58 -11 c0 -5 -7 -12 -16 -15 -8 -3 -13 -10 -10 -15 3 -5 -1 -26 -8
-47 l-15 -39 -2 30 c-1 17 -1 39 0 49 2 27 51 62 51 37z m-160 -49 c0 -4 -13
-13 -30 -19 -29 -11 -56 -55 -44 -74 3 -5 1 -9 -5 -9 -35 0 -19 66 23 91 32
20 56 25 56 11z m90 -16 c0 -26 -13 -55 -26 -60 -11 -4 -12 -2 -4 14 11 21 3
53 -13 47 -6 -2 -16 -18 -22 -36 -6 -18 -14 -29 -18 -25 -24 24 26 86 62 77
12 -3 21 -10 21 -17z m195 4 c-3 -5 -11 -10 -16 -10 -6 0 -7 5 -4 10 3 6 11
10 16 10 6 0 7 -4 4 -10z m-433 -65 c-1 -5 -12 -10 -24 -10 -20 0 -25 -5 -47
-55 -7 -14 -9 -17 -6 -6 3 10 1 24 -4 30 -11 13 -4 26 24 43 23 14 61 13 57
-2z m-107 -40 c0 -14 -10 -23 -31 -30 -19 -6 -29 -15 -26 -24 3 -8 0 -11 -7
-7 -16 11 -13 47 6 68 22 24 58 20 58 -7z m240 15 c-27 -12 -43 -12 -25 0 8 5
22 9 30 9 10 0 8 -3 -5 -9z m260 -12 c-70 -55 -279 -122 -780 -249 -44 -11
-89 -23 -100 -26 -11 -3 -17 -3 -14 0 3 4 68 25 145 47 76 23 193 59 259 80
66 21 181 57 255 81 74 24 136 46 138 50 2 5 9 6 17 3 7 -3 30 4 52 15 50 26
62 26 28 -1z m-590 -18 c7 -11 -20 -66 -37 -76 -10 -6 -11 -4 0 7 17 18 15 59
-3 59 -17 0 -35 -30 -35 -61 0 -30 -6 -22 -13 18 -6 28 -3 35 21 47 32 18 58
20 67 6z m-205 -18 c0 -4 -15 -14 -32 -21 l-33 -13 31 -9 c26 -7 31 -13 26
-34 -2 -14 -5 -25 -6 -25 -1 0 -16 -4 -34 -9 -17 -5 -32 -6 -32 -1 0 5 12 10
27 12 18 2 29 10 31 22 3 14 0 17 -13 12 -24 -9 -56 11 -48 30 9 23 83 55 83
36z m95 -41 c-4 -23 -10 -41 -14 -41 -10 0 -7 63 4 79 12 21 17 4 10 -38z
m-56 12 c-1 -10 -4 -29 -8 -43 -7 -24 -7 -24 -14 9 -4 18 -4 37 -1 42 9 15 24
10 23 -8z m251 13 c0 -3 -4 -8 -10 -11 -5 -3 -10 -1 -10 4 0 6 5 11 10 11 6 0
10 -2 10 -4z"/>
<path d="M2686 3494 c-30 -29 -17 -60 18 -42 29 15 37 30 24 45 -14 17 -23 16
-42 -3z"/>
<path d="M3500 3545 c-10 -12 -10 -15 4 -15 9 0 16 7 16 15 0 8 -2 15 -4 15
-2 0 -9 -7 -16 -15z"/>
<path d="M3399 3514 c-12 -14 -11 -16 5 -13 11 2 21 10 24 17 5 17 -13 15 -29
-4z"/>
<path d="M2846 3354 c-5 -12 -2 -15 10 -10 8 3 18 6 20 6 2 0 4 5 4 10 0 16
-27 11 -34 -6z"/>
<path d="M2625 3810 c-3 -6 1 -7 9 -4 18 7 21 14 7 14 -6 0 -13 -4 -16 -10z"/>
<path d="M3660 3810 c0 -5 5 -10 10 -10 6 0 10 5 10 10 0 6 -4 10 -10 10 -5 0
-10 -4 -10 -10z"/>
<path d="M3550 3769 c-16 -28 -9 -63 14 -67 20 -4 44 14 32 25 -4 4 -12 1 -17
-7 -9 -12 -10 -11 -5 4 4 11 1 23 -6 27 -9 6 -9 11 1 23 9 10 9 16 3 16 -6 0
-16 -9 -22 -21z"/>
<path d="M3587 3777 c-3 -9 1 -21 9 -27 11 -10 14 -10 14 1 0 8 -4 20 -9 27
-7 11 -9 11 -14 -1z"/>
<path d="M3276 3765 c-3 -9 -10 -13 -16 -10 -6 4 -7 -1 -4 -12 5 -17 5 -17 -8
-1 -13 15 -15 15 -27 -4 -12 -20 -14 -20 -23 -4 -8 14 -12 15 -25 4 -12 -10
-17 -10 -27 2 -6 8 -17 16 -24 18 -7 1 11 -27 39 -63 29 -36 54 -65 56 -65 5
0 72 144 69 148 -2 1 -6 -4 -10 -13z m-95 -48 c-10 -9 -11 -8 -5 6 3 10 9 15
12 12 3 -3 0 -11 -7 -18z"/>
<path d="M4273 4144 c3 -3 1 -17 -4 -31 -8 -21 -6 -24 8 -21 10 2 17 11 17 21
-1 12 6 17 25 18 23 0 24 1 6 9 -23 10 -61 13 -52 4z"/>
<path d="M3975 4093 c-20 -15 -20 -15 3 -10 15 3 22 1 22 -9 0 -8 5 -14 10
-14 6 0 10 11 10 25 0 29 -16 32 -45 8z"/>
<path d="M4325 4100 c3 -5 18 -10 33 -9 24 0 25 1 7 9 -28 12 -47 12 -40 0z"/>
<path d="M4085 4090 c-3 -5 1 -10 10 -10 9 0 13 5 10 10 -3 6 -8 10 -10 10 -2
0 -7 -4 -10 -10z"/>
<path d="M4155 4090 c3 -5 8 -10 11 -10 2 0 4 5 4 10 0 6 -5 10 -11 10 -5 0
-7 -4 -4 -10z"/>
<path d="M4225 4060 c-3 -5 -1 -10 4 -10 6 0 11 5 11 10 0 6 -2 10 -4 10 -3 0
-8 -4 -11 -10z"/>
<path d="M4270 4060 c0 -5 6 -10 14 -10 8 0 18 5 21 10 3 6 -3 10 -14 10 -12
0 -21 -4 -21 -10z"/>
<path d="M4477 4034 c-11 -11 3 -24 18 -18 8 4 12 10 9 15 -6 11 -18 12 -27 3z"/>
<path d="M4225 4020 c-3 -5 -1 -10 4 -10 6 0 11 5 11 10 0 6 -2 10 -4 10 -3 0
-8 -4 -11 -10z"/>
<path d="M4610 4021 c0 -5 9 -7 20 -4 11 3 20 7 20 9 0 2 -9 4 -20 4 -11 0
-20 -4 -20 -9z"/>
<path d="M4378 4008 c9 -9 15 -9 24 0 9 9 7 12 -12 12 -19 0 -21 -3 -12 -12z"/>
<path d="M4270 3999 c0 -6 -6 -9 -14 -6 -8 3 -17 -1 -20 -8 -6 -18 23 -35 58
-35 16 0 26 -6 26 -15 0 -8 7 -15 15 -15 8 0 15 5 15 10 0 13 43 13 56 0 12
-12 74 -2 74 11 0 5 -19 7 -42 3 -40 -5 -42 -4 -24 10 19 15 18 16 -18 16 -25
0 -43 -6 -52 -17 -13 -17 -13 -17 -14 0 0 9 -6 17 -14 17 -21 0 -40 27 -24 33
8 4 7 6 -4 6 -10 1 -18 -4 -18 -10z"/>
<path d="M4080 3985 c0 -9 9 -15 21 -15 18 0 19 2 9 15 -7 8 -16 15 -21 15 -5
0 -9 -7 -9 -15z"/>
<path d="M4140 3996 c0 -2 7 -7 16 -10 8 -3 12 -2 9 4 -6 10 -25 14 -25 6z"/>
<path d="M4612 3989 c7 -5 -2 -11 -23 -17 l-34 -10 37 -1 c37 -1 66 -21 31
-21 -11 0 -24 -5 -30 -11 -5 -5 -24 -12 -42 -14 -28 -4 -30 -3 -16 11 8 9 15
17 15 19 0 9 -35 -9 -42 -21 -5 -8 -42 -12 -114 -13 -69 -1 -103 2 -99 9 3 6
0 7 -9 4 -9 -3 -16 -2 -16 4 0 5 -9 12 -20 15 -11 3 -20 1 -20 -4 0 -5 -7 -9
-16 -9 -8 0 -12 5 -9 10 10 17 -4 11 -25 -10 -26 -26 -25 -27 10 -22 19 3 30
0 30 -8 0 -7 -7 -10 -15 -6 -8 3 -28 0 -44 -7 -25 -11 -5 -12 132 -12 125 0
164 3 173 14 13 17 110 6 117 -14 10 -24 137 0 137 26 0 6 -4 8 -9 4 -5 -3
-12 -1 -16 5 -3 5 2 10 12 11 15 0 15 2 -4 11 -16 8 -26 7 -37 -3 -45 -41 -56
-47 -56 -30 0 5 9 13 20 16 11 3 20 13 20 21 0 8 8 18 18 21 9 4 28 15 41 25
l25 19 -67 -3 c-37 -1 -61 -5 -55 -9z m63 -9 c-3 -5 -13 -10 -21 -10 -8 0 -14
5 -14 10 0 6 9 10 21 10 11 0 17 -4 14 -10z"/>
<path d="M4088 3943 c7 -3 16 -2 19 1 4 3 -2 6 -13 5 -11 0 -14 -3 -6 -6z"/>
<path d="M3962 3921 c-10 -6 -8 -10 10 -15 19 -5 20 -8 8 -15 -8 -6 -12 -12
-9 -15 8 -9 27 8 31 29 3 21 -19 30 -40 16z"/>
<path d="M4115 3911 c-3 -6 -10 -9 -15 -6 -5 3 -11 1 -15 -5 -3 -5 0 -10 7
-10 18 0 44 18 36 25 -3 4 -9 1 -13 -4z"/>
<path d="M4085 3870 c3 -5 8 -10 11 -10 2 0 4 5 4 10 0 6 -5 10 -11 10 -5 0
-7 -4 -4 -10z"/>
<path d="M4368 3843 c7 -3 16 -2 19 1 4 3 -2 6 -13 5 -11 0 -14 -3 -6 -6z"/>
<path d="M4413 3843 c12 -3 17 -11 14 -23 -3 -12 0 -17 8 -14 7 3 15 14 18 25
4 16 0 19 -26 18 -19 -1 -24 -3 -14 -6z"/>
<path d="M3958 3833 c6 -2 18 -2 25 0 6 3 1 5 -13 5 -14 0 -19 -2 -12 -5z"/>
<path d="M4153 3833 c9 -2 23 -2 30 0 6 3 -1 5 -18 5 -16 0 -22 -2 -12 -5z"/>
<path d="M4168 3804 c-3 -2 -22 -5 -42 -6 -20 -1 -36 -5 -36 -10 0 -10 58 -9
84 1 12 4 15 10 9 14 -6 4 -12 4 -15 1z"/>
<path d="M4058 3783 c7 -3 16 -2 19 1 4 3 -2 6 -13 5 -11 0 -14 -3 -6 -6z"/>
<path d="M4555 3143 c-52 -10 -87 -27 -101 -48 -14 -22 -74 -305 -74 -352 0
-31 22 -38 71 -24 80 24 89 41 120 212 39 211 38 222 -16 212z"/>
<path d="M3345 2843 c-46 -11 -84 -36 -94 -61 -15 -39 -61 -286 -68 -364 -5
-63 -4 -68 14 -68 36 0 87 44 114 97 26 50 42 120 72 316 15 94 16 93 -38 80z"/>
<path d="M1657 2605 c-27 -7 -50 -15 -52 -17 -2 -2 -14 -65 -28 -142 l-24
-138 33 5 c54 9 101 36 113 65 11 31 41 188 41 220 0 25 -12 26 -83 7z"/>
<path d="M1575 2226 l-40 -13 -27 -158 c-15 -88 -26 -160 -24 -162 8 -8 92 17
115 35 21 15 29 35 43 103 9 46 20 112 24 147 l7 62 -29 -1 c-16 -1 -47 -7
-69 -13z"/>
<path d="M2185 2524 c-69 -24 -79 -45 -113 -225 -17 -90 -34 -185 -38 -211 -6
-47 -6 -48 20 -48 40 0 111 71 130 128 8 26 27 110 41 187 14 77 28 150 31
163 5 26 -11 28 -71 6z"/>
<path d="M295 2380 c-3 -5 1 -10 9 -10 9 0 16 5 16 10 0 6 -4 10 -9 10 -6 0
-13 -4 -16 -10z"/>
<path d="M247 2363 c-13 -13 -7 -21 13 -16 11 3 20 9 20 14 0 10 -24 12 -33 2z"/>
<path d="M4791 2324 c0 -11 3 -14 6 -6 3 7 2 16 -1 19 -3 4 -6 -2 -5 -13z"/>
<path d="M3415 2100 c3 -5 10 -10 16 -10 5 0 9 5 9 10 0 6 -7 10 -16 10 -8 0
-12 -4 -9 -10z"/>
<path d="M3495 2099 c7 -11 35 -12 35 -1 0 4 -9 8 -20 9 -11 1 -18 -2 -15 -8z"/>
<path d="M3554 2054 c5 -18 3 -24 -4 -19 -7 4 -6 -2 2 -14 13 -22 28 -28 28
-12 0 5 -6 12 -12 15 -7 3 -3 3 10 0 26 -6 42 21 22 39 -10 10 -12 7 -7 -13 6
-24 5 -24 -8 -6 -8 11 -15 23 -15 28 0 4 -5 8 -11 8 -7 0 -9 -10 -5 -26z"/>
<path d="M3296 2055 c-3 -8 -1 -15 4 -15 6 0 10 7 10 15 0 8 -2 15 -4 15 -2 0
-6 -7 -10 -15z"/>
<path d="M3500 2060 c0 -5 5 -10 10 -10 6 0 10 5 10 10 0 6 -4 10 -10 10 -5 0
-10 -4 -10 -10z"/>
<path d="M3401 2038 c-12 -19 -11 -23 5 -35 20 -15 40 -17 48 -4 3 4 -7 14
-22 21 -16 7 -22 15 -14 17 6 3 12 9 12 14 0 16 -15 10 -29 -13z"/>
<path d="M3451 1964 c0 -11 3 -14 6 -6 3 7 2 16 -1 19 -3 4 -6 -2 -5 -13z"/>
<path d="M3570 1969 c0 -5 5 -7 10 -4 6 3 10 8 10 11 0 2 -4 4 -10 4 -5 0 -10
-5 -10 -11z"/>
<path d="M3740 1968 c0 -11 12 -10 30 2 12 7 10 9 -8 7 -12 0 -22 -5 -22 -9z"/>
<path d="M3682 1939 c2 -7 10 -15 17 -17 8 -3 12 1 9 9 -2 7 -10 15 -17 17 -8
3 -12 -1 -9 -9z"/>
<path d="M3430 1929 c0 -5 5 -7 10 -4 6 3 10 8 10 11 0 2 -4 4 -10 4 -5 0 -10
-5 -10 -11z"/>
<path d="M3759 1927 c0 -1 -2 -12 -5 -24 -4 -22 -3 -22 16 -6 11 10 20 18 20
19 0 3 -30 14 -31 11z"/>
<path d="M3675 1910 c3 -5 8 -10 11 -10 2 0 4 5 4 10 0 6 -5 10 -11 10 -5 0
-7 -4 -4 -10z"/>
<path d="M3700 1901 c0 -11 26 -22 34 -14 3 3 3 10 0 14 -7 12 -34 11 -34 0z"/>
<path d="M3785 1870 c-3 -5 -2 -10 4 -10 5 0 13 5 16 10 3 6 2 10 -4 10 -5 0
-13 -4 -16 -10z"/>
<path d="M3855 1870 c3 -5 11 -10 16 -10 6 0 7 5 4 10 -3 6 -11 10 -16 10 -6
0 -7 -4 -4 -10z"/>
<path d="M3755 1840 c-3 -5 1 -10 9 -10 8 0 18 5 21 10 3 6 -1 10 -9 10 -8 0
-18 -4 -21 -10z"/>
<path d="M3778 1823 c-23 -6 -23 -26 1 -47 37 -33 84 7 49 42 -12 12 -20 13
-50 5z"/>
<path d="M3847 1764 c-8 -14 20 -54 37 -54 8 0 19 7 26 15 10 12 10 18 0 30
-14 17 -45 21 -35 5 3 -5 2 -10 -4 -10 -5 0 -11 5 -13 12 -3 8 -7 8 -11 2z"/>
<path d="M3955 1730 c-3 -5 1 -10 9 -10 9 0 16 5 16 10 0 6 -4 10 -9 10 -6 0
-13 -4 -16 -10z"/>
<path d="M3997 1653 c-4 -3 -7 -13 -7 -22 1 -13 3 -13 11 2 11 19 8 33 -4 20z"/>
<path d="M3975 1600 c3 -5 8 -10 11 -10 2 0 4 5 4 10 0 6 -5 10 -11 10 -5 0
-7 -4 -4 -10z"/>
<path d="M4956 2211 c-12 -19 -17 -96 -7 -111 17 -25 33 3 35 61 1 49 -13 75
-28 50z"/>
<path d="M4830 2195 c-13 -35 -13 -92 1 -101 19 -11 29 10 32 66 2 59 -16 79
-33 35z"/>
<path d="M2904 2129 c-28 -10 -35 -21 -24 -39 12 -19 42 -19 57 0 26 32 7 54
-33 39z"/>
<path d="M2935 2069 c-4 -6 -13 -8 -21 -5 -16 6 -19 -20 -3 -29 11 -7 49 22
49 37 0 12 -18 10 -25 -3z"/>
<path d="M3070 2050 c0 -5 7 -10 15 -10 8 0 15 5 15 10 0 6 -7 10 -15 10 -8 0
-15 -4 -15 -10z"/>
<path d="M2970 2000 c0 -5 5 -10 10 -10 6 0 10 5 10 10 0 6 -4 10 -10 10 -5 0
-10 -4 -10 -10z"/>
<path d="M4804 1955 c-8 -34 3 -75 21 -75 8 0 17 11 21 25 8 34 -3 75 -21 75
-8 0 -17 -11 -21 -25z"/>
<path d="M4700 1791 c0 -15 6 -21 21 -21 25 0 22 33 -4 38 -12 2 -17 -3 -17
-17z"/>
<path d="M4700 1725 c0 -18 5 -25 19 -25 23 0 34 23 18 39 -19 19 -37 12 -37
-14z"/>
<path d="M4907 1760 c-3 -11 -1 -20 4 -20 5 0 9 9 9 20 0 11 -2 20 -4 20 -2 0
-6 -9 -9 -20z"/>
<path d="M4775 1570 c-3 -5 -1 -10 4 -10 6 0 11 5 11 10 0 6 -2 10 -4 10 -3 0
-8 -4 -11 -10z"/>
<path d="M5301 674 c0 -11 3 -14 6 -6 3 7 2 16 -1 19 -3 4 -6 -2 -5 -13z"/>
<path d="M1506 684 c-10 -25 1 -29 14 -5 6 12 7 21 1 21 -5 0 -12 -7 -15 -16z"/>
<path d="M1490 634 c0 -17 22 -14 28 4 2 7 -3 12 -12 12 -9 0 -16 -7 -16 -16z"/>
<path d="M1420 648 c-12 -22 -12 -22 6 -6 10 10 15 20 12 24 -4 3 -12 -5 -18
-18z"/>
<path d="M1201 558 c-15 -41 3 -64 19 -24 5 15 10 34 10 42 0 25 -18 15 -29
-18z"/>
<path d="M4979 517 c-13 -29 1 -92 22 -92 16 0 24 53 15 91 -8 30 -23 31 -37
1z"/>
<path d="M5205 540 c3 -5 8 -10 11 -10 2 0 4 5 4 10 0 6 -5 10 -11 10 -5 0 -7
-4 -4 -10z"/>
<path d="M1857 243 c-12 -11 -8 -23 8 -23 8 0 15 7 15 15 0 16 -12 20 -23 8z"/>
<path d="M1540 225 c0 -8 5 -15 10 -15 6 0 10 7 10 15 0 8 -4 15 -10 15 -5 0
-10 -7 -10 -15z"/>
<path d="M1600 231 c0 -6 5 -13 10 -16 6 -3 10 1 10 9 0 9 -4 16 -10 16 -5 0
-10 -4 -10 -9z"/>
<path d="M1670 240 c0 -5 5 -10 10 -10 6 0 10 5 10 10 0 6 -4 10 -10 10 -5 0
-10 -4 -10 -10z"/>
<path d="M1305 229 c-10 -15 3 -25 16 -12 7 7 7 13 1 17 -6 3 -14 1 -17 -5z"/>
<path d="M2830 4160 c-19 -4 -27 -8 -18 -9 9 0 23 -4 31 -7 8 -3 17 2 20 10 4
9 5 15 4 15 -1 -1 -18 -5 -37 -9z"/>
<path d="M2975 4110 c3 -5 10 -10 16 -10 5 0 9 5 9 10 0 6 -7 10 -16 10 -8 0
-12 -4 -9 -10z"/>
<path d="M2103 4103 c9 -2 25 -2 35 0 9 3 1 5 -18 5 -19 0 -27 -2 -17 -5z"/>
<path d="M3048 4103 c7 -3 16 -2 19 1 4 3 -2 6 -13 5 -11 0 -14 -3 -6 -6z"/>
<path d="M2130 4080 c0 -6 7 -10 15 -10 8 0 15 2 15 4 0 2 -7 6 -15 10 -8 3
-15 1 -15 -4z"/>
<path d="M2990 4070 c-13 -8 -12 -10 3 -10 9 0 17 5 17 10 0 12 -1 12 -20 0z"/>
<path d="M2135 4040 c-3 -5 1 -10 9 -10 9 0 16 5 16 10 0 6 -4 10 -9 10 -6 0
-13 -4 -16 -10z"/>
<path d="M2895 4040 c-3 -5 3 -10 15 -10 12 0 18 5 15 10 -3 6 -10 10 -15 10
-5 0 -12 -4 -15 -10z"/>
<path d="M2020 4020 c0 -5 10 -10 23 -10 18 0 19 2 7 10 -19 13 -30 13 -30 0z"/>
<path d="M2028 3993 c7 -3 16 -2 19 1 4 3 -2 6 -13 5 -11 0 -14 -3 -6 -6z"/>
<path d="M2790 3990 c-9 -6 -10 -10 -3 -10 6 0 15 5 18 10 8 12 4 12 -15 0z"/>
<path d="M2205 3940 c4 -6 11 -8 16 -5 14 9 11 15 -7 15 -8 0 -12 -5 -9 -10z"/>
<path d="M2205 3900 c3 -5 13 -10 21 -10 8 0 14 5 14 10 0 6 -9 10 -21 10 -11
0 -17 -4 -14 -10z"/>
<path d="M2250 3899 c0 -5 5 -7 10 -4 6 3 10 8 10 11 0 2 -4 4 -10 4 -5 0 -10
-5 -10 -11z"/>
<path d="M2170 3889 c0 -5 5 -7 10 -4 6 3 10 8 10 11 0 2 -4 4 -10 4 -5 0 -10
-5 -10 -11z"/>
<path d="M2320 3865 c0 -8 5 -15 10 -15 6 0 10 7 10 15 0 8 -4 15 -10 15 -5 0
-10 -7 -10 -15z"/>
<path d="M2330 3825 c0 -8 5 -15 10 -15 6 0 10 7 10 15 0 8 -4 15 -10 15 -5 0
-10 -7 -10 -15z"/>
<path d="M5645 3011 c-3 -5 -1 -12 5 -16 5 -3 10 -3 10 2 0 4 5 1 10 -7 8 -12
10 -11 10 8 0 22 -23 31 -35 13z"/>
<path d="M5665 2940 c-3 -5 -1 -10 4 -10 6 0 11 5 11 10 0 6 -2 10 -4 10 -3 0
-8 -4 -11 -10z"/>
<path d="M5662 2891 c-11 -7 -11 -9 2 -14 10 -4 16 -1 16 8 0 17 -1 17 -18 6z"/>
<path d="M5849 2874 c18 -8 36 -13 39 -10 8 9 0 13 -38 19 l-35 6 34 -15z"/>
<path d="M5655 2840 c-4 -6 -2 -17 4 -24 9 -11 6 -15 -10 -19 -19 -5 -20 -8
-9 -22 12 -14 11 -18 0 -25 -9 -5 -20 -4 -29 3 -12 10 -14 8 -9 -11 4 -14 2
-20 -5 -15 -6 4 -8 -2 -4 -18 4 -13 7 -29 7 -35 0 -13 19 -16 94 -15 33 0 63
5 66 12 13 20 -2 53 -42 91 -21 21 -37 41 -37 45 6 36 -11 57 -26 33z m75
-120 c0 -5 -2 -10 -4 -10 -3 0 -8 5 -11 10 -3 6 -1 10 4 10 6 0 11 -4 11 -10z"/>
<path d="M5819 2823 c-1 -10 -2 -43 -3 -74 -1 -30 -6 -61 -11 -69 -11 -18 31
-48 61 -42 18 3 24 11 24 29 0 18 -4 24 -15 19 -12 -4 -15 3 -15 34 0 25 5 40
13 40 6 1 2 9 -11 20 -13 10 -22 27 -20 36 2 9 -3 19 -9 21 -7 3 -13 -4 -14
-14z"/>
<path d="M5917 2730 c10 -11 19 -20 21 -20 1 0 -2 9 -8 20 -6 11 -15 20 -20
20 -6 0 -2 -9 7 -20z"/>
<path d="M6001 2734 c0 -11 3 -14 6 -6 3 7 2 16 -1 19 -3 4 -6 -2 -5 -13z"/>
<path d="M5991 2681 c-10 -7 -11 -13 -2 -30 7 -11 10 -21 7 -21 -2 0 -11 -3
-20 -6 -11 -4 -14 0 -11 17 7 33 -3 41 -31 23 -22 -15 -23 -18 -8 -28 8 -7 14
-18 12 -26 -2 -11 8 -16 35 -18 l37 -3 0 50 c0 28 -1 51 -2 51 -2 0 -9 -4 -17
-9z"/>
<path d="M5865 2600 c-3 -5 3 -10 15 -10 12 0 18 5 15 10 -3 6 -10 10 -15 10
-5 0 -12 -4 -15 -10z"/>
<path d="M5695 2590 c-4 -6 -11 -7 -17 -4 -7 4 -8 2 -4 -4 4 -7 26 -12 49 -12
39 1 41 2 23 15 -23 17 -42 19 -51 5z"/>
<path d="M5912 2525 c-10 -21 -9 -27 3 -31 27 -11 45 3 36 28 -11 31 -26 33
-39 3z"/>
<path d="M5785 2510 c3 -5 8 -10 11 -10 2 0 4 5 4 10 0 6 -5 10 -11 10 -5 0
-7 -4 -4 -10z"/>
<path d="M5840 2120 c0 -5 14 -10 30 -10 17 0 30 5 30 10 0 6 -13 10 -30 10
-16 0 -30 -4 -30 -10z"/>
<path d="M410 1130 c-23 -18 -24 -20 -4 -20 20 0 44 17 44 32 0 13 -13 9 -40
-12z"/>
<path d="M80 1101 c0 -14 18 -23 31 -15 8 4 7 9 -2 15 -18 11 -29 11 -29 0z"/>
<path d="M260 1090 c0 -5 9 -10 20 -10 11 0 20 5 20 10 0 6 -9 10 -20 10 -11
0 -20 -4 -20 -10z"/>
<path d="M5 1070 c-4 -6 10 -10 34 -10 23 0 41 5 41 10 0 6 -15 10 -34 10 -19
0 -38 -4 -41 -10z"/>
<path d="M144 1053 c-29 -13 -68 -23 -96 -23 -36 0 -48 -4 -48 -15 0 -10 10
-15 28 -15 15 -1 38 -7 52 -15 19 -10 28 -11 38 -2 8 6 45 12 84 12 57 2 73 6
91 23 l21 22 -21 0 c-11 0 -26 6 -32 14 -20 24 -64 23 -117 -1z"/>
<path d="M510 1060 c0 -5 -5 -10 -11 -10 -24 0 -59 -45 -59 -77 0 -18 5 -33
10 -33 6 0 10 10 10 21 0 17 3 19 13 10 17 -14 27 -5 27 24 0 13 7 28 15 35
17 14 20 40 5 40 -5 0 -10 -4 -10 -10z"/>
<path d="M380 1020 c-11 -11 -20 -28 -21 -37 0 -16 -1 -16 -8 0 -6 17 -8 17
-20 3 -7 -9 -19 -16 -25 -16 -25 0 -56 -46 -56 -81 0 -20 3 -38 6 -42 13 -12
34 6 34 30 0 22 2 24 15 13 22 -18 45 4 46 44 0 17 3 25 6 19 7 -20 41 -15 53
6 13 25 13 68 0 76 -5 3 -18 -3 -30 -15z m-70 -94 c0 -3 -4 -8 -10 -11 -5 -3
-10 -1 -10 4 0 6 5 11 10 11 6 0 10 -2 10 -4z"/>
<path d="M0 950 c0 -5 16 -10 35 -10 19 0 35 5 35 10 0 6 -16 10 -35 10 -19 0
-35 -4 -35 -10z"/>
<path d="M100 950 c-20 -7 -16 -8 22 -9 26 -1 50 4 53 9 7 12 -38 12 -75 0z"/>
<path d="M510 921 c0 -5 -9 -11 -20 -14 -11 -3 -20 -12 -20 -21 0 -10 -6 -13
-15 -10 -12 5 -15 -4 -15 -50 0 -31 3 -56 8 -56 4 0 26 17 49 38 41 35 42 39
37 80 -4 23 -11 42 -15 42 -5 0 -9 -4 -9 -9z m10 -61 c0 -5 -5 -10 -11 -10 -5
0 -7 5 -4 10 3 6 8 10 11 10 2 0 4 -4 4 -10z m-45 -39 c3 -5 1 -12 -5 -16 -5
-3 -10 1 -10 9 0 18 6 21 15 7z"/>
<path d="M58 913 c-33 -2 -58 -9 -58 -15 0 -7 20 -9 61 -4 34 3 77 6 96 6 20
0 32 4 28 10 -3 6 -21 9 -38 8 -18 -1 -58 -3 -89 -5z"/>
<path d="M207 893 c-4 -3 -7 -26 -7 -50 0 -37 3 -44 18 -41 22 4 32 98 9 98
-7 0 -17 -3 -20 -7z"/>
</g>
</svg>
