<?xml version="1.0" standalone="no"?>
<!DOCTYPE svg PUBLIC "-//W3C//DTD SVG 20010904//EN"
 "http://www.w3.org/TR/2001/REC-SVG-20010904/DTD/svg10.dtd">
<svg version="1.0" xmlns="http://www.w3.org/2000/svg"
 width="520.000000pt" height="520.000000pt" viewBox="0 0 520.000000 520.000000"
 preserveAspectRatio="xMidYMid meet">

<g transform="translate(0.000000,520.000000) scale(0.100000,-0.100000)"
fill="#000000" stroke="none">
<path d="M883 5075 c-9 -19 -20 -35 -24 -35 -4 0 -16 14 -26 30 -20 34 -38 39
-46 11 -8 -32 3 -389 13 -414 5 -12 9 -16 9 -9 1 8 20 12 64 11 36 0 54 -3 44
-8 -17 -6 -18 -8 -3 -21 10 -7 15 -19 12 -27 -3 -7 -1 -13 4 -13 6 0 10 -5 10
-11 0 -8 -5 -8 -15 1 -8 7 -15 21 -15 31 0 11 -7 19 -15 19 -12 0 -12 -5 3
-35 9 -19 20 -35 25 -35 4 0 21 -13 38 -29 17 -17 44 -33 60 -36 51 -11 46
-27 -7 -24 -44 4 -49 2 -49 -16 0 -35 88 -46 135 -16 17 11 19 83 3 88 -8 3
-8 14 -2 35 10 36 5 48 -20 48 -19 0 -25 29 -7 31 6 1 0 5 -14 9 -14 4 269 8
628 9 l652 1 0 -65 0 -65 63 0 c34 0 78 4 98 9 50 11 66 0 53 -36 -8 -23 -16
-29 -47 -31 -34 -3 -37 -1 -37 22 0 20 -5 26 -21 26 -14 0 -19 -5 -16 -14 3
-8 3 -17 -1 -20 -3 -4 -7 -17 -9 -30 -3 -20 2 -24 38 -29 56 -7 105 2 125 24
9 10 19 39 21 63 3 25 9 43 14 40 5 -3 9 3 9 13 1 14 4 13 15 -7 9 -17 12 -41
8 -75 -5 -48 -4 -51 23 -60 28 -10 26 -11 -51 -42 -120 -46 -122 -47 -128 -23
-7 29 -31 25 -60 -10 -25 -29 -39 -38 -35 -22 9 45 -70 60 -90 17 -13 -28 -1
-72 21 -81 12 -4 14 -24 7 -59 -5 -24 1 -34 18 -29 14 5 15 4 2 -5 -10 -7
-159 -11 -465 -11 -515 0 -593 -8 -713 -69 -24 -12 -48 -19 -54 -15 -6 4 -8 3
-4 -4 3 -6 -2 -13 -12 -16 -9 -3 -44 -32 -75 -64 l-58 -58 -4 -409 c-3 -224
-7 -410 -10 -413 -3 -3 -5 143 -5 325 0 381 -13 492 -50 424 -5 -11 -18 -27
-27 -37 -15 -14 -18 -33 -16 -98 1 -45 9 -601 18 -1236 18 -1200 17 -1240 -21
-1575 -19 -171 -24 -193 -46 -236 -16 -32 -19 -68 -24 -305 l-5 -269 21 24 21
24 28 -33 c27 -32 29 -33 39 -15 30 52 30 52 60 16 l29 -35 19 32 c10 18 22
32 26 32 4 0 15 -13 25 -30 22 -38 30 -38 51 0 9 16 20 30 23 30 3 0 15 -14
28 -31 18 -24 25 -28 37 -18 8 6 14 17 14 25 0 29 24 26 50 -6 l27 -33 19 29
c10 16 19 31 21 33 2 3 16 -11 32 -29 l28 -34 17 32 c9 18 20 32 24 32 5 0 19
-14 32 -32 l23 -31 18 21 c9 12 20 28 22 35 3 7 16 -1 34 -22 l30 -35 19 32
c10 18 22 32 26 32 4 0 15 -13 25 -30 20 -35 28 -37 42 -12 29 49 29 49 60 12
l29 -35 18 32 c11 18 22 33 25 33 3 0 17 -16 31 -35 l25 -35 19 35 c10 19 21
35 23 35 3 0 17 -14 31 -32 l27 -32 17 32 c9 18 19 32 23 32 4 0 19 -14 33
-32 l27 -32 19 32 c23 40 30 40 52 2 21 -37 27 -37 49 0 22 37 27 37 50 0 21
-37 28 -37 50 -2 9 15 18 29 20 31 2 3 16 -10 32 -29 l28 -34 18 30 c11 16 20
31 22 33 2 3 16 -11 32 -30 l29 -34 18 32 c11 18 22 33 26 33 4 0 15 -13 25
-30 22 -38 29 -38 48 0 9 17 18 30 22 30 4 0 19 -14 33 -32 l27 -32 17 32 c9
18 20 32 24 32 4 0 19 -14 34 -32 l26 -33 19 33 c10 17 20 32 23 32 3 0 14
-14 25 -30 25 -37 31 -37 50 0 9 16 19 30 23 30 5 0 19 -14 32 -32 l23 -31 18
21 c9 12 20 28 22 35 3 7 16 -1 34 -22 l30 -35 18 30 c11 16 20 31 22 33 1 2
14 -8 27 -22 31 -33 39 -34 56 -2 17 31 24 31 44 0 15 -23 46 -35 46 -17 0 5
6 17 14 28 14 18 16 18 44 -15 l29 -35 19 32 c10 18 22 32 26 32 4 0 15 -14
25 -30 19 -34 33 -34 49 -2 18 37 23 37 53 1 l29 -34 18 32 c11 18 22 33 26
33 4 0 15 -13 25 -30 22 -38 30 -38 51 0 21 37 27 37 49 0 22 -38 29 -38 48 0
19 38 29 38 52 0 22 -37 27 -37 50 0 9 17 20 30 23 30 4 0 17 -14 30 -32 22
-30 24 -30 37 -12 8 10 18 25 22 33 6 10 14 7 34 -13 32 -32 43 -33 58 -3 18
33 18 33 43 2 l23 -29 27 29 c15 16 30 25 35 19 4 -5 17 -21 28 -36 l20 -27
19 34 c10 19 22 35 26 35 4 0 15 -13 25 -30 9 -16 21 -30 25 -30 5 0 7 915 6
2033 l-3 2032 -235 2 c-129 1 -347 2 -485 3 -142 1 -239 5 -225 10 14 4 42 8
63 9 36 1 38 3 35 29 -2 22 -7 26 -25 24 -28 -4 -30 14 -3 21 13 3 20 14 20
30 0 22 -5 26 -37 30 -35 3 -35 4 9 5 41 2 46 4 43 22 -5 28 -14 40 -29 40 -7
0 -22 11 -34 25 -12 14 -17 25 -12 25 6 0 10 7 10 15 0 10 -10 15 -27 16 -25
0 -25 1 -8 8 11 5 23 7 27 5 12 -7 38 40 38 68 0 18 -10 36 -25 50 -19 16 -22
24 -13 31 8 5 5 6 -9 2 -14 -4 -23 -2 -23 4 0 6 12 12 28 12 l27 1 -30 8 c-16
4 166 9 405 10 239 2 442 4 450 5 8 1 27 3 43 4 l27 1 0 198 c-1 178 -2 195
-16 177 -15 -20 -15 -20 -34 5 -11 14 -20 28 -20 33 0 17 -22 5 -38 -23 -21
-37 -27 -37 -49 0 -9 17 -22 30 -28 30 -5 0 -16 -13 -23 -30 -8 -16 -17 -30
-22 -30 -5 0 -18 16 -31 36 l-22 36 -20 -34 c-11 -18 -22 -35 -24 -37 -2 -3
-16 11 -32 30 l-29 34 -18 -32 c-11 -18 -22 -33 -25 -33 -3 0 -17 16 -32 36
l-25 36 -17 -33 c-10 -19 -19 -36 -21 -38 -3 -3 -17 11 -33 30 l-29 34 -18
-32 c-11 -18 -22 -33 -26 -33 -4 0 -15 14 -25 30 -22 38 -30 38 -51 0 -21 -37
-27 -37 -49 0 -20 35 -28 37 -42 13 -29 -50 -29 -50 -60 -13 l-29 35 -18 -32
c-11 -18 -22 -33 -26 -33 -4 0 -15 14 -25 30 -22 38 -30 38 -51 0 -9 -16 -20
-30 -23 -30 -3 0 -18 16 -32 37 l-26 36 -17 -36 c-10 -21 -21 -37 -25 -37 -4
0 -16 14 -26 30 -22 38 -30 38 -51 0 -21 -37 -27 -37 -49 0 -9 17 -22 30 -28
30 -5 0 -16 -13 -23 -30 -17 -39 -26 -38 -52 5 -24 39 -32 39 -50 -5 -16 -38
-24 -38 -47 0 -9 17 -21 30 -25 30 -4 0 -15 -13 -25 -30 -9 -16 -21 -30 -25
-30 -4 0 -15 14 -25 30 -9 17 -23 30 -29 30 -6 0 -17 -13 -24 -30 -7 -16 -15
-30 -18 -30 -3 0 -18 14 -32 32 l-27 32 -19 -32 c-10 -18 -21 -32 -25 -32 -4
0 -17 16 -30 36 l-22 37 -21 -37 c-12 -19 -24 -36 -28 -36 -4 0 -15 14 -25 30
-22 38 -30 38 -51 0 -9 -16 -20 -30 -24 -30 -3 0 -16 16 -28 35 -12 19 -23 35
-26 35 -2 0 -11 -15 -20 -32 -9 -18 -18 -35 -20 -37 -3 -3 -17 10 -33 29 l-28
34 -19 -32 c-10 -18 -21 -32 -25 -32 -4 0 -17 16 -30 36 l-22 36 -20 -34 c-11
-18 -22 -35 -24 -37 -2 -3 -16 11 -32 30 l-29 34 -18 -32 c-11 -18 -22 -33
-26 -33 -3 0 -16 16 -29 36 l-22 37 -19 -37 c-22 -43 -30 -44 -52 -11 -9 14
-23 25 -31 25 -9 0 -21 -11 -27 -25 -15 -32 -23 -32 -45 5 -9 17 -21 30 -25
30 -4 0 -15 -13 -25 -30 -9 -16 -21 -30 -25 -30 -4 0 -15 14 -25 30 -22 38
-30 38 -51 0 -21 -37 -27 -37 -49 0 -22 38 -30 38 -51 0 -9 -16 -20 -30 -24
-30 -3 0 -16 16 -29 36 l-22 37 -21 -37 c-12 -19 -24 -36 -28 -36 -4 0 -15 14
-25 30 -9 17 -21 30 -25 30 -4 0 -15 -13 -25 -30 -9 -16 -20 -30 -24 -30 -4 0
-17 16 -30 36 l-22 37 -21 -37 c-12 -19 -24 -36 -28 -36 -4 0 -15 14 -25 30
-20 35 -28 37 -42 13 -29 -50 -29 -50 -60 -13 l-29 35 -18 -32 c-23 -39 -27
-40 -48 -8 -9 14 -23 25 -31 25 -9 0 -21 -11 -27 -25 -15 -33 -22 -32 -48 10
-12 19 -24 35 -26 35 -2 0 -12 -16 -21 -35z m2863 -233 c-9 -2 -25 -2 -36 0
-20 3 -20 4 -4 27 l17 24 20 -24 c17 -21 17 -24 3 -27z m-1091 -212 c-3 -5
-12 -10 -18 -10 -7 0 -6 4 3 10 19 12 23 12 15 0z m682 -71 c-1 -22 -30 -43
-49 -37 -14 5 -20 38 -7 38 5 0 9 -5 9 -11 0 -8 5 -8 15 1 8 7 12 16 9 21 -3
5 2 9 10 9 9 0 14 -8 13 -21z m113 -3 c0 -9 -8 -12 -25 -8 -14 2 -25 8 -25 13
0 5 11 9 25 9 14 0 25 -6 25 -14z m-602 -48 l3 -46 -58 -12 c-32 -6 -64 -13
-70 -15 -10 -3 -13 13 -13 61 l0 65 68 -3 67 -3 3 -47z m117 32 c3 -5 1 -10
-4 -10 -6 0 -11 5 -11 10 0 6 2 10 4 10 3 0 8 -4 11 -10z m170 0 c-3 -5 -14
-10 -23 -10 -15 0 -15 2 -2 10 20 13 33 13 25 0z m-217 -55 c-3 -3 -9 2 -12
12 -6 14 -5 15 5 6 7 -7 10 -15 7 -18z m557 -85 c3 -6 -1 -7 -9 -4 -18 7 -21
14 -7 14 6 0 13 -4 16 -10z m-1115 -70 c0 -11 -4 -20 -10 -20 -5 0 -10 9 -10
20 0 11 5 20 10 20 6 0 10 -9 10 -20z m1126 -688 c1 -7 0 -8 -3 -2 -2 5 -9 10
-14 10 -6 0 -8 -4 -5 -9 3 -5 -1 -14 -8 -20 -12 -10 -14 -8 -9 11 4 18 3 20
-6 8 -6 -8 -11 -10 -11 -4 0 26 51 32 56 6z m-109 -18 c95 -59 86 -335 -13
-413 -62 -49 -162 -50 -207 -3 -37 39 -50 96 -45 198 4 99 21 145 71 194 48
47 139 58 194 24z m-287 -53 c0 -28 -5 -40 -17 -44 -10 -2 -33 -34 -51 -69
l-33 -65 51 -77 c28 -42 55 -76 60 -76 6 0 10 -18 10 -39 0 -44 -3 -45 -103
-57 l-57 -7 0 36 c0 37 -27 107 -42 107 -4 0 -8 -16 -8 -35 0 -19 5 -35 10
-35 6 0 10 -18 10 -40 0 -38 -1 -39 -37 -45 -21 -3 -57 -10 -80 -16 -23 -5
-44 -9 -47 -9 -3 0 -6 20 -6 45 0 25 5 45 10 45 6 0 10 55 10 145 0 90 -4 145
-10 145 -5 0 -10 18 -10 40 0 43 -2 41 85 55 22 4 50 9 63 12 20 5 22 2 22
-40 0 -25 -4 -49 -10 -52 -12 -7 -14 -75 -2 -75 15 0 52 90 52 125 0 37 7 44
54 56 68 16 76 13 76 -30z m-402 -213 c2 -158 5 -188 17 -188 10 0 15 -11 15
-34 0 -34 0 -34 -63 -45 -107 -19 -117 -17 -117 23 0 21 6 36 15 40 12 4 15
31 15 151 0 122 -2 145 -15 145 -11 0 -15 11 -15 39 l0 39 53 10 c99 19 92 33
95 -180z m-201 128 c25 -22 28 -31 31 -104 6 -122 -26 -167 -127 -179 l-51 -6
0 -38 c0 -26 4 -38 13 -36 7 1 13 -12 15 -34 3 -36 2 -37 -45 -48 -26 -6 -66
-12 -88 -13 -39 -3 -40 -2 -43 31 -2 23 2 37 12 43 23 13 24 286 1 294 -10 4
-15 20 -15 45 0 32 3 39 20 39 11 0 21 1 23 2 1 0 36 7 77 13 117 20 145 18
177 -9z m-400 -47 c12 -5 35 -27 50 -50 26 -39 28 -49 27 -138 -1 -150 -48
-235 -146 -262 -81 -21 -150 12 -178 86 -20 51 -15 206 8 256 48 106 136 146
239 108z m-281 -44 c9 -22 -4 -65 -19 -65 -7 0 -27 -29 -44 -64 -28 -56 -30
-68 -20 -90 7 -14 15 -26 20 -26 4 0 7 -4 7 -10 0 -14 62 -100 73 -100 4 0 7
-17 5 -37 -3 -40 -5 -41 -114 -58 l-41 -6 -5 48 c-3 27 -13 62 -24 78 l-19 29
-3 -33 c-2 -19 2 -37 8 -41 6 -4 10 -24 8 -46 l-3 -38 -65 -12 c-102 -20 -110
-19 -110 15 0 16 7 36 15 45 23 22 22 306 -1 306 -11 0 -14 9 -12 37 3 41 8
43 124 58 l54 6 0 -40 c0 -23 -4 -41 -10 -41 -5 0 -10 -24 -10 -52 l0 -53 30
52 c21 37 30 66 30 97 0 43 1 45 33 49 69 8 88 7 93 -8z m-821 -977 c2 -293 8
-576 13 -628 4 -52 9 -84 10 -71 1 13 5 21 9 17 4 -4 6 -48 5 -98 -2 -54 1
-88 6 -84 13 8 22 -85 11 -106 -5 -10 -6 -18 -2 -18 4 0 8 -15 9 -33 l1 -32
-14 30 -13 30 5 -35 c5 -26 4 -31 -4 -20 -8 11 -9 7 -5 -17 4 -21 2 -39 -7
-49 -14 -17 -15 -21 -25 -102 -4 -28 -10 -52 -15 -52 -5 0 -9 -9 -9 -21 0 -11
4 -18 9 -15 5 4 4 -5 -2 -18 -8 -17 -14 -21 -20 -13 -4 7 -7 2 -6 -13 3 -41 0
-62 -10 -56 -5 3 -9 -4 -9 -17 0 -25 -21 -150 -27 -155 -14 -14 10 179 36 298
l33 145 3 839 c2 461 7 836 10 833 3 -3 7 -246 8 -539z m28 187 c3 -63 2 -101
-3 -90 -6 14 -9 -2 -9 -49 -1 -38 -4 -67 -7 -63 -3 3 -3 76 1 162 4 86 9 155
10 153 1 -2 5 -52 8 -113z m509 8 c22 -19 23 -51 4 -79 -13 -18 -13 -22 5 -34
26 -19 25 -71 -1 -95 -14 -12 -41 -20 -80 -23 l-60 -4 0 126 0 126 57 0 c38 0
62 -5 75 -17z m138 -119 l0 -97 40 6 c30 4 40 2 40 -9 0 -10 -15 -14 -57 -14
l-58 0 0 105 c0 93 2 105 18 105 15 0 17 -11 17 -96z m245 69 c3 -15 17 -51
31 -80 13 -29 26 -64 30 -79 6 -21 4 -25 -11 -22 -10 1 -23 17 -28 33 -12 35
-23 45 -55 45 -18 0 -27 -9 -39 -40 -9 -22 -22 -40 -30 -40 -17 0 -18 -2 21
87 19 43 37 88 41 101 9 30 31 28 40 -5z m264 18 c27 -17 2 -30 -32 -16 -27
11 -36 11 -58 -1 -31 -16 -39 -32 -39 -84 0 -27 7 -45 22 -60 24 -22 77 -27
96 -8 9 9 12 8 12 -5 0 -34 -104 -35 -141 -2 -40 37 -32 131 14 167 24 19 102
24 126 9z m101 -33 l0 -42 43 42 c56 55 84 55 29 -1 -23 -23 -42 -47 -42 -52
0 -5 18 -30 40 -56 45 -54 47 -59 23 -59 -10 0 -35 21 -55 46 l-38 47 0 -47
c0 -39 -3 -46 -20 -46 -19 0 -20 7 -20 105 0 98 1 105 20 105 17 0 20 -7 20
-42z m338 19 c14 -11 16 -53 2 -62 -7 -4 -5 -14 5 -28 20 -29 19 -53 -5 -77
-24 -24 -100 -29 -100 -6 0 9 12 13 38 12 35 -1 37 1 40 32 3 29 1 32 -22 32
-32 0 -35 27 -4 32 14 2 22 11 23 26 2 31 -25 45 -47 25 -17 -15 -18 -15 -18
1 0 31 54 39 88 13z m130 5 c2 -7 -6 -12 -17 -12 -21 0 -27 11 -14 24 9 9 26
2 31 -12z m445 -2 c28 -22 49 -80 40 -108 -19 -63 -47 -82 -118 -82 -36 0 -47
5 -69 31 -38 45 -37 110 3 150 37 37 104 41 144 9z m223 -110 c2 0 4 29 4 65
0 54 3 65 16 65 14 0 16 -8 10 -46 -3 -26 -6 -74 -6 -108 l0 -61 -70 75 -69
75 -1 -72 c0 -61 -3 -73 -16 -73 -13 0 -15 7 -10 31 3 17 6 66 6 108 l0 76 66
-67 c36 -38 68 -68 70 -68z m208 115 c-4 -10 -17 -14 -38 -12 -28 2 -31 -1
-34 -30 -3 -32 -2 -33 32 -33 25 0 36 -5 36 -14 0 -11 -9 -13 -35 -9 l-35 6 0
-43 0 -43 40 6 c30 4 40 2 40 -9 0 -10 -15 -14 -60 -14 l-60 0 0 105 0 105 60
0 c48 0 58 -3 54 -15z m-874 -121 c0 -63 -3 -75 -15 -72 -12 2 -17 20 -19 76
-3 65 -1 72 15 72 17 0 19 -9 19 -76z m152 59 c24 -22 26 -133 3 -133 -11 0
-15 13 -15 54 0 61 -19 88 -45 66 -10 -8 -15 -31 -15 -67 0 -44 -3 -54 -16
-51 -8 2 -15 6 -15 11 1 4 1 36 1 71 l0 64 42 0 c26 1 50 -6 60 -15z m-1895
-280 c-2 -27 -3 -5 -3 47 0 52 1 74 3 48 2 -27 2 -69 0 -95z m2576 15 c-4 -24
-7 -77 -7 -118 1 -70 9 -97 52 -182 6 -13 -38 -9 -52 4 -11 11 -11 17 2 36 13
20 13 22 -1 16 -8 -3 -18 -1 -22 5 -3 6 2 11 12 11 14 0 15 2 4 9 -7 5 -11 14
-7 20 5 7 1 8 -10 4 -14 -5 -16 -2 -11 15 3 13 -1 28 -8 36 -8 7 -12 16 -10
18 8 7 -25 122 -37 129 -5 4 9 14 33 22 69 24 72 23 62 -25z m-218 -28 c-3 -5
-2 -10 4 -10 6 0 7 -7 4 -17 -5 -12 -3 -14 8 -8 12 8 12 6 0 -9 -24 -29 -16
-88 15 -113 23 -18 26 -24 15 -37 -17 -20 -6 -82 16 -95 20 -11 15 -14 -117
-66 -52 -20 -99 -41 -103 -45 -5 -4 14 -31 42 -59 30 -30 54 -65 58 -81 3 -16
9 -28 13 -25 14 8 21 72 11 98 -6 14 -6 37 -2 54 l8 28 12 -28 c6 -16 11 -43
11 -60 0 -74 -86 -192 -155 -214 -16 -5 -30 -16 -30 -24 0 -8 -8 -13 -19 -11
-12 2 -16 -1 -10 -9 4 -7 3 -10 -3 -6 -6 4 -39 -5 -74 -19 -85 -35 -167 -58
-302 -86 -95 -19 -144 -22 -317 -22 -143 0 -229 5 -283 15 -42 9 -74 12 -69 7
11 -11 153 -35 252 -43 103 -8 345 10 462 34 84 18 123 29 223 65 13 5 11 2
-5 -8 -38 -24 -142 -55 -275 -82 -97 -20 -151 -25 -280 -25 -167 -1 -207 2
-340 28 -92 17 -127 32 -80 33 26 1 27 3 10 10 -11 4 -47 15 -80 25 -33 9 -97
34 -141 55 l-82 38 7 38 c12 63 56 134 84 134 8 0 17 6 20 13 3 9 10 9 30 -2
30 -16 34 -36 12 -65 -19 -26 -19 -60 0 -76 9 -7 14 -19 11 -27 -3 -7 -1 -13
4 -13 6 0 10 5 10 10 0 6 6 13 14 16 8 3 33 23 56 45 38 37 85 62 135 75 19 5
22 1 22 -27 0 -25 -7 -36 -34 -51 -39 -23 -40 -46 -6 -94 12 -17 23 -37 25
-45 3 -16 51 -39 79 -39 11 0 19 -4 19 -10 0 -5 16 0 35 11 29 18 33 24 25 40
-6 10 -21 19 -33 19 -28 0 -62 23 -54 37 3 5 32 22 64 37 32 15 71 34 86 42
16 8 34 11 40 8 7 -3 4 1 -5 9 -10 8 -18 22 -18 31 0 31 -20 58 -34 47 -15
-13 -87 10 -101 33 -13 21 11 38 40 29 31 -10 83 -5 118 11 31 14 102 26 162
27 43 1 171 -28 198 -45 12 -8 40 -18 62 -21 22 -4 59 -13 83 -21 23 -8 52
-14 63 -14 18 0 20 4 14 31 l-7 31 34 -17 c18 -9 41 -20 51 -26 28 -15 33 -3
14 36 -15 31 -15 36 -1 50 9 8 11 15 5 15 -5 0 -13 -4 -16 -10 -3 -5 -12 -10
-18 -10 -7 0 -6 4 3 10 10 7 11 13 5 18 -10 6 -12 23 -6 47 2 6 2 24 1 41 -1
32 17 48 44 38 30 -11 25 17 -9 50 -43 43 -65 46 -65 10 0 -16 -4 -23 -11 -18
-6 3 -9 17 -6 31 3 18 1 23 -9 19 -41 -16 15 45 82 89 73 47 108 64 199 96 92
33 88 32 80 19z m-1539 -29 c66 -26 325 -65 372 -57 24 4 32 3 24 -2 -10 -7
-3 -11 25 -16 38 -7 171 -49 208 -65 54 -24 107 -41 116 -36 5 4 15 3 22 -2 6
-4 32 -8 57 -9 25 -1 54 -4 65 -7 11 -3 28 -6 38 -6 11 -1 15 -6 11 -12 -4 -8
1 -9 15 -4 28 9 111 -15 111 -32 0 -8 11 -11 29 -8 29 3 61 -18 48 -32 -4 -3
-3 -11 2 -17 9 -12 21 -56 15 -56 -2 0 -27 10 -56 21 -82 33 -200 69 -228 69
-29 0 -90 -34 -90 -51 0 -12 -76 -7 -152 10 -148 34 -210 33 -226 -4 -7 -15
-17 -22 -26 -19 -8 3 -17 1 -21 -5 -11 -19 -117 14 -196 60 -35 21 -71 30
-154 40 -59 7 -103 15 -96 17 6 2 11 8 11 12 0 5 -16 2 -36 -6 -20 -8 -39 -13
-41 -10 -9 8 37 45 83 66 69 33 71 44 11 65 -40 15 -47 20 -29 23 12 2 38 -2
57 -8 19 -6 39 -9 45 -5 5 3 10 2 10 -3 0 -6 16 -13 36 -17 20 -3 44 -10 53
-15 32 -17 323 -52 315 -38 -3 4 21 9 53 9 32 1 45 4 28 6 -16 2 -82 13 -145
24 -63 11 -146 25 -185 30 -71 9 -173 36 -236 63 l-34 15 33 -1 c17 -1 32 -4
32 -8 0 -9 79 -30 107 -30 10 1 -4 9 -32 19 -85 31 -105 40 -105 46 0 7 -1 7
56 -14z m1201 -293 c-3 -8 -6 -5 -6 6 -1 11 2 17 5 13 3 -3 4 -12 1 -19z
m-1441 -140 c0 -35 3 -74 7 -88 l8 -25 -12 25 c-19 42 -28 92 -22 122 9 48 19
31 19 -34z m216 -429 l103 -100 -1 -115 c-1 -78 2 -114 10 -114 6 -1 68 -2
138 -3 70 -1 132 -7 137 -12 19 -19 -6 -39 -46 -38 -21 1 -44 -4 -52 -10 -11
-9 -15 -9 -18 1 -3 8 -29 12 -83 12 -69 0 -81 3 -90 20 -8 15 -21 20 -51 20
-38 0 -39 -1 -28 -22 12 -22 12 -22 20 -3 10 27 9 -2 -1 -35 -5 -15 -8 -19 -9
-8 -1 18 -58 82 -80 89 -10 4 -21 51 -37 160 -36 235 -38 259 -26 259 6 0 58
-45 114 -101z m1264 53 c-11 -18 -102 -55 -145 -59 l-46 -4 35 17 c35 16 138
52 153 53 5 1 6 -3 3 -7z m-1859 -282 c44 -27 56 -51 37 -78 -12 -17 -12 -22
-2 -22 9 0 9 -3 2 -8 -18 -12 -26 -45 -12 -55 9 -6 7 -7 -6 -3 -14 5 -17 2
-12 -9 3 -9 2 -13 -4 -10 -6 3 -10 0 -10 -7 -1 -8 -6 -6 -15 6 -17 23 -19 18
-6 -17 11 -29 0 -37 -49 -37 -23 0 -27 3 -23 20 3 12 -2 27 -14 37 -10 10 -14
15 -9 11 16 -13 33 -9 33 7 0 8 -4 12 -8 9 -4 -2 -10 0 -14 6 -4 6 -11 7 -17
4 -6 -4 -8 -2 -5 3 4 6 17 8 30 6 22 -4 24 -2 23 31 -1 40 -13 49 -18 14 -4
-25 -28 -37 -28 -14 0 9 5 16 12 16 6 0 9 3 5 6 -8 8 16 33 26 27 4 -2 7 1 7
6 0 18 -28 12 -49 -10 -10 -11 -18 -31 -16 -44 1 -13 -2 -29 -6 -37 -6 -8 -9
2 -9 29 0 23 5 45 11 48 6 4 8 12 6 19 -3 6 3 12 12 13 62 6 119 37 83 46 -12
3 -13 5 -2 6 8 0 29 -8 47 -19z m-177 -50 c-8 -15 -8 -20 2 -20 11 0 11 -2 0
-8 -7 -5 -10 -16 -6 -25 3 -10 1 -17 -5 -17 -18 0 -17 55 1 78 16 19 20 14 8
-8z m560 -69 c0 -20 28 -93 39 -101 3 -3 13 -14 21 -24 14 -18 13 -19 -8 -13
-13 3 -21 3 -18 0 3 -4 1 -12 -5 -20 -13 -15 -69 -18 -69 -4 0 5 -6 11 -12 14
-7 2 -3 2 9 1 12 -2 25 1 29 8 5 7 3 8 -6 3 -9 -5 -11 -4 -6 4 5 7 16 9 28 5
l21 -6 -21 22 c-22 24 -36 81 -27 110 8 25 25 26 25 1z m1466 0 c16 -10 15
-10 -11 -5 -28 6 -29 6 -10 -9 19 -15 19 -15 0 -14 -11 0 -53 -1 -92 -2 l-73
-1 0 -40 c0 -33 3 -40 20 -40 11 0 20 6 20 13 0 7 7 22 15 33 15 18 15 17 13
-15 -3 -38 20 -56 29 -23 3 11 12 23 20 26 12 5 14 1 10 -14 -6 -24 0 -29 42
-32 30 -2 30 -3 14 -20 -17 -16 -64 -17 -598 -21 -319 -3 -581 -5 -582 -6 -2
-1 -3 -10 -3 -21 0 -13 11 -25 33 -34 17 -8 26 -15 20 -15 -7 -1 -13 -10 -13
-20 0 -11 -9 -23 -20 -26 -11 -4 -20 -15 -20 -26 0 -11 -7 -22 -15 -25 -8 -4
-15 -12 -15 -20 0 -21 -18 -17 -33 9 -22 35 -43 150 -29 155 22 7 43 34 49 64
3 16 14 33 24 39 15 7 17 6 13 -6 -4 -8 -2 -15 4 -15 6 0 17 -3 25 -6 18 -6
50 23 41 38 -4 7 -2 8 4 4 7 -4 12 -14 12 -22 0 -8 9 -14 20 -14 14 0 20 6 18
16 -2 10 3 19 10 21 7 3 12 -4 12 -16 0 -17 6 -21 35 -21 33 0 35 2 30 28 l-5
27 11 -28 c9 -22 16 -28 37 -25 21 2 28 10 33 33 l7 30 1 -32 c1 -30 4 -33 31
-33 22 0 30 5 30 18 1 16 1 16 11 0 12 -21 59 -24 59 -4 0 13 20 26 40 26 5 0
7 -9 5 -20 -3 -16 2 -20 25 -20 22 0 29 5 32 23 2 14 11 23 26 25 18 3 22 -1
22 -22 0 -17 6 -26 16 -26 9 0 12 5 8 13 -6 10 -4 10 7 0 20 -19 31 -16 27 9
-2 11 3 23 11 26 10 3 13 -2 9 -22 -4 -18 -1 -26 8 -26 8 0 14 11 15 28 l1 27
7 -25 c8 -29 61 -43 61 -16 0 9 -7 16 -15 16 -8 0 -15 4 -15 10 0 5 7 7 16 3
12 -4 15 -1 12 13 -3 16 -13 19 -63 22 -82 3 -83 3 -80 21 1 10 16 19 41 23
65 11 528 2 550 -11z m-1806 -65 c0 -2 -8 -10 -17 -17 -16 -13 -17 -12 -4 4
13 16 21 21 21 13z m450 -56 c0 -5 -4 -10 -9 -10 -6 0 -13 5 -16 10 -3 6 1 10
9 10 9 0 16 -4 16 -10z m40 -15 c0 -8 -7 -15 -15 -15 -26 0 -18 20 13 29 1 1
2 -6 2 -14z m-805 -38 c6 1 10 -8 10 -22 0 -28 -14 -35 -16 -7 -1 16 -2 16 -6
0 -8 -30 -33 -21 -33 10 0 35 11 48 25 29 5 -7 15 -12 20 -10z m159 -3 c9 -24
7 -31 -5 -14 -9 12 -10 10 -6 -8 4 -15 1 -22 -6 -19 -7 2 -24 0 -39 -4 -16 -4
-30 -3 -33 2 -4 5 1 9 9 9 9 0 16 6 16 13 0 9 3 8 9 -2 6 -9 11 -10 15 -2 4 6
5 15 2 20 -4 5 0 12 6 14 21 9 26 8 32 -9z m33 -26 c-3 -7 -5 -2 -5 12 0 14 2
19 5 13 2 -7 2 -19 0 -25z m78 12 c3 -6 -1 -7 -9 -4 -18 7 -21 14 -7 14 6 0
13 -4 16 -10z m-298 -56 c5 -13 7 -13 14 -2 7 10 9 10 9 -2 0 -9 9 -16 20 -17
11 -1 20 2 20 7 0 4 6 10 13 13 10 4 12 -3 9 -24 -3 -19 -10 -29 -21 -29 -26
0 -32 -10 -20 -33 9 -15 8 -18 -2 -12 -9 6 -11 3 -6 -9 4 -10 3 -15 -3 -11
-25 16 -57 -8 -78 -58 -15 -34 -25 -48 -32 -41 -7 7 -3 24 10 52 11 22 20 52
20 65 0 40 12 87 20 82 5 -3 6 4 3 15 -6 24 15 27 24 4z m164 -17 c11 3 19 0
19 -6 0 -6 -8 -11 -18 -11 -10 0 -22 -3 -26 -7 -14 -14 -34 -10 -39 8 -5 20
11 30 32 19 8 -4 22 -5 32 -3z m11 -96 c-4 -10 -7 -11 -10 -3 -6 18 -20 15
-25 -5 -4 -14 -5 -13 -6 4 -1 18 4 22 23 21 17 -2 22 -7 18 -17z m36 5 c-7 -8
-15 -12 -17 -11 -5 6 10 25 20 25 5 0 4 -6 -3 -14z"/>
<path d="M3252 3538 c-8 -8 -12 -53 -12 -135 0 -109 2 -123 19 -132 14 -8 22
-6 34 7 13 14 17 44 18 133 2 63 -1 121 -5 127 -9 15 -39 15 -54 0z"/>
<path d="M2340 3350 c0 -52 3 -70 13 -70 25 0 47 36 47 76 0 43 -14 64 -42 64
-16 0 -18 -9 -18 -70z"/>
<path d="M1966 3338 c-3 -13 -6 -73 -6 -135 0 -101 2 -113 19 -123 15 -7 23
-6 36 6 13 13 15 37 13 143 l-3 126 -26 3 c-20 2 -28 -2 -33 -20z"/>
<path d="M1430 2566 c0 -41 2 -44 23 -39 33 9 47 23 47 48 0 23 -17 35 -51 35
-16 0 -19 -7 -19 -44z"/>
<path d="M1430 2450 c0 -46 2 -50 23 -50 29 0 57 29 57 58 0 23 -27 42 -59 42
-18 0 -21 -6 -21 -50z"/>
<path d="M1863 2505 c-7 -20 2 -29 21 -22 9 4 13 13 10 22 -8 19 -23 19 -31 0z"/>
<path d="M3059 2538 c-39 -64 -6 -138 62 -138 46 0 62 23 62 87 0 54 -24 83
-70 83 -27 0 -37 -6 -54 -32z"/>
<path d="M3305 2150 c-8 -13 13 -108 25 -115 18 -11 22 20 10 71 -13 53 -22
65 -35 44z"/>
<path d="M3225 2117 c-34 -18 -37 -22 -19 -25 16 -2 25 -15 34 -47 8 -28 17
-42 25 -39 10 4 10 14 -1 52 -13 40 -12 47 1 55 15 8 21 27 8 27 -5 -1 -26
-11 -48 -23z"/>
<path d="M3122 2060 c-24 -23 -26 -29 -13 -49 6 -9 18 -11 35 -7 20 5 26 3 26
-10 0 -11 -6 -15 -19 -11 -29 7 -48 -9 -24 -21 31 -17 68 7 68 43 0 27 -3 30
-32 29 -18 -1 -33 2 -33 7 0 5 9 9 21 9 11 0 19 5 17 12 -7 20 -23 19 -46 -2z"/>
<path d="M3327 1994 c-3 -3 -4 -12 -1 -20 2 -8 6 -21 9 -29 3 -12 9 -13 30 -3
29 13 29 16 11 41 -13 17 -37 23 -49 11z"/>
<path d="M3240 1977 c0 -2 7 -19 16 -37 10 -20 19 -28 24 -21 3 7 14 9 23 5 9
-3 17 -2 17 4 0 5 -7 12 -15 16 -9 3 -12 12 -8 23 6 16 5 17 -12 3 -14 -11
-19 -12 -22 -2 -4 10 -23 18 -23 9z"/>
<path d="M3164 1914 c-18 -15 -18 -15 0 -10 16 6 17 4 6 -9 -7 -8 -10 -22 -6
-30 4 -12 10 -13 31 -3 30 13 32 29 7 51 -17 15 -20 15 -38 1z m36 -28 c0 -3
-4 -8 -10 -11 -5 -3 -10 -1 -10 4 0 6 5 11 10 11 6 0 10 -2 10 -4z"/>
<path d="M3095 1876 c-18 -13 -18 -17 -6 -40 19 -35 34 -33 26 4 -8 34 10 42
20 9 5 -14 10 -18 17 -11 6 6 5 17 -4 31 -15 25 -27 26 -53 7z"/>
<path d="M3082 1741 c2 -7 7 -12 11 -12 12 1 9 15 -3 20 -7 2 -11 -2 -8 -8z"/>
<path d="M1835 2060 c-4 -6 1 -7 12 -3 10 3 15 3 11 -2 -4 -4 -21 -10 -38 -14
-17 -3 -30 -11 -28 -16 4 -12 112 -9 116 4 2 5 13 7 25 4 22 -5 22 -5 2 9 -26
20 -92 32 -100 18z"/>
<path d="M1165 1089 c-4 -6 -5 -13 -2 -16 7 -7 27 6 27 18 0 12 -17 12 -25 -2z"/>
<path d="M1196 1083 c-11 -11 -7 -23 9 -23 9 0 12 -6 9 -15 -5 -11 -2 -13 10
-9 12 5 13 10 6 24 -12 23 -25 32 -34 23z"/>
<path d="M1180 1029 c0 -5 5 -7 10 -4 6 3 10 8 10 11 0 2 -4 4 -10 4 -5 0 -10
-5 -10 -11z"/>
<path d="M1130 999 c0 -5 9 -9 20 -9 11 0 20 2 20 4 0 2 -9 6 -20 9 -11 3 -20
1 -20 -4z"/>
<path d="M1116 891 c-4 -7 -5 -15 -2 -18 9 -9 19 4 14 18 -4 11 -6 11 -12 0z"/>
<path d="M1140 886 c0 -9 5 -16 10 -16 6 0 10 4 10 9 0 6 -4 13 -10 16 -5 3
-10 -1 -10 -9z"/>
<path d="M2619 943 c-1 -4 -2 -23 -3 -40 -1 -30 2 -33 29 -33 28 0 30 3 30 38
0 33 -3 37 -27 40 -16 2 -29 0 -29 -5z"/>
<path d="M2730 936 c-20 -26 -8 -61 23 -64 31 -4 39 23 10 31 -17 4 -17 5 0 6
21 1 23 27 1 35 -21 8 -20 8 -34 -8z"/>
<path d="M2802 941 c-8 -5 -12 -21 -10 -37 2 -23 9 -30 31 -32 25 -3 27 -1 27
31 0 23 -6 37 -16 41 -19 7 -16 7 -32 -3z"/>
<path d="M890 698 c0 -9 -5 -18 -11 -20 -7 -2 -7 -11 0 -28 5 -14 10 -19 10
-12 1 7 7 12 15 10 8 -2 14 -1 14 2 -1 3 4 16 11 29 12 22 12 23 -5 17 -10 -4
-21 -1 -26 6 -6 10 -8 9 -8 -4z"/>
<path d="M861 4614 c0 -11 3 -14 6 -6 3 7 2 16 -1 19 -3 4 -6 -2 -5 -13z"/>
<path d="M1129 4604 c4 -16 13 -30 19 -30 7 -1 19 -2 27 -3 12 -1 15 -15 15
-66 0 -36 4 -66 10 -66 44 -6 44 -6 47 61 1 36 2 68 2 73 1 4 12 7 26 7 18 0
25 5 25 20 0 18 -7 20 -67 20 -38 0 -78 3 -90 6 -20 5 -21 3 -14 -22z"/>
<path d="M1604 4623 c-72 -14 -90 -144 -24 -178 56 -29 111 -17 141 31 49 80
-19 166 -117 147z m71 -67 c24 -35 5 -76 -34 -76 -46 0 -68 52 -35 84 22 23
51 20 69 -8z"/>
<path d="M1335 4528 l0 -93 28 -3 c26 -3 32 4 28 36 -3 20 20 13 41 -13 18
-23 56 -33 71 -19 3 4 -1 17 -10 31 -13 20 -14 29 -5 44 18 28 14 67 -8 89
-16 16 -33 20 -83 20 l-62 0 0 -92z m110 27 c0 -14 -8 -21 -27 -23 -24 -3 -28
0 -28 23 0 23 4 26 28 23 19 -2 27 -9 27 -23z"/>
<path d="M1784 4583 c3 -21 6 -62 6 -90 0 -50 2 -53 25 -53 23 0 25 4 25 46
l0 47 38 -47 c24 -30 45 -46 60 -46 21 0 22 3 22 90 0 89 0 90 -25 90 -23 0
-25 -3 -25 -52 l0 -52 -37 52 c-31 41 -44 51 -67 52 -28 0 -28 -1 -22 -37z"/>
<path d="M2060 4613 c-37 -14 -50 -36 -50 -84 0 -60 31 -89 94 -89 56 0 78 17
73 55 -5 37 -34 47 -39 13 -4 -33 -62 -39 -78 -8 -24 45 23 90 74 70 29 -11
57 13 38 32 -12 12 -90 20 -112 11z"/>
<path d="M3552 4531 c-23 -49 -42 -94 -42 -99 0 -5 8 -16 18 -23 15 -13 16
-12 3 4 -12 15 -11 17 11 17 13 0 31 9 41 20 9 11 28 20 42 20 14 0 29 -8 35
-20 7 -13 21 -20 40 -20 32 0 36 9 20 38 -5 9 -23 47 -39 85 -27 60 -33 67
-58 67 -27 0 -33 -7 -71 -89z m82 4 c3 -9 0 -15 -9 -15 -9 0 -12 6 -9 15 4 8
7 15 9 15 2 0 5 -7 9 -15z"/>
<path d="M3760 4524 l0 -95 28 3 27 3 3 93 3 92 -31 0 -30 0 0 -96z"/>
<path d="M3850 4595 c0 -15 5 -25 13 -24 32 4 36 -3 39 -68 3 -66 4 -68 31
-71 l27 -3 0 69 c0 69 0 70 30 76 21 4 30 11 30 26 0 18 -6 20 -85 20 -84 0
-85 0 -85 -25z"/>
<path d="M2239 4483 c-7 -37 -2 -83 8 -83 17 0 35 36 31 63 -3 21 -36 38 -39
20z"/>
<path d="M835 4451 c3 -18 5 -45 5 -60 1 -20 3 -23 10 -10 6 10 4 31 -6 60
-12 36 -14 38 -9 10z"/>
<path d="M1050 4371 l-35 -28 13 -74 c7 -41 17 -75 22 -77 6 -2 10 -14 10 -27
0 -13 4 -26 9 -30 12 -7 18 82 10 155 -3 30 -3 60 1 65 12 18 20 45 12 45 -4
0 -23 -13 -42 -29z"/>
<path d="M3581 4381 c-22 -14 -22 -40 0 -51 40 -22 76 27 38 51 -8 5 -16 9
-19 9 -3 0 -11 -4 -19 -9z"/>
<path d="M1936 4361 c-15 -16 -15 -19 -2 -24 8 -3 31 -3 50 0 50 8 47 -12 -9
-67 -63 -62 -60 -70 25 -70 63 0 70 2 70 20 0 16 -7 20 -32 20 l-32 0 32 31
c36 35 41 68 14 92 -26 24 -94 22 -116 -2z"/>
<path d="M2139 4361 c-20 -16 -24 -29 -24 -71 0 -45 4 -55 29 -77 32 -27 77
-26 106 3 23 22 20 116 -4 143 -24 27 -76 28 -107 2z m70 -35 c7 -8 11 -30 9
-48 -2 -25 -8 -34 -25 -36 -16 -2 -23 3 -28 27 -6 29 8 71 24 71 5 0 14 -6 20
-14z"/>
<path d="M862 4300 c0 -14 2 -19 5 -12 2 6 2 18 0 25 -3 6 -5 1 -5 -13z"/>
<path d="M1397 4304 c2 -7 0 -21 -5 -31 -9 -16 -11 -15 -17 10 -5 17 -14 27
-26 27 -23 0 -23 -4 -2 -69 12 -38 21 -51 35 -51 11 0 22 9 25 20 3 11 9 20
13 20 4 0 10 -9 13 -20 6 -22 30 -26 44 -7 9 11 33 86 33 101 0 3 -9 6 -19 6
-12 0 -21 -10 -26 -27 l-7 -28 -10 26 c-5 16 -18 29 -33 31 -16 3 -22 1 -18
-8z"/>
<path d="M1528 4300 c-1 -5 -1 -33 1 -60 2 -41 6 -50 20 -48 12 3 17 16 18 61
2 50 0 57 -16 57 -11 0 -21 -4 -23 -10z"/>
<path d="M1580 4296 c0 -7 9 -16 20 -19 16 -4 20 -14 20 -46 0 -30 4 -41 15
-41 11 0 15 12 15 45 0 33 4 45 15 45 8 0 15 7 15 15 0 11 -12 15 -50 15 -36
0 -50 -4 -50 -14z"/>
<path d="M1702 4253 c3 -57 23 -85 30 -41 4 31 35 36 40 6 2 -13 10 -23 18
-23 12 0 15 13 15 55 0 44 -3 55 -17 58 -13 2 -18 -3 -18 -17 0 -14 -6 -21
-20 -21 -13 0 -20 7 -20 20 0 11 -7 20 -15 20 -13 0 -15 -11 -13 -57z"/>
<path d="M892 4270 c0 -19 2 -27 5 -17 2 9 2 25 0 35 -3 9 -5 1 -5 -18z"/>
<path d="M877 4188 c-4 -12 -3 -25 1 -28 4 -3 14 -18 22 -33 8 -16 16 -24 18
-18 2 6 -4 21 -12 33 -9 12 -16 29 -16 38 0 13 1 13 10 0 8 -12 10 -11 10 8 0
29 -26 29 -33 0z"/>
<path d="M867 4113 c-4 -3 -6 -27 -6 -52 2 -34 3 -38 6 -16 6 42 23 56 24 20
1 -29 1 -29 8 -5 10 34 -13 73 -32 53z"/>
<path d="M1080 4070 c-8 -5 -10 -10 -5 -10 6 0 17 5 25 10 8 5 11 10 5 10 -5
0 -17 -5 -25 -10z"/>
<path d="M891 3954 c4 -31 5 -64 2 -73 -5 -14 -4 -14 13 1 14 14 15 21 6 30
-7 7 -12 31 -12 55 0 24 -4 43 -8 43 -5 0 -5 -25 -1 -56z"/>
<path d="M861 3984 c0 -11 3 -14 6 -6 3 7 2 16 -1 19 -3 4 -6 -2 -5 -13z"/>
<path d="M872 3895 c0 -51 1 -55 8 -27 4 19 4 46 0 60 -6 21 -8 13 -8 -33z"/>
</g>
</svg>
